SplineFontDB: 1.0
FontName: TlwgTypist-Bold
FullName: Tlwg Typist Bold
FamilyName: Tlwg Typist
Weight: Bold
Copyright: Tlwg Typist, based on Poonlap Veerathanabutr's Tlwg Typewriter.\n\nCopyright (C) 2005-2006 Theppitak Karoonboonyanan.\n\nTlwg Typewriter, Free Thai Pseudo Monospace outline font.\n\nCopyright (C) 2003, 2004 Poonlap Veerathanabutr <poonlap@linux.thai.net>
Comments: 2003-11-20: Created. \nPfaEdit 1.0 (http://pfaedit.sf.net).\n\nTLWG is Thai Linux Working Group http://linux.thai.net\n\nImported ISO-8859-1 from FreeMono.sfd.\nhttp://www.nongnu.org/freefont/\n\n2003-11-22: first release\n\n2003-11-25: Fixed vowel and tone marks' level.
Version: 001.004: 2007-04-17
ItalicAngle: 0
UnderlinePosition: -100
UnderlineWidth: 50
Ascent: 800
Descent: 200
NeedsXUIDChange: 1
FSType: 0
OS2Version: 0
OS2_WeightWidthSlopeOnly: 0
OS2_UseTypoMetrics: 0
CreationTime: 1153664010
ModificationTime: 1178100529
PfmFamily: 49
TTFWeight: 700
TTFWidth: 5
LineGap: 90
VLineGap: 0
Panose: 2 0 6 3 0 0 0 0 0 0
OS2TypoAscent: 0
OS2TypoAOffset: 1
OS2TypoDescent: 0
OS2TypoDOffset: 1
OS2TypoLinegap: 90
OS2WinAscent: 0
OS2WinAOffset: 1
OS2WinDescent: 0
OS2WinDOffset: 1
HheadAscent: 0
HheadAOffset: 1
HheadDescent: 0
HheadDOffset: 1
OS2Vendor: 'PfEd'
ScriptLang: 4
 1 thai 4 KUY  PAL  THA  dflt 
 1 latn 1 dflt 
 1 DFLT 1 dflt 
 1 thai 1 PAL  
ContextSub: glyph 0 3 ' RQD' 0 0 0 1
 String: 15 uni0E0D uni0E10
 BString: 0 
 FString: 0 
 1
  SeqLookup: 0 'ndsc'
EndFPST
ChainSub: class 0 0 'ccmp' 7 7 1 5
  Class: 414 uni0E01 uni0E02 uni0E03 uni0E04 uni0E05 uni0E06 uni0E07 uni0E08 uni0E09 uni0E0A uni0E0B uni0E0C uni0E0D uni0E0E uni0E0F uni0E10 uni0E11 uni0E12 uni0E13 uni0E14 uni0E15 uni0E16 uni0E17 uni0E18 uni0E19 uni0E1A uni0E1B uni0E1C uni0E1D uni0E1E uni0E1F uni0E20 uni0E21 uni0E22 uni0E23 uni0E24 uni0E25 uni0E26 uni0E27 uni0E28 uni0E29 uni0E2A uni0E2B uni0E2C uni0E2D uni0E2E uni0E10.descless uni0E0D.descless dottedcircle
  Class: 7 uni0E33
  Class: 39 uni0E48 uni0E49 uni0E4A uni0E4B uni0E4C

StartChar: mu
Encoding: 116 181 0
Width: 600
Flags: W
HStem: -16 100<251 270> 0 21G<410 505> 337 100<60 96 364 410>
VStem: 95 100<-106 -8 134 337> 410 100<137 337>
Fore
195 -7 m 1
 195 -87 l 2
 195 -113 193 -122 186 -132 c 0
 176 -145 161 -153 145 -153 c 0
 128 -153 112 -144 102 -129 c 0
 97 -121 95 -110 95 -87 c 2
 95 337 l 1
 79 337 l 2
 54 337 43 339 33 347 c 0
 21 356 13 372 13 387 c 0
 13 404 22 421 37 430 c 0
 47 436 52 437 79 437 c 2
 195 437 l 1
 195 144 l 2
 195 101 214 84 260 84 c 0
 304 84 346 99 410 138 c 1
 410 337 l 1
 375 337 l 2
 350 337 339 339 330 347 c 1
 317 356 309 372 309 387 c 0
 309 404 318 421 333 430 c 0
 342 436 351 437 375 437 c 2
 510 437 l 1
 510 100 l 1
 549 100 571 82 571 50 c 0
 571 33 562 17 547 7 c 0
 539 2 526 0 505 0 c 2
 410 0 l 1
 410 22 l 1
 356 -4 305 -16 253 -16 c 0
 232 -16 215 -13 195 -7 c 1
EndSplineSet
EndChar
StartChar: uni0E31
Encoding: 239 3633 1
Width: 0
Flags: W
HStem: 484 64<-274.8 -210> 615 56<-274.8 -233.2>
VStem: -339 56<558.3 606.4> -225 56<561.264 606.4>
AnchorPoint: "AboveMark" -130 700 basemark 0
AnchorPoint: "AboveBase" -100 500 mark 0
Fore
-254 615 m 0
 -270 615 -283 601 -283 583 c 0
 -283 564 -270 548 -254 548 c 0
 -238 548 -225 564 -225 583 c 0
 -225 601 -238 615 -254 615 c 0
-254 671 m 16
 -203 671 -169 625 -169 583 c 0
 -169 576 -170 572 -171 566 c 1
 -115 572 -73 638 -49 665 c 9
 3 605 l 17
 -44 536 -137 484 -210 484 c 0
 -282 484 -339 509 -339 583 c 0
 -339 632 -301 671 -254 671 c 16
EndSplineSet
EndChar
StartChar: uni0E34
Encoding: 242 3636 2
Width: 0
Flags: W
HStem: 552 42<-411.334 -315.5> 595 21G<-390.5 -359.5> 621 50<-370.7 -226.4>
VStem: -495 386<500 550>
AnchorPoint: "AboveMark" -140 700 basemark 0
AnchorPoint: "AboveBase" -100 500 mark 0
Fore
-109 500 m 1
 -201 522 -283 552 -425 552 c 0
 -466 552 -495 550 -495 550 c 1
 -495 550 -433 671 -333 671 c 0
 -135 671 -109 500 -109 500 c 1
-406 594 m 1
 -400 594 -394 595 -387 595 c 0
 -332 595 -242 572 -189 563 c 1
 -210 589 -251 621 -333 621 c 0
 -362 621 -388 606 -406 594 c 1
EndSplineSet
EndChar
StartChar: uni0E35
Encoding: 243 3637 3
Width: 0
Flags: W
HStem: 552 42<-411.334 -325.254> 595 21G<-390.5 -370.5> 621 50<-370.7 -232.9>
VStem: -172 71<617 697>
AnchorPoint: "AboveMark" -143 700 basemark 0
AnchorPoint: "AboveBase" -100 500 mark 0
Fore
-406 594 m 1
 -400 594 -394 595 -387 595 c 0
 -354 595 -309 590 -261 576 c 0
 -228 571 -196 564 -174 559 c 1
 -197 586 -243 621 -333 621 c 0
 -362 621 -388 606 -406 594 c 1
-95 500 m 1
 -290.935 541.053 -309.682 552 -425 552 c 0
 -466 552 -495 550 -495 550 c 1
 -495 550 -433 671 -333 671 c 0
 -256 671 -206 647 -172 617 c 1
 -172 697 l 1
 -101 697 l 1
 -101 523 l 1
 -96 509 -95 500 -95 500 c 1
EndSplineSet
EndChar
StartChar: uni0E36
Encoding: 244 3638 4
Width: 0
Flags: W
HStem: 552 42<-411.334 -325.254> 595 21G<-390.5 -370.5> 621 50<-370.7 -251.1> 641 41<-161.2 -106.6>
VStem: -100 42<588.6 630.2>
AnchorPoint: "AboveMark" -129 700 basemark 0
AnchorPoint: "AboveBase" -100 500 mark 0
Fore
-406 594 m 1xe8
 -400 594 -394 595 -387 595 c 0
 -354 595 -309 590 -261 576 c 0
 -228 571 -196 564 -174 559 c 1
 -197 586 -243 621 -333 621 c 0
 -362 621 -388 606 -406 594 c 1xe8
-109 500 m 1
 -284 540 -305 552 -425 552 c 0
 -466 552 -495 550 -495 550 c 1
 -495 550 -433 671 -333 671 c 0xe8
 -270 671 -226 655 -193 634 c 1
 -186 661 -160 682 -129 682 c 0xd8
 -90 682 -58 651 -58 612 c 0
 -58 576 -87 547 -126 545 c 1
 -112 520 -109 500 -109 500 c 1
-130 641 m 0xd8
 -154 641 -175 626 -175 612 c 0
 -175 594 -154 582 -130 582 c 0
 -112 582 -100 594 -100 612 c 0
 -100 626 -112 641 -130 641 c 0xd8
EndSplineSet
EndChar
StartChar: uni0E37
Encoding: 245 3639 5
Width: 0
Flags: W
HStem: 552 42<-411.334 -325.254> 595 21G<-390.5 -370.5> 621 50<-370.7 -279.737>
VStem: -242 62<654 695> -174 62<619 695>
AnchorPoint: "AboveMark" -177 700 basemark 0
AnchorPoint: "AboveBase" -100 500 mark 0
Fore
-406 594 m 1
 -400 594 -394 595 -387 595 c 0
 -354 595 -309 590 -261 576 c 0
 -227 571 -193 564 -170 559 c 1
 -194 586 -241 621 -333 621 c 0
 -362 621 -388 606 -406 594 c 1
-108 500 m 1
 -284 540 -304 552 -425 552 c 0
 -466 552 -495 550 -495 550 c 1
 -495 550 -433 671 -333 671 c 0
 -297 671 -267 665 -242 654 c 1
 -242 695 l 1
 -180 695 l 1
 -180 630 l 1
 -178 627 -176 623 -174 619 c 1
 -174 695 l 1
 -112 695 l 1
 -112 513 l 1
 -110 505 -108 500 -108 500 c 1
EndSplineSet
EndChar
StartChar: uni0E47
Encoding: 261 3655 6
Width: 0
Flags: W
HStem: 486 38<-180.9 -145.8> 547 50<-280.5 -242.8> 571 36<-164 -145.8> 625 45<-226.9 -138.5> 642 50<-312.9 -233.6>
VStem: -400 75<564 627.7> -151 75<669.8 714> -137 35<531.4 563.9>
AnchorPoint: "AboveBase" -100 500 mark 0
AnchorPoint: "AboveMark" -253 500 mark 0
Fore
-190 547 m 0xc5
 -190 535 -177 524 -164 524 c 0
 -150 524 -137 535 -137 547 c 0xc5
 -137 560 -150 571 -164 571 c 0xa5
 -177 571 -190 560 -190 547 c 0xc5
-218 568 m 1
 -212 591 -190 607 -164 607 c 0xa6
 -130 607 -102 581 -102 547 c 0
 -102 514 -128 486 -160 486 c 0
 -211 486 -242 547 -261 547 c 0
 -276 547 -289 518 -276 470 c 1
 -345 470 -400 527 -400 590 c 0
 -400 657 -337 692 -270 692 c 0xcd
 -237 692 -217 670 -184 670 c 0
 -149 670 -151 680 -151 714 c 1
 -76 705 l 1
 -76 641 -95 625 -175 625 c 0x96
 -219 625 -242 642 -270 642 c 0x8e
 -303 642 -325 619 -325 590 c 0
 -325 570 -318 554 -294 549 c 1
 -301 570 -288 597 -261 597 c 0
 -247 597 -233 584 -218 568 c 1
EndSplineSet
EndChar
StartChar: uni0E48
Encoding: 262 3656 7
Width: 0
Flags: W
VStem: -169 71<679 892>
AnchorPoint: "AboveMark" -140 700 mark 0
Fore
-169 892 m 1
 -98 892 l 1
 -98 679 l 1
 -169 679 l 1
 -169 892 l 1
EndSplineSet
Substitution: 0 65534 'loww' uni0E48.low
MultipleSubs: 0 65534 'amtn' uni0E4D uni0E48
EndChar
StartChar: uni0E49
Encoding: 263 3657 8
Width: 0
Flags: W
HStem: 696 95<-310 -227.7>
VStem: -298 35<799.5 835.9> -221 35<799.5 835.9>
AnchorPoint: "AboveMark" -140 700 mark 0
Fore
-263 819 m 0
 -263 804 -253 791 -242 791 c 0
 -231 791 -221 804 -221 819 c 0
 -221 832 -231 844 -242 844 c 0
 -253 844 -263 832 -263 819 c 0
-298 819 m 0
 -298 850 -273 875 -242 875 c 0
 -211 875 -186 850 -186 819 c 0
 -186 810 -188 801 -194 794 c 0
 -198 780 -206 764 -222 746 c 1
 -138 761 -93 806 -78 869 c 1
 0 867 l 1
 -38 742 -150 696 -310 696 c 1
 -310 740 l 1
 -295 750 -284 759 -274 768 c 1
 -288 775 -298 795 -298 819 c 0
EndSplineSet
Substitution: 0 65534 'loww' uni0E49.low
MultipleSubs: 0 65534 'amtn' uni0E4D uni0E49
EndChar
StartChar: uni0E4B
Encoding: 265 3659 9
Width: 0
Flags: W
HStem: 751 61<-226 -176 -105 -55>
VStem: -176 71<700 751 812 866>
AnchorPoint: "AboveMark" -140 700 mark 0
Fore
-176 751 m 1
 -226 751 l 1
 -226 812 l 1
 -176 812 l 1
 -176 866 l 1
 -105 866 l 1
 -105 812 l 1
 -55 812 l 1
 -55 751 l 1
 -105 751 l 1
 -105 700 l 1
 -176 700 l 1
 -176 751 l 1
EndSplineSet
Substitution: 0 65534 'loww' uni0E4B.low
MultipleSubs: 0 65534 'amtn' uni0E4D uni0E4B
EndChar
StartChar: uni0E4C
Encoding: 266 3660 10
Width: 0
Flags: MW
HStem: 686 35<-161.5 -150.5 -161.5 -140.5>
VStem: -212 35<729.1 762.9> -135 35<729.1 762.9> -85 63<815.3 879>
AnchorPoint: "AboveMark" -154 700 mark 0
Fore
-177 746 m 0
 -177 733 -167 721 -156 721 c 0
 -145 721 -135 733 -135 746 c 0
 -135 759 -145 770 -156 770 c 0
 -167 770 -177 759 -177 746 c 0
-115 783 m 1
 -106 773 -100 761 -100 746 c 0
 -100 713 -125 686 -156 686 c 0
 -187 686 -212 713 -212 746 c 0
 -212 761 -205 773 -195 785 c 0
 -171 821 -85 830 -85 879 c 1
 -22 870 l 1
 -22 820 -72 794 -115 783 c 1
EndSplineSet
Substitution: 0 65534 'loww' uni0E4C.low
MultipleSubs: 0 65534 'amtn' uni0E4D uni0E4C
EndChar
StartChar: exclam
Encoding: 1 33 12
Width: 600
Flags: W
HStem: -15 132<283 317>
Fore
379 525 m 1
 350 228 l 2
 347 197 329 179 301 179 c 128
 273 179 254 198 251 228 c 2
 222 525 l 1
 221 537 220 551 220 558 c 0
 220 604 254 638 301 638 c 0
 347 638 381 604 381 558 c 0
 381 552 380 538 379 525 c 1
309 -15 m 2
 292 -15 l 2
 255 -15 225 15 225 51 c 128
 225 87 255 117 292 117 c 2
 309 117 l 2
 346 117 375 88 375 51 c 128
 375 14 346 -15 309 -15 c 2
EndSplineSet
EndChar
StartChar: quotedbl
Encoding: 2 34 13
Width: 600
Flags: W
HStem: 582 20G<136 264 336 464>
Fore
136 602 m 1
 264 602 l 1
 233 348 l 1
 229 322 221 312 201 312 c 0
 182 312 173 322 170 347 c 1
 136 602 l 1
336 602 m 1
 464 602 l 1
 433 348 l 1
 429 322 421 312 401 312 c 0
 382 312 373 322 370 347 c 1
 336 602 l 1
EndSplineSet
EndChar
StartChar: numbersign
Encoding: 3 35 14
Width: 600
Flags: W
HStem: 139 99<105 154 261 326 432 474> 344 100<125 168 276 340 447 494>
VStem: 142 100<-45 -29>
Fore
447 444 m 1
 472 444 l 2
 499 444 507 442 517 435 c 0
 530 425 538 410 538 394 c 0
 538 377 529 360 514 351 c 0
 505 346 496 344 472 344 c 2
 440 344 l 1
 432 238 l 1
 451 238 l 2
 478 238 488 236 497 229 c 0
 510 219 518 204 518 188 c 0
 518 171 509 155 494 146 c 0
 485 141 475 139 452 139 c 2
 425 139 l 1
 414 -29 l 2
 413 -44 406 -67 401 -73 c 0
 391 -85 376 -92 362 -92 c 0
 335 -92 311 -67 313 -41 c 1
 319 17 321 80 326 139 c 1
 254 139 l 1
 242 -29 l 1
 242 -70 225 -92 192 -92 c 0
 163 -92 142 -70 142 -40 c 0
 142 -36 142 -29 143 -22 c 1
 154 139 l 1
 128 139 l 2
 103 139 93 141 83 148 c 0
 70 158 62 173 62 189 c 128
 62 205 71 222 86 231 c 0
 95 237 102 238 128 238 c 2
 161 238 l 1
 168 344 l 1
 149 344 l 2
 122 344 113 346 103 353 c 0
 90 363 82 379 82 394 c 0
 82 411 91 428 106 437 c 0
 115 443 122 444 149 444 c 2
 175 444 l 1
 187 612 l 1
 188 638 190 645 198 656 c 0
 208 668 223 675 238 675 c 0
 267 675 289 651 288 623 c 1
 285 562 280 504 276 444 c 1
 347 444 l 1
 359 612 l 1
 360 640 362 646 370 656 c 0
 380 668 395 675 410 675 c 0
 436 675 462 650 460 627 c 2
 458 605 l 1
 447 444 l 1
340 344 m 1
 269 344 l 1
 261 238 l 1
 333 238 l 1
 340 344 l 1
EndSplineSet
EndChar
StartChar: dollar
Encoding: 4 36 15
Width: 600
Flags: W
HStem: -123 247<298 312> 34 195<130 136> 417 164<435.508 452> 495 189<298 312>
VStem: 107 104<423.778 440> 252 99<-76 27 591 630> 413 104<196 210>
Fore
351 618 m 2
 351 592 l 1
 371 588 376 588 395 582 c 2
 409 577 l 2
 410 576 414 575 418 574 c 1
 429 579 437 581 446 581 c 0
 473 581 492 563 495 536 c 0
 496 528 496 524 496 515 c 2
 496 483 l 2
 496 457 494 447 487 438 c 0
 477 424 462 417 446 417 c 0
 419 417 400 432 394 459 c 0
 391 478 351 495 310 495 c 0
 250 495 211 470 211 433 c 0
 211 406 235 387 286 377 c 2
 351 363 l 2
 413 350 449 334 475 308 c 0
 502 281 517 242 517 199 c 0
 517 112 455 47 351 27 c 1
 351 -56 l 2
 351 -84 350 -92 342 -102 c 0
 332 -115 317 -123 302 -123 c 0
 285 -123 268 -114 259 -99 c 0
 253 -90 252 -81 252 -56 c 2
 252 27 l 1
 210 36 205 38 173 52 c 1
 157 38 148 34 134 34 c 0
 116 34 100 43 90 58 c 0
 85 67 83 76 83 101 c 2
 83 162 l 2
 83 189 85 198 92 208 c 0
 102 221 117 229 133 229 c 0
 146 229 160 223 169 215 c 1
 176 207 176 207 184 180 c 0
 192 149 245 124 300 124 c 0
 365 124 413 157 413 200 c 0
 413 235 389 254 333 265 c 2
 259 280 l 2
 160 300 107 354 107 435 c 0
 107 513 166 577 252 592 c 1
 252 618 l 2
 252 645 254 653 261 664 c 1
 271 676 286 684 302 684 c 0
 319 684 335 675 344 660 c 0
 350 651 351 644 351 618 c 2
EndSplineSet
EndChar
StartChar: percent
Encoding: 5 37 16
Width: 600
Flags: W
HStem: -15 65<366 372> 199 65<356.168 371> 338 65<223 241> 552 65<223 241>
VStem: 89 65<474 482> 229 65<112 130> 303 65<474 482> 443 65<112 130>
Fore
228 617 m 0
 307 617 368 555 368 476 c 0
 368 401 305 338 229 338 c 0
 152 338 89 401 89 478 c 0
 89 554 152 617 228 617 c 0
228 552 m 0
 188 552 154 518 154 478 c 0
 154 437 188 403 228 403 c 0
 269 403 303 437 303 477 c 0
 303 519 270 552 228 552 c 0
491 331 m 1
 129 213 l 2
 122 211 113 209 109 209 c 0
 94 209 80 224 80 241 c 0
 80 257 88 265 110 272 c 2
 472 390 l 2
 484 394 486 394 492 394 c 0
 507 394 521 379 521 362 c 0
 521 346 513 337 491 331 c 1
368 264 m 0
 447 264 508 202 508 123 c 0
 508 48 445 -15 368 -15 c 0
 292 -15 229 48 229 125 c 0
 229 201 292 264 368 264 c 0
368 199 m 0
 328 199 294 165 294 125 c 0
 294 84 328 50 369 50 c 0
 409 50 443 84 443 124 c 0
 443 166 410 199 368 199 c 0
EndSplineSet
EndChar
StartChar: ampersand
Encoding: 6 38 17
Width: 600
Flags: W
HStem: -14 100<236 267> 0 21G<381 442> 450 100<282 300>
VStem: 75 100<131.728 147> 137 100<397 403>
Fore
365 198 m 1
 388 280 l 1
 441 280 l 2
 468 280 477 278 487 270 c 0
 500 260 507 246 507 229 c 0
 507 203 488 182 464 180 c 1
 453 139 446 121 434 100 c 1
 442 100 l 2
 469 100 477 98 487 91 c 0
 500 81 508 66 508 50 c 0
 508 33 499 16 484 7 c 0
 476 2 463 0 442 0 c 2
 381 0 l 1
 370 15 l 1
 340 -6 310 -14 257 -14 c 0
 147 -14 75 48 75 144 c 0
 75 211 109 267 171 303 c 1
 144 349 137 368 137 399 c 0
 137 480 208 550 289 550 c 0
 313 550 333 545 359 533 c 1
 371 537 380 540 387 540 c 0
 412 540 435 515 435 490 c 0
 435 467 426 456 394 438 c 2
 353 416 l 1
 324 442 310 450 290 450 c 0
 261 450 237 428 237 400 c 0
 237 389 246 370 265 343 c 2
 365 198 l 1
312 100 m 1
 228 220 l 1
 193 204 175 177 175 144 c 0
 175 105 202 86 257 86 c 0
 282 86 293 89 312 100 c 1
EndSplineSet
EndChar
StartChar: quotesingle
Encoding: 7 39 18
Width: 600
Flags: W
HStem: 582 20G<236 364>
Fore
236 602 m 1
 364 602 l 1
 333 348 l 1
 329 322 321 312 301 312 c 0
 282 312 273 322 270 347 c 1
 236 602 l 1
EndSplineSet
EndChar
StartChar: parenleft
Encoding: 8 40 19
Width: 600
Flags: W
Fore
437 632 m 0
 466 632 488 610 488 583 c 0
 488 571 486 565 476 549 c 0
 406 437 375 341 375 240 c 0
 375 138 407 42 476 -70 c 0
 486 -86 488 -92 488 -104 c 0
 488 -131 466 -153 437 -153 c 0
 413 -153 400 -142 371 -95 c 0
 300 18 264 133 264 243 c 0
 264 350 307 478 380 587 c 0
 403 623 415 632 437 632 c 0
EndSplineSet
EndChar
StartChar: parenright
Encoding: 9 41 20
Width: 600
Flags: W
Fore
168 632 m 0
 192 632 205 621 234 574 c 0
 305 461 341 346 341 236 c 0
 341 129 298 1 225 -109 c 0
 202 -144 190 -153 168 -153 c 0
 139 -153 117 -131 117 -104 c 0
 117 -92 119 -86 129 -70 c 0
 199 42 230 138 230 239 c 0
 230 341 198 437 129 549 c 0
 119 565 117 571 117 583 c 0
 117 610 139 632 168 632 c 0
EndSplineSet
EndChar
StartChar: asterisk
Encoding: 10 42 21
Width: 600
Flags: W
VStem: 250 100<467 577>
Fore
219 372 m 1
 133 400 l 2
 96 411 83 425 83 452 c 128
 83 479 105 502 130 502 c 0
 140 502 143 501 164 495 c 2
 250 467 l 1
 250 556 l 2
 250 581 252 592 259 601 c 0
 269 614 284 622 300 622 c 0
 317 622 334 613 343 598 c 0
 348 589 350 580 350 556 c 2
 350 467 l 1
 436 495 l 2
 457 501 460 502 469 502 c 0
 494 502 517 478 517 452 c 128
 517 426 503 411 467 400 c 2
 381 372 l 1
 433 301 l 2
 448 280 452 271 452 258 c 0
 452 231 429 208 402 208 c 0
 381 208 373 214 352 242 c 2
 300 314 l 1
 248 242 l 2
 228 214 218 208 198 208 c 0
 171 208 148 231 148 258 c 0
 148 271 152 279 167 301 c 1
 219 372 l 1
EndSplineSet
EndChar
StartChar: plus
Encoding: 11 43 22
Width: 600
Flags: W
HStem: 230 100<89 250 349 507>
VStem: 250 100<47 230 329 513>
Fore
350 230 m 1
 350 66 l 2
 350 39 348 31 341 21 c 0
 331 8 316 0 300 0 c 0
 283 0 266 9 257 24 c 0
 252 33 250 43 250 66 c 2
 250 230 l 1
 108 230 l 2
 84 230 72 232 63 239 c 0
 50 249 42 264 42 280 c 0
 42 297 51 314 66 323 c 0
 75 329 83 330 108 330 c 2
 250 330 l 1
 250 494 l 2
 250 520 252 530 260 539 c 1
 269 553 284 560 300 560 c 0
 317 560 334 551 343 536 c 0
 349 527 350 520 350 494 c 2
 350 330 l 1
 491 330 l 2
 519 330 527 328 537 321 c 0
 550 311 558 296 558 280 c 0
 558 263 549 246 534 237 c 0
 526 232 514 230 491 230 c 2
 350 230 l 1
EndSplineSet
EndChar
StartChar: comma
Encoding: 12 44 23
Width: 600
Flags: W
Fore
219 134 m 1
 351 134 l 1
 210 -134 l 2
 202 -150 190 -158 178 -158 c 0
 161 -158 147 -145 147 -130 c 0
 147 -124 147 -122 150 -111 c 2
 219 134 l 1
EndSplineSet
EndChar
StartChar: hyphen
Encoding: 13 45 24
Width: 600
Flags: W
HStem: 229 100<89 507>
Fore
492 229 m 2
 108 229 l 2
 83 229 72 231 63 238 c 0
 50 248 42 263 42 279 c 0
 42 296 51 312 66 322 c 0
 75 328 83 329 108 329 c 2
 492 329 l 2
 518 329 528 327 538 320 c 0
 551 310 558 295 558 279 c 0
 558 262 549 245 534 236 c 0
 526 231 514 229 492 229 c 2
EndSplineSet
EndChar
StartChar: period
Encoding: 14 46 25
Width: 600
Flags: W
HStem: -15 21G<291 309>
Fore
309 -15 m 2
 291 -15 l 2
 255 -15 225 15 225 51 c 128
 225 87 255 117 291 117 c 2
 309 117 l 2
 346 117 375 88 375 51 c 128
 375 14 346 -15 309 -15 c 2
EndSplineSet
EndChar
StartChar: slash
Encoding: 15 47 26
Width: 600
Flags: W
Fore
505 610 m 1
 185 -69 l 1
 170 -103 157 -113 133 -113 c 0
 107 -113 83 -90 83 -65 c 0
 83 -55 86 -45 95 -27 c 2
 416 651 l 1
 431 685 444 695 467 695 c 0
 494 695 517 672 517 647 c 0
 517 636 515 630 505 610 c 1
EndSplineSet
EndChar
StartChar: zero
Encoding: 16 48 27
Width: 600
Flags: W
HStem: -15 100<290 308> 538 100<290 308>
VStem: 83 100<240 386> 417 100<240 386>
Fore
300 638 m 0
 450 638 517 501 517 359 c 2
 517 264 l 2
 517 120 449 -15 300 -15 c 0
 150 -15 83 122 83 264 c 2
 83 359 l 2
 83 503 151 638 300 638 c 0
183 366 m 2
 183 257 l 2
 183 153 229 85 300 85 c 128
 371 85 417 153 417 257 c 2
 417 366 l 2
 417 470 371 538 300 538 c 128
 229 538 183 470 183 366 c 2
EndSplineSet
EndChar
StartChar: one
Encoding: 17 49 28
Width: 600
Flags: W
HStem: 0 100<129 250 349 468>
VStem: 250 100<99 509>
Fore
350 638 m 1
 350 100 l 1
 451 100 l 2
 478 100 486 98 496 91 c 0
 509 81 517 66 517 50 c 0
 517 33 508 17 493 7 c 0
 486 3 471 0 451 0 c 2
 149 0 l 2
 126 0 112 3 104 10 c 0
 91 19 83 35 83 50 c 0
 83 67 92 84 107 93 c 0
 116 99 123 100 149 100 c 2
 250 100 l 1
 250 509 l 1
 163 486 l 2
 144 481 141 480 131 480 c 0
 105 480 85 503 85 532 c 128
 85 561 98 573 138 583 c 2
 350 638 l 1
EndSplineSet
EndChar
StartChar: two
Encoding: 18 50 29
Width: 600
Flags: W
HStem: 0 100<207 409> 0 154<453 460> 538 100<277 295>
VStem: 403 100<442 454>
Fore
207 100 m 1
 408 100 l 1
 411 136 427 154 458 154 c 0
 475 154 492 145 501 130 c 0
 506 121 508 112 508 88 c 2
 508 0 l 1
 54 0 l 1
 54 105 l 1
 222 244 241 260 286 301 c 0
 386 392 403 414 403 448 c 0
 403 499 353 538 288 538 c 0
 248 538 213 523 191 497 c 0
 181 485 180 483 169 451 c 0
 164 434 145 422 124 422 c 0
 97 422 74 444 74 470 c 0
 74 502 100 551 134 582 c 0
 174 618 231 638 290 638 c 0
 412 638 503 555 503 444 c 0
 503 379 479 341 380 251 c 0
 353 226 295 176 207 100 c 1
EndSplineSet
EndChar
StartChar: three
Encoding: 19 51 30
Width: 600
Flags: W
HStem: -15 100<241 303> 538 100<275 316>
VStem: 407 100<450.768 467> 429 100<176 194>
Fore
276 383 m 2
 316 383 l 2
 365 383 407 420 407 462 c 0
 407 509 364 538 295 538 c 0
 240 538 212 527 180 492 c 0
 171 483 158 477 144 477 c 0
 117 477 95 500 95 527 c 0
 95 585 194 638 301 638 c 0
 367 638 419 619 457 580 c 1
 489 549 507 505 507 464 c 0
 507 409 481 372 416 333 c 1
 492 296 529 246 529 182 c 0
 529 124 501 68 455 32 c 0
 411 -1 358 -15 271 -15 c 0
 148 -15 66 19 66 70 c 0
 66 98 88 120 116 120 c 0
 128 120 132 118 148 108 c 0
 174 91 204 85 268 85 c 0
 337 85 374 95 401 119 c 0
 418 135 429 160 429 183 c 0
 429 220 400 255 353 274 c 0
 332 283 319 285 276 287 c 0
 243 289 224 306 224 333 c 0
 224 362 246 383 276 383 c 2
EndSplineSet
EndChar
StartChar: four
Encoding: 20 52 31
Width: 600
Flags: W
HStem: 0 100<298 347 447 460> 100 38<447 487> 138 100<197 347> 602 20G<316 447>
VStem: 347 100<99 138 238 480>
Fore
447 622 m 1
 447 238 l 1
 486 238 508 220 508 188 c 128
 508 156 487 139 447 138 c 1
 447 100 l 1
 486 100 508 82 508 50 c 0
 508 33 499 17 484 7 c 0
 477 3 462 0 441 0 c 2
 309 0 l 2
 286 0 272 3 264 10 c 0
 251 19 243 35 243 50 c 0
 243 67 252 84 267 93 c 0
 276 99 285 100 309 100 c 2
 347 100 l 1
 347 138 l 1
 75 138 l 1
 75 221 l 1
 316 622 l 1
 447 622 l 1
347 238 m 1
 347 480 l 1
 197 238 l 1
 347 238 l 1
EndSplineSet
EndChar
StartChar: five
Encoding: 21 53 32
Width: 600
Flags: W
HStem: -15 100<257 291> 324 100<305 323> 522 100<219 435>
VStem: 119 100<407 522> 429 100<192 210>
Fore
219 522 m 1
 219 407 l 1
 255 418 289 424 318 424 c 0
 439 424 529 330 529 202 c 0
 529 144 510 92 474 53 c 0
 430 5 372 -15 278 -15 c 0
 158 -15 66 28 66 84 c 0
 66 111 89 133 116 133 c 0
 130 133 137 130 152 118 c 0
 182 93 212 85 277 85 c 0
 381 85 429 122 429 201 c 0
 429 275 384 324 317 324 c 0
 284 324 240 312 197 290 c 0
 184 284 178 282 169 282 c 0
 140 282 119 306 119 338 c 2
 119 622 l 1
 421 622 l 2
 448 622 456 620 467 613 c 1
 479 603 487 588 487 572 c 0
 487 555 478 538 463 529 c 0
 456 524 442 522 421 522 c 2
 219 522 l 1
EndSplineSet
EndChar
StartChar: six
Encoding: 22 54 33
Width: 600
Flags: W
HStem: -15 100<328 347> 294 100<328 347> 535 103<421 437>
VStem: 435 100<176 193>
Fore
535 189 m 0
 535 69 462 -15 331 -15 c 0
 248 -15 187 19 149 87 c 0
 123 135 105 213 105 285 c 0
 105 374 131 450 182 514 c 0
 249 596 331 638 423 638 c 0
 493 638 540 612 540 573 c 0
 540 545 517 522 489 522 c 0
 476 522 446 535 429 535 c 0
 323 535 231 447 208 324 c 1
 256 375 294 394 345 394 c 0
 450 394 535 302 535 189 c 0
218 209 m 1
 233 122 269 85 334 85 c 0
 397 85 435 125 435 190 c 0
 435 248 392 294 338 294 c 0
 295 294 245 258 218 209 c 1
EndSplineSet
EndChar
StartChar: seven
Encoding: 23 55 34
Width: 600
Flags: W
HStem: 522 100<174 403>
Fore
403 522 m 1
 175 522 l 1
 172 486 156 468 125 468 c 0
 108 468 91 477 82 492 c 0
 77 501 75 510 75 534 c 2
 75 622 l 1
 508 622 l 1
 508 523 l 1
 349 48 l 1
 336 12 323 -1 297 -1 c 0
 270 -1 246 21 246 47 c 0
 246 56 248 64 253 81 c 1
 403 522 l 1
EndSplineSet
EndChar
StartChar: eight
Encoding: 24 56 35
Width: 600
Flags: W
HStem: -15 100<290 308> 263 101<290 308> 538 100<290 308>
VStem: 83 100<160 178> 92 100<448 460> 408 100<448 460> 417 100<160 178>
Fore
420 319 m 1
 484 279 517 227 517 165 c 0
 517 58 429 -15 299 -15 c 0
 171 -15 83 58 83 165 c 0
 83 227 116 279 180 319 c 1
 120 359 92 402 92 455 c 0
 92 557 184 638 300 638 c 0
 415 638 508 557 508 457 c 0
 508 402 480 359 420 319 c 1
300 538 m 0
 236 538 192 502 192 451 c 128
 192 400 237 364 300 364 c 128
 363 364 408 400 408 450 c 0
 408 502 364 538 300 538 c 0
300 263 m 0
 236 263 183 223 183 173 c 0
 183 122 232 85 300 85 c 128
 368 85 417 122 417 172 c 0
 417 223 366 263 300 263 c 0
EndSplineSet
EndChar
StartChar: nine
Encoding: 25 57 36
Width: 600
Flags: W
HStem: -15 103<215 235> 229 100<297 318> 538 100<297 318>
VStem: 111 100<417.862 450>
Fore
111 434 m 0
 111 553 185 638 315 638 c 0
 398 638 459 604 497 536 c 0
 523 489 541 409 541 338 c 0
 541 250 515 173 464 109 c 0
 397 27 315 -15 223 -15 c 0
 153 -15 106 11 106 50 c 0
 106 78 129 101 157 101 c 0
 170 101 200 88 217 88 c 0
 323 88 415 176 438 299 c 1
 390 248 352 229 302 229 c 0
 196 229 111 321 111 434 c 0
428 414 m 1
 413 501 377 538 312 538 c 0
 249 538 211 498 211 433 c 0
 211 375 254 329 308 329 c 0
 351 329 401 365 428 414 c 1
EndSplineSet
EndChar
StartChar: colon
Encoding: 26 58 37
Width: 600
Flags: W
HStem: -15 132<288 311> 304 133<288 311>
Fore
309 -15 m 2
 291 -15 l 2
 255 -15 225 15 225 51 c 128
 225 87 255 117 291 117 c 2
 309 117 l 2
 346 117 375 88 375 51 c 128
 375 14 346 -15 309 -15 c 2
309 304 m 2
 291 304 l 2
 255 304 225 334 225 370 c 0
 225 407 255 437 291 437 c 2
 309 437 l 2
 346 437 375 408 375 370 c 0
 375 333 346 304 309 304 c 2
EndSplineSet
EndChar
StartChar: semicolon
Encoding: 27 59 38
Width: 600
Flags: W
HStem: 304 133<261.451 279>
Fore
219 134 m 1
 351 134 l 1
 210 -134 l 2
 202 -150 190 -158 178 -158 c 0
 161 -158 147 -145 147 -130 c 0
 147 -124 147 -122 150 -111 c 2
 219 134 l 1
276 437 m 0
 322 437 351 411 351 370 c 0
 351 330 321 304 276 304 c 128
 231 304 201 331 201 371 c 0
 201 410 231 437 276 437 c 0
EndSplineSet
EndChar
StartChar: less
Encoding: 28 60 39
Width: 600
Flags: W
Fore
251 279 m 1
 512 143 l 2
 535 131 544 119 544 100 c 0
 544 95 542 88 539 81 c 2
 538 79 l 2
 532 65 516 54 502 54 c 0
 494 54 483 57 472 63 c 2
 42 280 l 1
 472 492 l 2
 484 498 494 501 502 501 c 0
 516 501 532 490 538 476 c 2
 539 474 l 2
 542 468 544 461 544 455 c 0
 544 436 535 424 512 412 c 2
 251 279 l 1
EndSplineSet
EndChar
StartChar: equal
Encoding: 29 61 40
Width: 600
Flags: W
HStem: 138 100<89 507> 322 100<89 507>
Fore
108 422 m 2
 492 422 l 2
 519 422 527 420 537 413 c 0
 550 403 558 388 558 372 c 0
 558 355 549 338 534 329 c 0
 526 324 514 322 492 322 c 2
 108 322 l 2
 84 322 72 324 63 332 c 1
 50 341 42 356 42 372 c 0
 42 389 51 406 66 415 c 0
 75 421 83 422 108 422 c 2
108 238 m 2
 492 238 l 2
 519 238 527 236 537 229 c 0
 550 219 558 204 558 188 c 0
 558 171 549 154 534 145 c 0
 526 140 514 138 492 138 c 2
 108 138 l 2
 84 138 72 140 63 148 c 1
 50 157 42 172 42 188 c 0
 42 205 51 222 66 231 c 0
 75 237 83 238 108 238 c 2
EndSplineSet
EndChar
StartChar: greater
Encoding: 30 62 41
Width: 600
Flags: W
Fore
349 275 m 1
 88 412 l 2
 65 423 56 435 56 453 c 0
 56 459 58 466 61 473 c 2
 62 475 l 2
 67 488 84 500 98 500 c 0
 106 500 117 497 128 491 c 2
 558 274 l 1
 128 62 l 2
 116 56 105 53 98 53 c 0
 84 53 68 64 62 78 c 2
 61 80 l 2
 58 87 56 93 56 100 c 0
 56 118 65 130 88 142 c 2
 349 275 l 1
EndSplineSet
EndChar
StartChar: question
Encoding: 31 63 42
Width: 600
Flags: W
HStem: -15 132<282.364 314> 498 100<292 314>
VStem: 104 100<448 474> 227 150<48 54> 417 100<407 420>
Fore
104 460 m 2
 104 539 l 1
 200 585 244 598 308 598 c 0
 432 598 517 521 517 409 c 0
 517 328 474 281 353 228 c 1
 349 192 332 174 303 174 c 0
 286 174 269 183 260 198 c 0
 255 207 253 217 253 240 c 2
 253 296 l 1
 381 345 417 371 417 414 c 0
 417 464 373 498 309 498 c 0
 271 498 237 490 204 474 c 1
 204 460 l 2
 204 434 202 424 195 415 c 0
 185 402 169 394 154 394 c 0
 137 394 120 404 111 418 c 0
 106 426 104 437 104 460 c 2
311 -15 m 2
 294 -15 l 2
 257 -15 227 15 227 51 c 128
 227 87 257 117 294 117 c 2
 311 117 l 2
 348 117 377 88 377 51 c 128
 377 14 348 -15 311 -15 c 2
EndSplineSet
EndChar
StartChar: at
Encoding: 32 64 43
Width: 600
Flags: W
HStem: -152 78<295 317> 72 81<372 383> 541 79<295 317>
VStem: 76 79<135 345> 218 79<215 233> 407 79<154 316 396 441>
Fore
407 397 m 1
 407 429 l 2
 407 495 364 541 302 541 c 0
 218 541 155 445 155 317 c 2
 155 161 l 2
 155 85 172 23 206 -24 c 0
 230 -59 261 -74 305 -74 c 128
 349 -74 389 -62 408 -42 c 0
 422 -28 427 -25 439 -25 c 0
 461 -25 479 -43 479 -66 c 0
 479 -113 397 -152 302 -152 c 0
 220 -152 165 -119 123 -45 c 0
 93 9 76 81 76 154 c 2
 76 323 l 2
 76 495 171 620 301 620 c 0
 409 620 486 540 486 429 c 2
 486 148 l 1
 502 141 509 130 509 113 c 0
 509 85 491 72 454 72 c 2
 407 72 l 1
 407 75 l 1
 392 73 383 72 374 72 c 0
 289 72 218 143 218 226 c 0
 218 319 295 389 407 397 c 1
407 155 m 1
 407 316 l 1
 341 310 297 274 297 225 c 0
 297 184 333 153 381 153 c 0
 388 153 393 153 407 155 c 1
EndSplineSet
EndChar
StartChar: A
Encoding: 33 65 44
Width: 600
Flags: W
HStem: 0 100<27.7264 46 155 188 395.592 439 553.031 572> 158 100<218 375> 483 100<122 201>
Fore
416 158 m 1
 178 158 l 1
 155 100 l 1
 178 100 l 2
 205 100 213 98 223 91 c 0
 236 81 244 66 244 50 c 0
 244 33 235 16 220 7 c 0
 212 2 199 0 178 0 c 2
 45 0 l 2
 1 0 -21 17 -21 50 c 0
 -21 67 -12 84 3 93 c 0
 12 99 21 100 46 100 c 1
 201 483 l 1
 138 483 l 2
 112 483 102 485 92 492 c 0
 79 502 71 517 71 533 c 0
 71 550 80 566 95 576 c 0
 104 582 111 583 138 583 c 2
 354 583 l 1
 553 100 l 1
 581 100 590 98 600 90 c 0
 613 81 621 66 621 50 c 0
 621 33 612 16 597 7 c 0
 589 2 576 0 555 0 c 2
 416 0 l 2
 392 0 380 3 371 10 c 0
 358 19 350 34 350 50 c 0
 350 67 359 84 374 93 c 0
 383 99 390 100 416 100 c 2
 439 100 l 1
 416 158 l 1
375 258 m 1
 297 450 l 1
 218 258 l 1
 375 258 l 1
EndSplineSet
EndChar
StartChar: B
Encoding: 34 66 45
Width: 600
Flags: W
HStem: 0 100<60 94 194 382> 242 100<194 329> 483 100<60 94 194 335>
VStem: 94 100<100 241 342 483> 428 100<415 421> 471 100<143 162>
Fore
94 100 m 1
 94 483 l 1
 79 483 l 2
 54 483 43 485 34 492 c 0
 21 502 13 518 13 533 c 0
 13 550 23 567 37 576 c 0
 46 582 55 583 79 583 c 2
 332 583 l 2
 445 583 528 513 528 418 c 0
 528 372 509 339 465 305 c 1
 537 269 571 223 571 160 c 0
 571 64 492 0 374 0 c 2
 79 0 l 2
 56 0 42 3 34 10 c 0
 21 19 13 35 13 50 c 0
 13 67 22 84 37 93 c 0
 46 99 55 100 79 100 c 2
 94 100 l 1
194 342 m 1
 307 342 l 2
 379 342 428 373 428 419 c 0
 428 459 390 483 327 483 c 2
 194 483 l 1
 194 342 l 1
194 100 m 1
 369 100 l 2
 437 100 471 118 471 154 c 0
 471 178 454 204 428 220 c 0
 403 235 371 242 329 242 c 2
 194 242 l 1
 194 100 l 1
EndSplineSet
EndChar
StartChar: C
Encoding: 35 67 46
Width: 600
Flags: W
HStem: -14 100<304 354> 367 216<496 502> 497 100<288.512 329>
VStem: 33 100<241 323>
Fore
447 563 m 2
 457 559 l 1
 470 577 482 583 499 583 c 0
 517 583 533 574 542 559 c 0
 548 550 549 542 549 517 c 2
 549 433 l 2
 549 408 547 397 540 388 c 0
 530 375 515 367 499 367 c 0
 486 367 472 373 464 381 c 128
 456 389 454 396 450 420 c 0
 445 444 435 457 406 473 c 0
 379 488 343 497 309 497 c 0
 207 497 133 420 133 315 c 2
 133 251 l 2
 133 151 210 86 330 86 c 0
 375 86 415 94 440 109 c 0
 451 115 451 115 478 143 c 0
 489 154 501 159 514 159 c 0
 541 159 564 136 564 109 c 0
 564 86 545 60 511 36 c 0
 467 4 399 -14 327 -14 c 0
 157 -14 33 97 33 249 c 2
 33 315 l 2
 33 475 151 597 305 597 c 0
 357 597 392 589 447 563 c 2
EndSplineSet
EndChar
StartChar: D
Encoding: 36 68 47
Width: 600
Flags: W
HStem: 0 100<60 74 174 302> 483 100<60 74 174 302>
VStem: 74 100<100 483> 450 100<239 321>
Fore
74 100 m 1
 74 483 l 1
 35 483 13 501 13 533 c 0
 13 550 22 567 37 576 c 0
 46 582 53 583 80 583 c 2
 292 583 l 2
 438 583 550 462 550 305 c 2
 550 258 l 2
 550 185 526 123 480 75 c 0
 431 23 371 0 284 0 c 2
 80 0 l 2
 56 0 43 3 34 10 c 0
 21 19 13 35 13 50 c 0
 13 82 36 100 74 100 c 1
174 100 m 1
 285 100 l 2
 345 100 378 112 409 144 c 1
 437 175 450 210 450 261 c 2
 450 307 l 2
 450 354 434 398 405 432 c 0
 375 467 337 483 284 483 c 2
 174 483 l 1
 174 100 l 1
EndSplineSet
EndChar
StartChar: E
Encoding: 37 69 48
Width: 600
Flags: W
HStem: 0 100<60 94 194 450> 0 219<492 510> 483 100<60 94 194 428>
VStem: 94 100<100 243 342 483> 279 99<217 243 342 370> 428 100<414 483>
Fore
194 243 m 1
 194 100 l 1
 450 100 l 1
 450 152 l 2
 450 180 452 188 459 198 c 0
 469 212 484 219 500 219 c 0
 517 219 533 210 543 195 c 0
 548 186 550 177 550 152 c 2
 550 0 l 1
 79 0 l 2
 56 0 42 3 34 10 c 0
 21 19 13 34 13 50 c 0
 13 67 22 83 37 93 c 0
 46 99 55 100 79 100 c 2
 94 100 l 1
 94 483 l 1
 79 483 l 2
 54 483 43 485 34 492 c 0
 21 502 13 517 13 533 c 0
 13 550 22 567 37 576 c 0
 46 582 53 583 79 583 c 2
 528 583 l 1
 528 433 l 2
 528 405 526 397 519 387 c 0
 509 374 494 366 478 366 c 0
 461 366 445 375 435 390 c 0
 430 399 428 409 428 433 c 2
 428 483 l 1
 194 483 l 1
 194 342 l 1
 279 342 l 1
 279 349 l 2
 279 376 281 385 288 395 c 0
 298 408 313 416 328 416 c 0
 355 416 373 398 377 370 c 0
 378 361 378 358 378 349 c 2
 378 236 l 2
 378 210 376 200 369 191 c 0
 359 178 344 170 329 170 c 0
 312 170 295 179 286 194 c 0
 281 203 279 212 279 236 c 2
 279 243 l 1
 194 243 l 1
EndSplineSet
EndChar
StartChar: F
Encoding: 38 70 49
Width: 600
Flags: W
HStem: 0 100<60 94 194 302> 483 100<60 94 194 450>
VStem: 94 100<99 243 342 483> 279 99<223 243 342 368> 450 100<413 483>
Fore
194 243 m 1
 194 100 l 1
 294 100 l 2
 321 100 330 98 340 91 c 0
 352 81 360 66 360 50 c 0
 360 33 351 16 336 7 c 0
 329 3 314 0 294 0 c 2
 79 0 l 2
 56 0 42 3 34 10 c 0
 21 19 13 35 13 50 c 0
 13 67 22 84 37 93 c 0
 46 99 55 100 79 100 c 2
 94 100 l 1
 94 483 l 1
 79 483 l 2
 54 483 43 485 34 492 c 0
 21 502 13 517 13 533 c 0
 13 550 22 567 37 576 c 0
 46 582 53 583 79 583 c 2
 550 583 l 1
 550 432 l 2
 550 405 548 397 541 387 c 0
 531 374 516 366 500 366 c 0
 483 366 467 375 457 390 c 0
 452 398 450 409 450 432 c 2
 450 483 l 1
 194 483 l 1
 194 342 l 1
 279 342 l 1
 279 349 l 2
 279 374 281 385 288 394 c 0
 298 407 313 415 329 415 c 0
 346 415 362 406 371 391 c 0
 377 381 378 374 378 349 c 2
 378 236 l 2
 378 209 376 200 369 190 c 0
 359 177 344 169 329 169 c 0
 312 169 295 179 286 193 c 0
 281 202 279 213 279 236 c 2
 279 243 l 1
 194 243 l 1
EndSplineSet
EndChar
StartChar: G
Encoding: 39 71 50
Width: 600
Flags: W
HStem: -14 100<303 354> 180 100<329 450> 497 100<303 338>
VStem: 33 100<228 323>
Fore
550 180 m 1
 550 48 l 1
 461 1 409 -14 331 -14 c 0
 233 -14 148 15 99 65 c 0
 58 108 33 176 33 246 c 2
 33 317 l 2
 33 393 64 467 117 520 c 0
 170 572 235 597 317 597 c 0
 371 597 420 586 462 565 c 1
 474 589 484 597 503 597 c 0
 520 597 536 588 543 573 c 0
 549 563 550 555 550 531 c 2
 550 453 l 2
 550 425 549 418 541 408 c 0
 531 395 516 387 500 387 c 0
 487 387 473 393 465 402 c 0
 459 409 459 409 451 440 c 0
 441 475 391 497 318 497 c 0
 262 497 217 481 186 450 c 0
 153 417 133 367 133 317 c 2
 133 253 l 2
 133 195 147 156 178 130 c 0
 212 101 262 86 325 86 c 0
 373 86 412 94 450 111 c 1
 450 180 l 1
 350 180 l 2
 325 180 314 182 305 190 c 1
 292 199 284 214 284 230 c 0
 284 247 293 264 308 273 c 0
 317 279 325 280 350 280 c 2
 525 280 l 2
 552 280 561 278 571 271 c 0
 585 261 592 246 592 230 c 0
 592 205 578 188 550 180 c 1
EndSplineSet
EndChar
StartChar: H
Encoding: 40 72 51
Width: 600
Flags: W
HStem: 0 100<68 95 195 232 374 408 509 536> 241 100<195 408> 563 20G<109 210 394 495>
VStem: 95 100<99 241 341 483> 409 100<99 241 341 483>
Fore
409 241 m 1
 195 241 l 1
 195 100 l 1
 210 100 l 2
 236 100 246 98 255 91 c 0
 268 81 276 66 276 50 c 0
 276 33 267 16 252 7 c 0
 244 2 231 0 210 0 c 2
 89 0 l 2
 65 0 52 3 43 9 c 0
 31 19 23 35 23 50 c 0
 23 67 32 84 47 93 c 0
 56 99 64 100 89 100 c 2
 95 100 l 1
 95 483 l 1
 62 486 43 504 43 533 c 0
 43 550 52 567 67 576 c 0
 76 582 84 583 109 583 c 2
 210 583 l 2
 237 583 246 581 255 574 c 0
 268 564 276 549 276 533 c 0
 276 516 267 499 252 490 c 0
 243 485 234 483 210 483 c 2
 195 483 l 1
 195 341 l 1
 409 341 l 1
 409 483 l 1
 394 483 l 2
 368 483 359 485 349 492 c 0
 336 502 328 517 328 533 c 0
 328 550 337 567 352 576 c 0
 361 582 369 583 394 583 c 2
 495 583 l 2
 522 583 531 581 541 574 c 0
 553 564 561 549 561 533 c 0
 561 504 542 486 509 483 c 1
 509 100 l 1
 515 100 l 2
 542 100 551 98 560 91 c 0
 573 81 581 66 581 50 c 0
 581 33 572 16 557 7 c 0
 549 2 536 0 515 0 c 2
 394 0 l 2
 370 0 358 3 349 9 c 0
 336 19 328 35 328 50 c 0
 328 67 337 84 352 93 c 0
 361 99 370 100 394 100 c 2
 409 100 l 1
 409 241 l 1
EndSplineSet
EndChar
StartChar: I
Encoding: 41 73 52
Width: 600
Flags: W
HStem: 0 100<130 250 350 468> 483 100<130 250 350 468>
VStem: 250 100<99 483>
Fore
350 483 m 5
 350 100 l 5
 451 100 l 2
 478 100 486 98 496 91 c 0
 510 81 517 66 517 50 c 0
 517 17 495 0 451 0 c 2
 149 0 l 2
 125 0 113 3 104 10 c 0
 91 19 83 35 83 50 c 0
 83 67 92 84 107 93 c 0
 116 99 123 100 149 100 c 2
 250 100 l 5
 250 483 l 5
 149 483 l 6
 124 483 113 485 104 492 c 4
 91 502 83 517 83 533 c 4
 83 550 92 567 107 576 c 4
 116 582 123 583 149 583 c 6
 451 583 l 6
 478 583 486 581 496 574 c 4
 510 564 517 549 517 533 c 4
 517 516 508 499 493 490 c 4
 485 485 474 483 451 483 c 6
 350 483 l 5
EndSplineSet
EndChar
StartChar: J
Encoding: 42 74 53
Width: 600
Flags: W
HStem: -14 100<261 279> 483 100<261 390 489 567>
VStem: 54 100<116 227> 390 100<177 483>
Fore
490 483 m 1
 490 187 l 2
 490 121 473 83 426 42 c 0
 384 6 328 -14 269 -14 c 0
 212 -14 145 6 54 51 c 1
 54 213 l 2
 54 239 56 250 63 259 c 0
 73 272 88 280 104 280 c 0
 121 280 138 271 147 256 c 0
 153 247 154 238 154 213 c 2
 154 117 l 1
 203 95 237 86 271 86 c 0
 307 86 343 100 366 122 c 0
 387 143 390 152 390 198 c 2
 390 483 l 1
 271 483 l 2
 246 483 235 485 226 492 c 0
 213 502 205 517 205 533 c 0
 205 550 214 567 229 576 c 0
 238 582 245 583 271 583 c 2
 547 583 l 2
 574 583 583 581 592 574 c 0
 605 564 613 549 613 533 c 0
 613 516 604 499 589 490 c 0
 581 485 570 483 547 483 c 2
 490 483 l 1
EndSplineSet
EndChar
StartChar: K
Encoding: 43 75 54
Width: 600
Flags: W
HStem: 0 100<60 94 194 238 503 555> 483 100<60 94 194 238 511.031 527.081>
VStem: 94 100<99 208 334 483> 341 232<527 536>
Fore
341 532 m 0
 341 569 368 583 407 583 c 2
 507 583 l 2
 534 583 543 581 553 574 c 0
 565 564 573 549 573 533 c 0
 573 500 552 483 511 483 c 1
 335 330 l 1
 396 298 458 215 504 100 c 1
 536 100 l 2
 563 100 571 98 581 91 c 0
 594 81 602 66 602 50 c 0
 602 33 593 16 578 7 c 0
 571 3 556 0 536 0 c 2
 426 0 l 1
 379 143 315 240 254 259 c 1
 194 208 l 1
 194 100 l 1
 229 100 l 2
 256 100 264 98 274 91 c 0
 287 81 295 66 295 50 c 0
 295 33 286 16 271 7 c 0
 264 3 249 0 229 0 c 2
 79 0 l 2
 56 0 42 3 34 10 c 0
 21 19 13 35 13 50 c 0
 13 67 22 84 37 93 c 0
 46 99 55 100 79 100 c 2
 94 100 l 1
 94 483 l 1
 79 483 l 2
 54 483 43 485 34 492 c 0
 21 502 13 517 13 533 c 0
 13 550 22 567 37 576 c 0
 46 582 53 583 79 583 c 2
 229 583 l 2
 256 583 265 581 274 574 c 0
 287 564 295 549 295 533 c 0
 295 516 286 499 271 490 c 0
 263 485 252 483 229 483 c 2
 194 483 l 1
 194 334 l 1
 372 487 l 1
 351 495 341 509 341 532 c 0
EndSplineSet
EndChar
StartChar: L
Encoding: 44 76 55
Width: 600
Flags: W
HStem: 0 100<80 156 256 471> 483 100<80 156 256 322>
VStem: 156 100<100 483> 471 100<100 209>
Fore
256 483 m 1
 256 100 l 1
 471 100 l 1
 471 192 l 2
 471 219 473 228 480 238 c 0
 490 252 505 259 521 259 c 0
 538 259 554 250 564 235 c 0
 570 226 571 217 571 192 c 2
 571 0 l 1
 99 0 l 2
 76 0 62 3 54 10 c 0
 41 19 33 34 33 50 c 0
 33 67 42 84 57 93 c 0
 66 99 73 100 99 100 c 2
 156 100 l 1
 156 483 l 1
 99 483 l 2
 74 483 63 485 54 492 c 0
 41 502 33 517 33 533 c 0
 33 550 42 567 57 576 c 0
 66 582 73 583 99 583 c 2
 313 583 l 2
 340 583 348 581 358 574 c 0
 371 564 379 549 379 533 c 0
 379 516 370 499 355 490 c 0
 347 485 336 483 313 483 c 2
 256 483 l 1
EndSplineSet
EndChar
StartChar: M
Encoding: 45 77 56
Width: 600
Flags: W
HStem: 0 100<28 42 142 190 412 462 562 574> 563 20G<438 548>
VStem: 42 100<99 389> 462 100<99 389>
Fore
142 389 m 1
 142 100 l 1
 177 100 l 2
 204 100 212 98 223 91 c 0
 236 81 243 66 243 50 c 0
 243 33 234 17 219 7 c 0
 212 3 197 0 177 0 c 2
 48 0 l 2
 24 0 11 3 2 10 c 0
 -11 19 -19 34 -19 50 c 0
 -19 82 3 100 42 100 c 1
 42 483 l 1
 9 486 -10 504 -10 534 c 0
 -10 550 -1 567 14 577 c 0
 19 580 40 584 52 584 c 0
 87 584 128 583 165 583 c 1
 303 286 l 1
 438 583 l 1
 548 583 l 2
 575 583 584 581 594 574 c 0
 606 564 614 549 614 533 c 0
 614 504 595 486 562 483 c 1
 562 100 l 1
 601 100 623 82 623 50 c 0
 623 33 614 17 599 7 c 0
 592 3 577 0 557 0 c 2
 427 0 l 2
 404 0 390 3 382 10 c 0
 369 19 361 35 361 50 c 0
 361 67 370 84 385 93 c 0
 394 99 401 100 427 100 c 2
 462 100 l 1
 462 389 l 1
 351 138 l 1
 260 138 l 1
 142 389 l 1
EndSplineSet
EndChar
StartChar: N
Encoding: 46 78 57
Width: 600
Flags: W
HStem: 0 100<58 73 173 217> 483 100<39 73 375 431 531.031 546.331>
VStem: 73 100<99 394> 431 100<191 483>
Fore
173 394 m 1
 173 100 l 1
 208 100 l 2
 235 100 244 98 254 91 c 0
 267 81 274 66 274 50 c 0
 274 33 265 17 250 7 c 0
 243 3 228 0 208 0 c 2
 79 0 l 2
 55 0 42 3 33 10 c 0
 20 19 12 34 12 50 c 0
 12 82 34 100 73 100 c 1
 73 483 l 1
 58 483 l 2
 33 483 22 485 13 492 c 0
 0 502 -8 517 -8 533 c 0
 -8 550 1 567 16 576 c 0
 25 582 32 583 58 583 c 2
 173 583 l 1
 431 191 l 1
 431 483 l 1
 396 483 l 2
 371 483 360 485 351 492 c 0
 338 502 330 517 330 533 c 0
 330 550 339 567 354 576 c 0
 363 582 370 583 396 583 c 2
 526 583 l 2
 553 583 561 581 571 574 c 0
 584 564 592 549 592 533 c 0
 592 501 571 483 531 483 c 1
 531 0 l 1
 432 0 l 1
 173 394 l 1
EndSplineSet
EndChar
StartChar: O
Encoding: 47 79 58
Width: 600
Flags: W
HStem: -14 100<292 310> 497 100<292 310>
VStem: 21 100<273 307> 479 100<273 307>
Fore
300 597 m 0
 367 597 432 570 485 520 c 0
 548 460 579 383 579 287 c 0
 579 123 452 -14 300 -14 c 0
 146 -14 21 123 21 292 c 0
 21 460 146 597 300 597 c 0
300 497 m 0
 202 497 121 404 121 292 c 0
 121 179 202 86 300 86 c 0
 397 86 479 179 479 289 c 0
 479 404 399 497 300 497 c 0
EndSplineSet
EndChar
StartChar: P
Encoding: 48 80 59
Width: 600
Flags: W
HStem: 0 100<60 94 194 312> 200 100<194 318> 483 100<60 94 194 318>
VStem: 94 100<99 200 300 483> 423 106<383 401>
Fore
194 200 m 1
 194 100 l 1
 293 100 l 2
 320 100 328 98 338 91 c 0
 351 81 359 66 359 50 c 0
 359 33 350 16 335 7 c 0
 328 3 313 0 293 0 c 2
 79 0 l 2
 56 0 42 3 34 10 c 0
 21 19 13 35 13 50 c 0
 13 67 22 84 37 93 c 0
 46 99 55 100 79 100 c 2
 94 100 l 1
 94 483 l 1
 79 483 l 2
 54 483 43 485 34 492 c 0
 21 502 13 518 13 533 c 0
 13 550 22 567 37 576 c 0
 46 582 53 583 79 583 c 2
 312 583 l 2
 439 583 529 505 529 394 c 0
 529 348 511 301 479 266 c 0
 435 217 385 200 292 200 c 2
 194 200 l 1
194 483 m 1
 194 300 l 1
 312 300 l 2
 381 300 423 335 423 391 c 0
 423 448 381 483 312 483 c 2
 194 483 l 1
EndSplineSet
EndChar
StartChar: Q
Encoding: 49 81 60
Width: 600
Flags: W
HStem: -145 100<428 454> -117 92<308 326> -7 92<287 318> 497 100<287 318>
VStem: 21 100<270 304> 479 100<270 304>
Fore
271 -6 m 1
 267 -30 l 1
 291 -26 303 -25 318 -25 c 0
 344 -25 370 -29 402 -38 c 0
 425 -44 432 -45 443 -45 c 0
 458 -45 467 -42 486 -30 c 0
 509 -15 515 -13 526 -13 c 0
 555 -13 577 -35 577 -63 c 0
 577 -84 567 -98 539 -114 c 0
 503 -136 475 -145 444 -145 c 0
 419 -145 415 -144 367 -125 c 0
 356 -121 333 -117 319 -117 c 0
 298 -117 236 -127 193 -138 c 0
 181 -141 171 -143 165 -143 c 0
 139 -143 117 -119 117 -91 c 0
 117 -76 121 -68 137 -53 c 2
 199 7 l 1
 124 50 93 77 65 124 c 0
 37 173 21 231 21 292 c 0
 21 460 146 597 300 597 c 0
 453 597 579 460 579 294 c 0
 579 183 524 84 429 27 c 0
 391 4 345 -7 289 -7 c 0
 287 -7 279 -7 271 -6 c 1
300 497 m 0
 202 497 121 404 121 291 c 0
 121 179 202 85 300 85 c 0
 397 85 479 178 479 288 c 0
 479 404 399 497 300 497 c 0
EndSplineSet
EndChar
StartChar: R
Encoding: 50 82 61
Width: 600
Flags: W
HStem: 0 100<60 94 194 238 539 558> 483 100<60 94 194 318>
VStem: 94 100<99 222 322 483> 416 106<399 417>
Fore
194 222 m 1
 194 100 l 1
 229 100 l 2
 256 100 265 98 275 91 c 0
 287 81 295 66 295 50 c 0
 295 33 286 16 271 7 c 0
 264 3 249 0 229 0 c 2
 79 0 l 2
 56 0 42 3 34 10 c 0
 21 19 13 35 13 50 c 0
 13 67 22 84 37 93 c 0
 46 99 55 100 79 100 c 2
 94 100 l 1
 94 483 l 1
 79 483 l 2
 54 483 43 485 34 492 c 0
 21 502 13 517 13 533 c 0
 13 550 22 567 37 576 c 0
 46 582 53 583 79 583 c 2
 302 583 l 2
 432 583 522 510 522 405 c 0
 522 342 487 294 414 254 c 1
 461 213 498 167 540 100 c 1
 553 100 l 2
 578 100 589 98 599 91 c 0
 611 82 619 66 619 50 c 0
 619 33 610 16 595 7 c 0
 588 3 573 0 553 0 c 2
 474 0 l 1
 424 97 332 207 290 222 c 1
 194 222 l 1
194 322 m 1
 270 322 l 2
 354 322 416 358 416 408 c 0
 416 451 370 483 306 483 c 2
 194 483 l 1
 194 322 l 1
EndSplineSet
EndChar
StartChar: S
Encoding: 51 83 62
Width: 600
Flags: W
HStem: -14 100<285 325> 1 198<109 115> 497 100<285 319>
VStem: 82 104<417 432> 434 104<152 164>
Fore
517 531 m 2
 517 443 l 2
 517 415 515 407 508 397 c 0
 498 384 483 376 468 376 c 0
 454 376 440 382 432 390 c 0
 425 398 425 398 418 430 c 0
 409 470 361 497 299 497 c 0
 236 497 186 464 186 421 c 0
 186 400 201 377 223 366 c 0
 243 356 248 354 323 340 c 0
 410 324 448 310 479 285 c 0
 519 253 538 212 538 160 c 0
 538 56 446 -14 309 -14 c 0
 255 -14 202 -1 153 25 c 1
 136 5 129 1 113 1 c 0
 78 1 62 22 62 67 c 2
 62 133 l 2
 62 158 64 169 71 179 c 0
 81 192 96 199 112 199 c 0
 126 199 139 194 148 185 c 0
 155 178 155 178 163 151 c 0
 173 115 236 86 302 86 c 0
 376 86 434 119 434 162 c 0
 434 183 420 203 398 215 c 0
 377 226 361 230 293 242 c 0
 228 253 196 263 164 281 c 0
 113 310 82 363 82 420 c 0
 82 521 175 597 299 597 c 0
 350 597 394 586 429 564 c 1
 439 589 448 597 468 597 c 0
 485 597 502 588 510 574 c 0
 516 565 517 557 517 531 c 2
EndSplineSet
EndChar
StartChar: T
Encoding: 52 84 63
Width: 600
Flags: W
HStem: 0 100<169 249 349 427> 483 100<141 249 349 459>
VStem: 42 100<367.667 483> 249 100<99 483> 458 100<367.667 483>
Fore
349 483 m 1
 349 100 l 1
 415 100 l 2
 442 100 450 98 460 91 c 0
 473 81 481 66 481 50 c 0
 481 33 472 16 457 7 c 0
 450 3 435 0 415 0 c 2
 184 0 l 2
 161 0 148 3 139 10 c 0
 126 19 118 35 118 50 c 0
 118 67 127 84 142 93 c 0
 151 99 158 100 184 100 c 2
 249 100 l 1
 249 483 l 1
 142 483 l 1
 142 390 l 2
 142 363 140 355 133 345 c 0
 123 332 108 324 92 324 c 0
 75 324 58 333 49 348 c 0
 44 357 42 367 42 390 c 2
 42 583 l 1
 558 583 l 1
 558 390 l 2
 558 362 557 355 549 345 c 0
 539 332 524 324 508 324 c 0
 491 324 474 334 465 348 c 0
 460 357 458 367 458 390 c 2
 458 483 l 1
 349 483 l 1
EndSplineSet
EndChar
StartChar: U
Encoding: 53 85 64
Width: 600
Flags: W
HStem: -14 100<282.431 315> 483 100<171 219 377 429 529.031 544.331>
VStem: 71 100<193 483> 429 100<193 483>
Fore
529 483 m 1
 529 205 l 2
 529 134 502 78 445 35 c 0
 402 2 355 -14 300 -14 c 0
 246 -14 198 2 155 35 c 0
 99 78 71 134 71 205 c 2
 71 483 l 1
 31 484 10 501 10 533 c 0
 10 550 19 567 34 576 c 0
 43 582 51 583 76 583 c 2
 206 583 l 2
 234 583 241 582 252 574 c 0
 264 564 272 549 272 533 c 0
 272 516 263 499 248 490 c 0
 240 485 229 483 206 483 c 2
 171 483 l 1
 171 196 l 2
 171 135 229 86 300 86 c 128
 371 86 429 135 429 196 c 2
 429 483 l 1
 394 483 l 2
 368 483 358 485 349 492 c 0
 336 502 328 517 328 533 c 0
 328 550 337 567 352 576 c 0
 361 582 368 583 394 583 c 2
 524 583 l 2
 551 583 559 581 570 574 c 0
 583 564 590 549 590 533 c 0
 590 501 569 483 529 483 c 1
EndSplineSet
EndChar
StartChar: V
Encoding: 54 86 65
Width: 600
Flags: W
HStem: 0 21G<249 348> 483 100<26 48 159 188 410 447 553.016 572>
Fore
303 144 m 1
 447 483 l 1
 423 483 l 2
 396 483 388 485 377 492 c 1
 365 502 357 517 357 533 c 0
 357 550 366 567 381 576 c 0
 390 582 397 583 423 583 c 2
 555 583 l 2
 581 583 591 581 600 574 c 0
 613 564 621 549 621 533 c 0
 621 513 607 493 590 487 c 0
 581 484 574 483 553 483 c 1
 348 0 l 1
 249 0 l 1
 47 483 l 1
 27 483 19 484 10 487 c 0
 -7 493 -21 513 -21 533 c 0
 -21 550 -12 567 3 576 c 0
 12 582 19 583 45 583 c 2
 178 583 l 2
 204 583 214 581 224 574 c 0
 236 564 244 549 244 533 c 0
 244 516 235 499 220 490 c 0
 211 485 202 483 178 483 c 2
 159 483 l 1
 303 144 l 1
EndSplineSet
EndChar
StartChar: W
Encoding: 55 87 66
Width: 600
Flags: W
HStem: 0 21G<98 209 393 503> 417 20G<251 355> 483 100<139 209 391 466>
Fore
300 277 m 1
 209 0 l 1
 98 0 l 1
 36 483 l 1
 6 487 -10 503 -10 531 c 0
 -10 550 -1 566 14 576 c 0
 23 582 30 583 56 583 c 2
 187 583 l 2
 215 583 223 581 233 574 c 0
 246 564 254 549 254 533 c 0
 254 516 245 499 230 490 c 0
 221 485 211 483 187 483 c 2
 139 483 l 1
 175 211 l 1
 251 437 l 1
 355 437 l 1
 431 211 l 1
 466 483 l 1
 413 483 l 2
 388 483 377 485 368 492 c 0
 355 502 347 517 347 533 c 0
 347 550 356 567 371 576 c 0
 380 582 387 583 413 583 c 2
 544 583 l 2
 571 583 580 581 590 574 c 0
 602 564 610 549 610 533 c 0
 610 506 593 488 563 483 c 1
 503 0 l 1
 393 0 l 1
 300 277 l 1
EndSplineSet
EndChar
StartChar: X
Encoding: 56 88 67
Width: 600
Flags: W
HStem: 0 21G<76 187 413 524> 563 20G<85 176 422 512>
VStem: 19 224<527 535> 355 223<527 535>
Fore
19 533 m 0
 19 568 48 583 85 583 c 2
 176 583 l 2
 204 583 212 581 222 574 c 0
 235 564 243 549 243 533 c 0
 243 511 234 498 205 484 c 1
 300 375 l 1
 393 484 l 1
 365 498 355 511 355 533 c 0
 355 548 363 564 376 573 c 0
 384 580 400 583 422 583 c 2
 512 583 l 2
 539 583 547 581 557 574 c 0
 571 564 578 549 578 533 c 0
 578 502 556 484 521 483 c 1
 364 297 l 1
 531 100 l 1
 569 99 590 81 590 50 c 0
 590 33 581 16 566 7 c 0
 558 2 545 0 524 0 c 2
 413 0 l 2
 369 0 347 17 347 50 c 0
 347 80 367 98 402 100 c 1
 301 220 l 1
 199 100 l 1
 233 98 253 80 253 50 c 0
 253 33 244 16 229 7 c 0
 221 2 208 0 187 0 c 2
 76 0 l 2
 52 0 40 3 31 9 c 0
 18 19 10 34 10 50 c 0
 10 81 32 100 69 100 c 1
 235 298 l 1
 77 483 l 1
 40 485 19 503 19 533 c 0
EndSplineSet
EndChar
StartChar: Y
Encoding: 57 89 68
Width: 600
Flags: W
HStem: 0 100<164 250 350 423> 483 100<83 85 514 516>
VStem: 21 222<527 535> 250 100<99 245>
Fore
21 533 m 0
 21 569 49 583 88 583 c 2
 177 583 l 2
 204 583 213 581 223 574 c 0
 235 564 243 549 243 533 c 0
 243 510 231 495 205 484 c 1
 300 348 l 1
 394 484 l 1
 367 494 354 510 354 533 c 0
 354 550 363 567 378 576 c 0
 387 582 396 583 421 583 c 2
 513 583 l 2
 540 583 549 581 558 574 c 0
 572 564 579 549 579 533 c 0
 579 502 551 479 516 483 c 2
 514 483 l 1
 350 245 l 1
 350 100 l 1
 415 100 l 2
 443 100 451 98 461 91 c 0
 474 81 482 66 482 50 c 0
 482 33 473 16 458 7 c 0
 451 3 436 0 415 0 c 2
 185 0 l 2
 161 0 148 3 139 10 c 0
 126 19 118 34 118 50 c 0
 118 67 127 84 142 93 c 0
 151 99 158 100 185 100 c 2
 250 100 l 1
 250 245 l 1
 85 483 l 1
 44 483 21 501 21 533 c 0
EndSplineSet
EndChar
StartChar: Z
Encoding: 58 90 69
Width: 600
Flags: W
HStem: 0 100<201 428> 483 100<195 375>
VStem: 96 100<399 483>
Fore
201 100 m 1
 427 100 l 1
 427 172 l 2
 427 197 429 208 436 218 c 0
 446 230 461 238 477 238 c 0
 494 238 511 229 520 214 c 0
 526 205 527 198 527 172 c 2
 527 0 l 1
 73 0 l 1
 73 100 l 1
 375 483 l 1
 196 483 l 1
 196 413 l 2
 196 386 194 377 187 368 c 0
 177 355 162 347 146 347 c 0
 129 347 113 356 103 371 c 0
 98 380 96 388 96 413 c 2
 96 583 l 1
 504 583 l 1
 504 486 l 1
 201 100 l 1
EndSplineSet
EndChar
StartChar: bracketleft
Encoding: 59 91 70
Width: 600
Flags: W
HStem: 607 20G<250 408>
VStem: 250 100<-49 527>
Fore
350 527 m 1
 350 -48 l 1
 409 -48 l 2
 436 -48 444 -50 454 -57 c 0
 467 -67 475 -82 475 -98 c 0
 475 -115 466 -131 451 -141 c 0
 443 -146 431 -148 409 -148 c 2
 250 -148 l 1
 250 627 l 1
 408 627 l 2
 435 627 443 625 454 618 c 0
 467 608 474 593 474 577 c 0
 474 560 465 543 450 534 c 0
 442 529 430 527 408 527 c 2
 350 527 l 1
EndSplineSet
EndChar
StartChar: backslash
Encoding: 60 92 71
Width: 600
Flags: W
Fore
184 651 m 1
 505 -27 l 2
 514 -45 517 -55 517 -65 c 0
 517 -90 493 -113 467 -113 c 0
 443 -113 431 -103 415 -69 c 2
 95 610 l 1
 85 630 83 636 83 647 c 0
 83 672 106 695 133 695 c 0
 156 695 169 685 184 651 c 1
EndSplineSet
EndChar
StartChar: bracketright
Encoding: 61 93 72
Width: 600
Flags: W
HStem: -148 100<172 250> 527 100<172 250>
VStem: 250 100<-49 527>
Fore
250 -48 m 1
 250 527 l 1
 191 527 l 2
 164 527 156 529 146 536 c 0
 133 546 125 561 125 577 c 0
 125 594 134 610 149 620 c 0
 157 625 169 627 191 627 c 2
 350 627 l 1
 350 -148 l 1
 192 -148 l 2
 165 -148 157 -146 146 -139 c 0
 133 -129 126 -114 126 -98 c 0
 126 -81 135 -64 150 -55 c 0
 158 -50 170 -48 192 -48 c 2
 250 -48 l 1
EndSplineSet
EndChar
StartChar: asciicircum
Encoding: 62 94 73
Width: 600
Flags: W
Fore
299 494 m 1
 182 356 l 2
 160 330 153 325 133 325 c 0
 106 325 83 348 83 375 c 0
 83 390 87 398 105 419 c 2
 299 652 l 1
 495 419 l 2
 513 398 517 390 517 375 c 0
 517 348 494 325 467 325 c 0
 448 325 439 330 418 355 c 2
 299 494 l 1
EndSplineSet
EndChar
StartChar: underscore
Encoding: 63 95 74
Width: 600
Flags: W
HStem: -125 50<-12 612>
Fore
612 -75 m 1
 612 -125 l 1
 -12 -125 l 1
 -12 -75 l 1
 612 -75 l 1
EndSplineSet
EndChar
StartChar: grave
Encoding: 64 96 75
Width: 600
Flags: W
Fore
194 680 m 2
 327 569 l 2
 343 556 350 545 350 532 c 0
 350 513 333 496 313 496 c 0
 303 496 296 500 281 512 c 2
 148 624 l 1
 131 637 125 647 125 660 c 0
 125 680 141 696 162 696 c 0
 173 696 178 693 194 680 c 2
EndSplineSet
EndChar
StartChar: a
Encoding: 65 97 76
Width: 600
Flags: W
HStem: -16 100<217 235> 0 21G<388 505> 196 92<265 298> 350 100<276 315>
VStem: 42 106<117 129>
Fore
388 0 m 1
 388 23 l 1
 340 -2 281 -16 222 -16 c 0
 123 -16 42 45 42 119 c 0
 42 150 57 185 81 212 c 0
 126 262 195 288 284 288 c 0
 316 288 347 285 388 278 c 1
 388 301 l 2
 388 335 359 350 295 350 c 0
 262 350 225 345 179 333 c 0
 162 329 148 327 139 327 c 0
 111 327 90 349 90 378 c 0
 90 399 100 413 120 420 c 0
 168 437 242 450 292 450 c 4
 415 450 489 395 489 302 c 2
 489 100 l 1
 505 100 l 2
 532 100 541 98 551 91 c 0
 563 81 571 66 571 50 c 0
 571 33 562 16 547 7 c 0
 540 2 526 0 505 0 c 2
 388 0 l 1
389 135 m 1
 389 185 l 1
 349 192 312 196 278 196 c 0
 210 196 148 161 148 123 c 0
 148 101 181 84 224 84 c 0
 278 84 334 101 389 135 c 1
EndSplineSet
EndChar
StartChar: b
Encoding: 66 98 77
Width: 600
Flags: W
HStem: -14 100<311 329> 0 100<39 73> 351 100<311 345> 524 100<39 73>
VStem: 74 100<209 227 401 524> 471 100<209 227>
Fore
174 624 m 1
 174 401 l 1
 217 435 264 451 324 451 c 0
 399 451 455 430 501 386 c 128
 547 342 571 284 571 218 c 0
 571 153 547 96 501 51 c 0
 455 7 399 -14 325 -14 c 0
 266 -14 226 -1 174 35 c 1
 174 0 l 1
 58 0 l 2
 34 0 21 3 12 9 c 0
 0 19 -8 34 -8 50 c 0
 -8 67 1 84 16 93 c 0
 25 99 33 100 58 100 c 2
 74 100 l 1
 74 524 l 1
 58 524 l 2
 32 524 22 526 12 533 c 0
 0 543 -8 558 -8 574 c 0
 -8 591 1 608 16 617 c 0
 25 623 34 624 58 624 c 2
 174 624 l 1
323 86 m 0
 410 86 471 142 471 219 c 0
 471 252 456 286 432 311 c 1
 403 339 371 351 323 351 c 0
 274 351 241 339 213 311 c 0
 188 286 174 253 174 220 c 0
 174 141 235 86 323 86 c 0
EndSplineSet
EndChar
StartChar: c
Encoding: 67 99 78
Width: 600
Flags: W
HStem: -16 100<308 359> 350 100<293 332>
VStem: 54 100<191 225>
Fore
310 350 m 0
 215 350 154 292 154 207 c 0
 154 125 213 84 330 84 c 0
 370 84 411 89 435 97 c 0
 454 103 459 107 485 128 c 0
 494 136 503 140 515 140 c 0
 542 140 565 117 565 89 c 0
 565 63 542 37 501 16 c 0
 460 -4 396 -16 323 -16 c 0
 226 -16 164 5 115 53 c 0
 75 93 54 146 54 207 c 0
 54 350 159 450 310 450 c 0
 367 450 415 440 454 420 c 1
 460 441 471 450 492 450 c 0
 525 450 540 430 540 384 c 2
 540 307 l 2
 540 281 538 271 531 262 c 0
 521 249 506 241 490 241 c 0
 477 241 462 247 454 255 c 1
 446 261 444 267 439 289 c 0
 435 307 429 316 416 325 c 0
 390 341 354 350 310 350 c 0
EndSplineSet
EndChar
StartChar: d
Encoding: 68 100 79
Width: 600
Flags: W
HStem: -14 100<272 290> 0 21G<431 547> 351 100<272 290> 525 99<391 431>
VStem: 33 100<209 227> 431 100<209 227 401 525>
Fore
531 624 m 1
 531 100 l 1
 547 100 l 2
 574 100 583 98 593 91 c 0
 605 81 613 66 613 50 c 0
 613 33 604 16 589 7 c 0
 581 2 570 0 547 0 c 2
 431 0 l 1
 431 35 l 1
 378 -1 339 -14 280 -14 c 0
 205 -14 149 7 103 51 c 0
 57 96 33 153 33 219 c 0
 33 284 57 342 103 386 c 128
 149 430 205 451 281 451 c 0
 341 451 388 435 431 401 c 1
 431 525 l 1
 415 525 l 2
 389 525 379 527 369 534 c 0
 357 544 349 559 349 575 c 128
 349 591 358 608 373 617 c 0
 382 623 389 624 415 624 c 2
 531 624 l 1
281 351 m 0
 233 351 200 339 172 311 c 0
 147 286 133 252 133 219 c 0
 133 144 192 86 282 86 c 0
 330 86 364 99 392 126 c 0
 417 151 431 185 431 217 c 0
 431 253 417 286 392 311 c 0
 363 339 331 351 281 351 c 0
EndSplineSet
EndChar
StartChar: e
Encoding: 69 101 80
Width: 600
Flags: W
HStem: -16 100<288 322> 172 88<145 439> 350 100<272 308>
Fore
550 172 m 1
 142 172 l 1
 165 112 218 84 306 84 c 0
 352 84 377 88 469 112 c 0
 481 115 493 117 502 117 c 0
 529 117 550 95 550 67 c 0
 550 47 539 33 515 22 c 0
 470 2 368 -16 297 -16 c 0
 142 -16 33 80 33 216 c 0
 33 348 145 450 291 450 c 0
 440 450 550 349 550 211 c 2
 550 172 l 1
145 260 m 1
 439 260 l 1
 423 315 365 350 292 350 c 128
 219 350 160 314 145 260 c 1
EndSplineSet
EndChar
StartChar: f
Encoding: 70 102 81
Width: 600
Flags: W
HStem: 0 100<122 199 299 452> 337 100<138 199 299 460> 523 100<378 396>
VStem: 199 100<99 337 436 481>
Fore
299 337 m 1
 299 100 l 1
 438 100 l 2
 465 100 474 98 484 91 c 0
 496 81 504 66 504 50 c 0
 504 33 495 17 480 7 c 0
 473 3 458 0 438 0 c 2
 141 0 l 2
 118 0 104 3 95 10 c 0
 83 19 75 35 75 50 c 0
 75 67 84 84 99 93 c 0
 108 99 115 100 141 100 c 2
 199 100 l 1
 199 337 l 1
 152 337 l 2
 128 337 116 339 107 347 c 1
 94 356 86 371 86 387 c 0
 86 404 95 421 110 430 c 0
 119 436 126 437 153 437 c 2
 199 437 l 1
 199 474 l 2
 199 566 273 623 392 623 c 0
 434 623 497 616 529 607 c 0
 556 600 571 583 571 560 c 0
 571 531 550 509 524 509 c 0
 518 509 508 510 496 512 c 0
 462 518 414 523 383 523 c 0
 326 523 299 507 299 474 c 2
 299 437 l 1
 450 437 l 2
 477 437 485 435 495 428 c 0
 508 418 516 403 516 387 c 0
 516 370 507 354 492 344 c 0
 484 339 472 337 450 337 c 2
 299 337 l 1
EndSplineSet
EndChar
StartChar: g
Encoding: 71 103 82
Width: 600
Flags: W
HStem: -205 100<192 322> -14 100<256 273> 351 100<256 273> 417 20G<410 526>
VStem: 33 100<210 228> 410 100<-30 35 210 228>
Fore
410 401 m 1
 410 437 l 1
 526 437 l 2
 553 437 562 435 572 428 c 0
 584 418 592 403 592 387 c 0
 592 370 583 353 568 344 c 0
 560 339 549 337 526 337 c 2
 510 337 l 1
 510 -20 l 2
 510 -126 428 -205 319 -205 c 2
 207 -205 l 2
 182 -205 171 -203 162 -195 c 1
 149 -186 141 -171 141 -155 c 0
 141 -138 150 -121 165 -112 c 0
 174 -106 181 -105 207 -105 c 2
 316 -105 l 2
 373 -105 410 -72 410 -20 c 2
 410 35 l 1
 364 1 321 -14 269 -14 c 0
 135 -14 33 86 33 218 c 0
 33 351 135 451 269 451 c 0
 323 451 371 434 410 401 c 1
271 351 m 0
 195 351 133 292 133 219 c 0
 133 145 195 86 271 86 c 128
 347 86 410 145 410 217 c 0
 410 292 349 351 271 351 c 0
EndSplineSet
EndChar
StartChar: h
Encoding: 72 104 83
Width: 600
Flags: W
HStem: 0 100<76 94 195 222 386 409 508 526> 350 100<316 338> 524 100<60 94>
VStem: 95 100<99 283 389 524> 409 100<99 289>
Fore
195 624 m 1
 195 389 l 1
 235 430 280 450 332 450 c 0
 438 450 509 384 509 284 c 2
 509 100 l 1
 515 100 l 2
 542 100 551 98 561 91 c 0
 573 81 581 66 581 50 c 0
 581 33 572 16 557 7 c 0
 549 2 536 0 515 0 c 2
 403 0 l 2
 379 0 366 3 357 9 c 0
 344 19 336 34 336 50 c 0
 336 67 345 83 360 93 c 0
 369 98 378 100 403 100 c 2
 409 100 l 1
 409 271 l 2
 409 305 405 317 388 331 c 128
 371 345 352 350 321 350 c 0
 274 350 252 338 195 283 c 1
 195 100 l 1
 201 100 l 2
 229 100 237 98 247 91 c 0
 260 81 268 66 268 50 c 0
 268 33 259 17 244 7 c 0
 236 2 222 0 201 0 c 2
 89 0 l 2
 65 0 53 3 44 9 c 0
 31 19 23 35 23 50 c 0
 23 67 32 84 47 93 c 0
 56 98 64 100 89 100 c 2
 95 100 l 1
 95 524 l 1
 79 524 l 2
 53 524 43 526 33 533 c 0
 21 543 13 559 13 574 c 0
 13 591 22 608 37 617 c 0
 46 622 55 624 79 624 c 2
 195 624 l 1
EndSplineSet
EndChar
StartChar: i
Encoding: 73 105 84
Width: 600
Flags: W
HStem: 0 100<109 250 349 479> 337 100<157 250> 518 105<218 335>
VStem: 250 100<99 337>
Fore
350 437 m 1
 350 100 l 1
 472 100 l 2
 499 100 507 98 517 91 c 0
 530 81 538 66 538 50 c 0
 538 33 529 17 514 7 c 0
 507 3 492 0 472 0 c 2
 128 0 l 2
 105 0 91 3 83 10 c 0
 70 19 62 34 62 50 c 0
 62 67 71 84 86 93 c 0
 95 99 102 100 128 100 c 2
 250 100 l 1
 250 337 l 1
 172 337 l 2
 147 337 135 339 126 347 c 1
 113 356 105 371 105 387 c 0
 105 404 114 421 129 430 c 0
 138 436 146 437 172 437 c 2
 350 437 l 1
336 623 m 1
 336 518 l 1
 218 518 l 1
 218 623 l 1
 336 623 l 1
EndSplineSet
EndChar
StartChar: j
Encoding: 74 106 85
Width: 600
Flags: W
HStem: -205 100<164 310> 337 100<164 388> 518 105<311 430>
VStem: 388 100<-30 337>
Fore
388 337 m 1
 186 337 l 2
 161 337 150 339 141 347 c 1
 128 356 120 372 120 387 c 0
 120 404 129 421 144 430 c 0
 153 436 160 437 186 437 c 2
 488 437 l 1
 488 -20 l 2
 488 -125 406 -205 297 -205 c 2
 183 -205 l 2
 158 -205 147 -203 138 -195 c 1
 125 -186 117 -170 117 -155 c 0
 117 -138 127 -121 141 -112 c 0
 150 -106 158 -105 183 -105 c 2
 294 -105 l 2
 351 -105 388 -72 388 -20 c 2
 388 337 l 1
430 623 m 1
 430 518 l 1
 311 518 l 1
 311 623 l 1
 430 623 l 1
EndSplineSet
EndChar
StartChar: k
Encoding: 75 107 86
Width: 600
Flags: W
HStem: 0 100<81.7263 114 470 525> 417 20G<345 457> 524 100<80 114>
VStem: 115 100<99 164 287 524>
Fore
215 164 m 1
 215 0 l 1
 99 0 l 2
 55 0 33 17 33 50 c 0
 33 67 42 84 57 93 c 0
 66 99 74 100 99 100 c 2
 115 100 l 1
 115 524 l 1
 99 524 l 2
 73 524 63 526 53 533 c 0
 41 543 33 558 33 574 c 0
 33 591 42 608 57 617 c 0
 66 623 75 624 99 624 c 2
 215 624 l 1
 215 287 l 1
 294 350 l 1
 282 364 278 373 278 387 c 0
 278 404 287 420 302 430 c 0
 310 435 321 437 345 437 c 2
 457 437 l 2
 482 437 493 435 503 428 c 0
 516 418 523 403 523 387 c 0
 523 370 514 354 499 344 c 0
 491 339 480 337 457 337 c 2
 429 337 l 1
 311 241 l 1
 471 100 l 1
 504 100 l 2
 532 100 540 98 550 91 c 0
 563 81 571 66 571 50 c 0
 571 33 562 17 547 7 c 0
 539 2 526 0 504 0 c 2
 386 0 l 2
 342 0 320 17 320 50 c 0
 320 64 324 74 336 87 c 1
 233 178 l 1
 215 164 l 1
EndSplineSet
EndChar
StartChar: l
Encoding: 76 108 87
Width: 600
Flags: W
HStem: 0 100<109 250 349 479> 524 100<157 250>
VStem: 250 100<99 524>
Fore
350 624 m 1
 350 100 l 1
 472 100 l 2
 499 100 507 98 517 91 c 0
 530 81 538 66 538 50 c 0
 538 33 529 17 514 7 c 0
 507 3 492 0 472 0 c 2
 128 0 l 2
 105 0 91 3 83 10 c 0
 70 19 62 35 62 50 c 0
 62 67 71 84 86 93 c 0
 95 99 102 100 128 100 c 2
 250 100 l 1
 250 524 l 1
 172 524 l 2
 147 524 135 526 126 534 c 1
 112 543 105 558 105 574 c 0
 105 592 114 608 129 617 c 0
 138 623 147 624 172 624 c 2
 350 624 l 1
EndSplineSet
EndChar
StartChar: m
Encoding: 77 109 88
Width: 600
Flags: W
HStem: 0 21G<48 136 252 346 463 557> 350 100<215 228 426 434> 417 20G<48 141>
VStem: 41 100<99 305> 252 100<99 305> 252 160<47 53> 463 100<99 321> 463 160<47 53>
Fore
-19 387 m 0
 -19 421 8 437 48 437 c 2
 141 437 l 1
 141 413 l 1
 176 441 196 450 226 450 c 0
 265 450 298 434 328 401 c 1
 359 435 391 450 432 450 c 0
 507 450 563 394 563 319 c 2
 563 100 l 1
 601 100 623 82 623 50 c 0
 623 17 601 0 557 0 c 2
 463 0 l 1
 463 311 l 2
 463 340 454 350 428 350 c 128
 402 350 386 341 352 305 c 1
 352 100 l 1
 390 100 412 81 412 50 c 0
 412 33 403 17 388 7 c 0
 380 2 367 0 346 0 c 2
 252 0 l 1
 252 311 l 2
 252 339 242 350 217 350 c 0
 190 350 171 339 141 305 c 1
 141 100 l 1
 180 100 202 82 202 50 c 0
 202 33 193 17 178 7 c 0
 170 2 157 0 136 0 c 2
 48 0 l 2
 24 0 11 3 2 10 c 0
 -11 19 -19 35 -19 50 c 0
 -19 82 3 100 41 100 c 1
 41 337 l 1
 3 338 -19 356 -19 387 c 0
EndSplineSet
EndChar
StartChar: n
Encoding: 78 110 89
Width: 600
Flags: W
HStem: 0 100<70 95 195 216 406 410 510 525.03> 350 100<310 334> 417 20G<101 195>
VStem: 95 100<99 282> 410 100<99 289>
Fore
34 387 m 0
 34 423 62 437 101 437 c 2
 195 437 l 1
 195 389 l 1
 243 435 277 450 332 450 c 0
 432 450 510 392 510 282 c 2
 510 100 l 1
 549 100 571 82 571 50 c 0
 571 33 562 16 547 7 c 0
 539 2 526 0 505 0 c 2
 416 0 l 2
 371 0 349 17 349 50 c 0
 349 82 371 100 410 100 c 1
 410 278 l 2
 410 327 382 350 320 350 c 0
 274 350 242 333 195 282 c 1
 195 100 l 1
 201 100 l 2
 228 100 236 98 246 91 c 0
 259 81 267 66 267 50 c 0
 267 33 258 17 243 7 c 0
 235 2 222 0 201 0 c 2
 89 0 l 2
 65 0 53 3 43 10 c 0
 31 19 23 35 23 50 c 0
 23 67 32 84 47 93 c 0
 56 98 64 100 89 100 c 2
 95 100 l 1
 95 337 l 1
 56 338 34 355 34 387 c 0
EndSplineSet
EndChar
StartChar: o
Encoding: 79 111 90
Width: 600
Flags: W
HStem: -16 100<281 315> 350 100<281 315>
VStem: 42 100<207 225> 458 100<207 225>
Fore
303 450 m 0
 444 450 558 346 558 217 c 0
 558 87 444 -16 300 -16 c 128
 156 -16 42 87 42 217 c 0
 42 349 155 450 303 450 c 0
302 350 m 0
 211 350 142 293 142 217 c 0
 142 142 211 84 300 84 c 128
 389 84 458 142 458 217 c 0
 458 291 389 350 302 350 c 0
EndSplineSet
EndChar
StartChar: p
Encoding: 80 112 91
Width: 600
Flags: W
HStem: -205 100<39 73 174 249> 10 100<311 331> 337 100<39 73> 350 100<311 345>
VStem: 74 100<-106 66 222 244> 471 100<222 244>
Fore
174 66 m 1
 174 -105 l 1
 232 -105 l 2
 258 -105 268 -107 278 -114 c 0
 291 -124 298 -139 298 -155 c 0
 298 -172 289 -188 274 -198 c 0
 266 -203 254 -205 232 -205 c 2
 58 -205 l 2
 33 -205 22 -203 12 -195 c 0
 0 -186 -8 -171 -8 -155 c 0
 -8 -138 1 -121 16 -112 c 0
 25 -106 34 -105 58 -105 c 2
 74 -105 l 1
 74 337 l 1
 58 337 l 2
 32 337 22 339 12 346 c 0
 0 356 -8 371 -8 387 c 0
 -8 404 1 421 16 430 c 0
 25 435 34 437 58 437 c 2
 174 437 l 1
 174 392 l 1
 223 434 265 450 327 450 c 0
 467 450 571 353 571 224 c 0
 571 101 468 10 329 10 c 0
 270 10 226 26 174 66 c 1
323 350 m 0
 281 350 248 341 222 321 c 0
 193 300 174 263 174 231 c 0
 174 160 235 110 323 110 c 0
 409 110 471 160 471 230 c 0
 471 263 452 300 423 321 c 0
 397 341 364 350 323 350 c 0
EndSplineSet
EndChar
StartChar: q
Encoding: 81 113 92
Width: 600
Flags: W
HStem: -205 100<352 431 531 562> 10 100<272 290> 350 100<272 290> 417 20G<431 547>
VStem: 33 100<222 244> 431 100<-106 66 222 244>
Fore
431 -105 m 1
 431 66 l 1
 379 26 334 10 275 10 c 0
 136 10 33 101 33 224 c 0
 33 354 137 450 277 450 c 0
 340 450 382 434 431 392 c 1
 431 437 l 1
 547 437 l 2
 574 437 583 435 593 428 c 0
 605 418 613 403 613 387 c 0
 613 370 604 353 589 344 c 0
 581 339 570 337 547 337 c 2
 531 337 l 1
 531 -105 l 1
 547 -105 l 2
 574 -105 583 -107 593 -114 c 0
 605 -124 613 -139 613 -155 c 0
 613 -172 604 -188 589 -198 c 0
 581 -203 569 -205 547 -205 c 2
 373 -205 l 2
 348 -205 337 -203 327 -195 c 0
 314 -185 307 -171 307 -155 c 0
 307 -138 316 -121 331 -112 c 0
 339 -107 349 -105 373 -105 c 2
 431 -105 l 1
281 350 m 0
 240 350 207 340 181 321 c 0
 152 299 133 263 133 230 c 128
 133 197 152 161 181 139 c 0
 206 120 240 110 282 110 c 128
 324 110 358 120 383 139 c 0
 412 161 431 197 431 229 c 0
 431 300 370 350 281 350 c 0
EndSplineSet
EndChar
StartChar: r
Encoding: 82 114 93
Width: 600
Flags: W
HStem: 0 100<101 178 278 423> 337 100<133 178> 349 100<437 447>
VStem: 178 100<99 247>
Fore
278 437 m 1
 278 372 l 1
 358 432 396 449 445 449 c 0
 480 449 512 437 543 411 c 0
 564 394 571 382 571 364 c 0
 571 336 548 313 521 313 c 0
 507 313 497 318 482 331 c 128
 467 344 457 349 443 349 c 0
 411 349 373 325 278 247 c 1
 278 100 l 1
 417 100 l 2
 445 100 453 98 463 91 c 0
 476 81 484 66 484 50 c 0
 484 33 475 16 460 7 c 0
 453 3 438 0 417 0 c 2
 120 0 l 2
 97 0 83 3 74 10 c 0
 62 19 54 35 54 50 c 0
 54 67 63 84 78 93 c 0
 87 99 94 100 120 100 c 2
 178 100 l 1
 178 337 l 1
 143 337 l 2
 118 337 107 339 98 347 c 1
 85 356 77 371 77 387 c 0
 77 418 99 437 143 437 c 2
 278 437 l 1
EndSplineSet
EndChar
StartChar: s
Encoding: 83 115 94
Width: 600
Flags: W
HStem: -16 100<280 314> 1 166<120 126> 350 100<280 314>
VStem: 92 110<311 317> 417 110<121 129>
Fore
456 281 m 0
 430 281 417 298 404 321 c 1
 376 341 343 350 301 350 c 0
 250 350 202 333 202 315 c 0
 202 306 212 297 228 291 c 0
 242 286 248 285 312 276 c 0
 387 266 427 255 457 238 c 0
 501 214 527 171 527 125 c 0
 527 43 433 -16 304 -16 c 0
 247 -16 196 -6 156 13 c 1
 145 4 137 1 124 1 c 0
 106 1 90 9 80 25 c 0
 75 34 73 43 73 67 c 2
 73 100 l 2
 73 127 75 136 83 146 c 0
 93 160 107 167 124 167 c 0
 150 167 166 153 175 123 c 1
 204 97 246 84 300 84 c 0
 364 84 417 104 417 127 c 0
 417 140 404 154 383 162 c 0
 366 169 345 173 291 179 c 0
 151 194 92 234 92 313 c 0
 92 393 178 450 298 450 c 0
 347 450 388 442 427 424 c 1
 435 443 444 450 459 450 c 0
 491 450 506 430 506 384 c 2
 506 347 l 2
 506 321 504 311 497 301 c 0
 487 289 471 281 456 281 c 0
EndSplineSet
EndChar
StartChar: t
Encoding: 84 116 95
Width: 600
Flags: W
HStem: -16 100<284 318> 337 100<60 114 214 414>
VStem: 114 100<121 337 436 545>
Fore
214 337 m 1
 214 141 l 2
 214 120 216 111 222 104 c 0
 234 91 262 84 300 84 c 0
 353 84 401 95 446 118 c 0
 463 127 470 129 481 129 c 0
 508 129 529 106 529 78 c 0
 529 54 517 41 479 24 c 0
 430 1 351 -16 299 -16 c 0
 185 -16 114 37 114 122 c 2
 114 337 l 1
 79 337 l 2
 54 337 43 339 33 347 c 0
 21 356 13 372 13 387 c 0
 13 404 22 421 37 430 c 0
 46 436 53 437 79 437 c 2
 114 437 l 1
 114 525 l 2
 114 551 116 561 124 571 c 0
 133 583 148 591 164 591 c 0
 181 591 198 582 207 567 c 0
 213 558 214 551 214 525 c 2
 214 437 l 1
 395 437 l 2
 422 437 430 435 441 428 c 1
 453 418 461 403 461 387 c 0
 461 370 452 353 437 344 c 0
 429 339 417 337 395 337 c 2
 214 337 l 1
EndSplineSet
EndChar
StartChar: u
Encoding: 85 117 96
Width: 600
Flags: W
HStem: -13 100<268 285> 0 21G<410 505> 337 100<60 96 349.509 410>
VStem: 95 100<146 337> 410 100<154 337>
Fore
273 -13 m 0
 171 -13 95 46 95 156 c 2
 95 337 l 1
 68 337 l 2
 35 337 13 358 13 387 c 0
 13 404 22 421 37 430 c 0
 46 436 54 437 79 437 c 2
 195 437 l 1
 195 159 l 2
 195 110 223 87 283 87 c 0
 333 87 358 100 410 155 c 1
 410 337 l 1
 375 337 l 2
 350 337 345 336 330 347 c 24
 316 358 309 372 309 387 c 0
 309 404 318 421 333 430 c 0
 342 436 351 437 375 437 c 2
 510 437 l 1
 510 100 l 1
 549 100 571 82 571 50 c 0
 571 33 562 17 547 7 c 0
 539 2 526 0 505 0 c 2
 410 0 l 1
 410 48 l 1
 360 1 328 -13 273 -13 c 0
EndSplineSet
EndChar
StartChar: v
Encoding: 86 118 97
Width: 600
Flags: W
HStem: 0 21G<247 351> 337 100<47 80 193 209 383 409 517 545>
Fore
302 122 m 1
 409 337 l 1
 399 337 l 2
 374 337 363 339 354 346 c 0
 341 356 333 371 333 387 c 0
 333 404 342 421 357 430 c 0
 366 435 375 437 399 437 c 2
 534 437 l 2
 560 437 570 435 580 428 c 0
 592 418 600 403 600 387 c 0
 600 370 591 353 576 344 c 0
 568 339 557 337 534 337 c 2
 518 337 l 1
 351 0 l 1
 247 0 l 1
 80 337 l 1
 66 337 l 2
 41 337 30 339 21 346 c 0
 8 356 0 371 0 387 c 0
 0 404 9 421 24 430 c 0
 33 435 42 437 66 437 c 2
 198 437 l 2
 224 437 234 435 244 428 c 0
 256 418 264 403 264 387 c 0
 264 370 255 353 240 344 c 0
 232 339 221 337 198 337 c 2
 193 337 l 1
 302 122 l 1
EndSplineSet
EndChar
StartChar: w
Encoding: 87 119 98
Width: 600
Flags: W
HStem: 0 21G<139 233 372 464> 338 99<160.032 181.401 431 448>
VStem: 0 224<383 389> 375 225<383 389>
Fore
375 387 m 0
 375 417 396 437 441 437 c 2
 534 437 l 2
 560 437 570 435 579 428 c 0
 592 418 600 403 600 387 c 0
 600 358 581 340 548 338 c 1
 464 0 l 1
 372 0 l 1
 301 181 l 1
 233 0 l 1
 139 0 l 1
 54 338 l 1
 20 340 0 358 0 387 c 0
 0 423 28 437 66 437 c 2
 158 437 l 2
 184 437 194 435 204 428 c 0
 216 418 224 403 224 387 c 0
 224 370 215 354 201 345 c 0
 193 340 185 338 160 338 c 1
 199 185 l 1
 259 343 l 1
 347 343 l 1
 408 185 l 1
 448 338 l 1
 441 338 l 2
 415 338 405 340 396 347 c 0
 383 356 375 372 375 387 c 0
EndSplineSet
EndChar
StartChar: x
Encoding: 88 120 99
Width: 600
Flags: W
HStem: 0 21G<87 198 401 513> 417 20G<106 198 400 491>
Fore
334 386 m 0
 334 423 362 437 400 437 c 2
 491 437 l 2
 517 437 527 435 537 428 c 0
 550 418 558 403 558 387 c 0
 558 358 539 340 505 337 c 1
 373 227 l 1
 525 100 l 1
 559 98 579 80 579 50 c 0
 579 33 569 16 555 7 c 0
 547 2 534 0 513 0 c 2
 401 0 l 2
 376 0 364 3 354 10 c 0
 341 20 334 34 334 51 c 0
 334 74 349 93 374 100 c 1
 299 161 l 1
 226 100 l 1
 254 88 264 75 264 51 c 0
 264 17 242 0 198 0 c 2
 87 0 l 2
 43 0 21 17 21 50 c 0
 21 80 41 98 75 100 c 1
 220 228 l 1
 92 337 l 1
 59 340 40 358 40 387 c 0
 40 423 68 437 106 437 c 2
 198 437 l 2
 224 437 234 435 244 427 c 0
 256 418 264 403 264 388 c 0
 264 370 255 353 238 342 c 1
 299 293 l 1
 360 343 l 1
 341 356 334 369 334 386 c 0
EndSplineSet
EndChar
StartChar: y
Encoding: 89 121 100
Width: 600
Flags: W
HStem: -205 100<68 188 297 310> 417 20G<87 177 421 513>
VStem: 21 222<376.035 390>
Fore
354 387 m 0
 354 423 382 437 421 437 c 2
 513 437 l 2
 539 437 549 435 558 428 c 0
 572 418 579 403 579 387 c 0
 579 358 560 340 527 337 c 1
 297 -105 l 1
 302 -105 l 2
 328 -105 338 -107 348 -114 c 0
 360 -124 368 -139 368 -155 c 0
 368 -172 359 -188 344 -198 c 0
 336 -203 324 -205 302 -205 c 2
 87 -205 l 2
 62 -205 57 -206 42 -195 c 24
 28 -184 21 -171 21 -155 c 0
 21 -138 30 -121 45 -112 c 0
 54 -107 63 -105 87 -105 c 2
 187 -105 l 1
 242 3 l 1
 70 337 l 1
 39 341 21 359 21 387 c 0
 21 422 50 437 87 437 c 2
 177 437 l 2
 203 437 213 435 223 428 c 0
 235 418 243 403 243 387 c 0
 243 356 222 338 184 337 c 1
 298 114 l 1
 418 337 l 1
 377 337 354 355 354 387 c 0
EndSplineSet
EndChar
StartChar: z
Encoding: 90 122 101
Width: 600
Flags: W
HStem: 0 100<244 419> 0 154<457.65 472> 337 100<196 346>
VStem: 97 100<319 337>
Fore
244 100 m 1
 419 100 l 1
 421 135 439 154 469 154 c 0
 486 154 503 145 512 130 c 0
 518 121 519 114 519 88 c 2
 519 0 l 1
 85 0 l 1
 85 83 l 1
 346 337 l 1
 197 337 l 1
 197 328 l 2
 197 301 195 293 188 283 c 0
 178 270 163 262 147 262 c 0
 130 262 113 271 104 286 c 0
 99 295 97 305 97 328 c 2
 97 437 l 1
 506 437 l 1
 506 356 l 1
 244 100 l 1
EndSplineSet
EndChar
StartChar: braceleft
Encoding: 91 123 102
Width: 600
Flags: W
VStem: 248 100<-26 153 312.913 494>
Fore
348 485 m 2
 348 328 l 2
 348 285 342 268 319 240 c 1
 343 211 348 194 348 142 c 2
 348 -15 l 2
 348 -42 356 -50 384 -52 c 0
 413 -54 433 -75 433 -103 c 0
 433 -133 411 -153 378 -153 c 0
 308 -153 248 -93 248 -22 c 2
 248 151 l 2
 248 179 242 186 216 189 c 0
 184 193 167 210 167 240 c 0
 167 269 184 287 216 290 c 0
 242 293 248 301 248 328 c 2
 248 492 l 2
 248 563 308 623 377 623 c 0
 411 623 433 603 433 573 c 0
 433 545 413 524 384 522 c 0
 356 521 348 512 348 485 c 2
EndSplineSet
EndChar
StartChar: bar
Encoding: 92 124 103
Width: 600
Flags: W
VStem: 250 100<-106 568>
Fore
350 556 m 6
 350 -87 l 6
 350 -112 348 -122 341 -132 c 4
 331 -145 316 -153 300 -153 c 4
 283 -153 267 -144 257 -129 c 4
 252 -121 250 -110 250 -87 c 6
 250 556 l 6
 250 582 252 592 259 602 c 4
 269 614 284 622 300 622 c 4
 317 622 334 613 343 598 c 4
 348 589 350 580 350 556 c 6
EndSplineSet
EndChar
StartChar: braceright
Encoding: 93 125 104
Width: 600
Flags: W
VStem: 252 100<-26 152 310 494>
Fore
252 -15 m 2
 252 142 l 2
 252 185 258 202 281 230 c 1
 257 259 252 276 252 328 c 2
 252 485 l 2
 252 512 244 520 216 522 c 0
 187 524 167 545 167 573 c 0
 167 603 189 623 222 623 c 0
 292 623 352 563 352 492 c 2
 352 319 l 2
 352 291 358 284 384 281 c 0
 416 277 433 260 433 230 c 0
 433 201 416 183 384 180 c 0
 358 177 352 169 352 142 c 2
 352 -22 l 2
 352 -93 292 -153 223 -153 c 0
 189 -153 167 -133 167 -103 c 0
 167 -75 187 -54 216 -52 c 0
 244 -51 252 -42 252 -15 c 2
EndSplineSet
EndChar
StartChar: asciitilde
Encoding: 94 126 105
Width: 600
Flags: W
Fore
488 364 m 0
 515 364 538 341 538 314 c 0
 538 294 530 280 497 241 c 0
 460 197 430 179 391 179 c 128
 352 179 314 200 254 254 c 0
 233 272 220 281 212 281 c 0
 202 281 192 272 165 239 c 0
 139 207 131 201 113 201 c 0
 86 201 62 225 62 252 c 0
 62 271 72 290 101 322 c 0
 140 367 172 385 213 385 c 0
 255 385 282 370 350 307 c 1
 368 292 380 284 389 284 c 0
 400 284 413 297 438 330 c 0
 458 357 468 364 488 364 c 0
EndSplineSet
EndChar
StartChar: exclamdown
Encoding: 96 161 107
Width: 600
Flags: W
HStem: 294 132<283 317>
Fore
222 -114 m 1
 251 183 l 2
 254 214 272 232 300 232 c 128
 328 232 347 213 350 183 c 2
 379 -114 l 1
 380 -127 381 -141 381 -147 c 0
 381 -193 347 -227 300 -227 c 0
 254 -227 220 -193 220 -147 c 0
 220 -140 221 -126 222 -114 c 1
292 426 m 2
 309 426 l 2
 346 426 375 397 375 360 c 128
 375 323 346 294 309 294 c 2
 292 294 l 2
 255 294 225 323 225 360 c 128
 225 397 255 426 292 426 c 2
EndSplineSet
EndChar
StartChar: cent
Encoding: 97 162 108
Width: 600
Flags: W
HStem: -44 241<299 310> 333 174<442 452>
VStem: 83 100<295.293 325> 251 100<3 99 526 613>
Fore
351 99 m 1
 351 22 l 2
 351 -5 349 -13 342 -23 c 0
 332 -36 317 -44 301 -44 c 0
 284 -44 268 -35 258 -20 c 0
 253 -12 251 -1 251 22 c 2
 251 103 l 1
 148 128 83 209 83 312 c 0
 83 409 152 493 251 517 c 1
 251 594 l 2
 251 621 253 630 261 640 c 0
 271 654 285 661 301 661 c 0
 318 661 335 652 344 637 c 0
 350 628 351 620 351 594 c 2
 351 527 l 1
 382 522 404 515 424 503 c 1
 433 506 438 507 444 507 c 0
 462 507 478 498 488 483 c 0
 494 474 495 467 495 441 c 2
 495 399 l 2
 495 372 493 364 486 354 c 0
 476 341 461 333 445 333 c 0
 433 333 418 339 410 346 c 1
 403 354 403 354 395 384 c 0
 388 414 365 427 320 427 c 0
 241 427 183 377 183 310 c 0
 183 247 238 197 310 197 c 0
 347 197 381 208 415 233 c 0
 427 241 437 245 449 245 c 0
 475 245 499 221 499 194 c 0
 499 152 439 114 351 99 c 1
EndSplineSet
EndChar
StartChar: sterling
Encoding: 98 163 109
Width: 600
Flags: W
HStem: 0 100<247 450> 243 100<76 143 269 322> 498 100<288 314>
VStem: 126 100<416.987 446> 169 101<207 243>
Fore
314 243 m 2
 269 243 l 1
 270 231 270 221 270 216 c 0
 270 172 264 142 247 100 c 1
 450 100 l 1
 454 130 471 146 499 146 c 0
 530 146 550 124 550 90 c 0
 550 32 512 0 442 0 c 2
 121 0 l 2
 98 0 85 3 76 10 c 0
 63 19 55 35 55 51 c 0
 55 78 70 93 105 100 c 0
 130 105 141 113 150 132 c 0
 163 157 169 188 169 224 c 0
 169 227 169 235 168 243 c 1
 99 243 l 2
 74 243 63 245 54 252 c 0
 41 262 33 277 33 293 c 0
 33 310 42 327 57 336 c 0
 66 342 74 343 99 343 c 2
 143 343 l 1
 131 379 126 403 126 432 c 0
 126 529 198 598 299 598 c 0
 377 598 457 546 457 495 c 0
 457 467 435 444 408 444 c 0
 389 444 384 447 361 472 c 0
 345 490 325 498 298 498 c 0
 257 498 226 472 226 437 c 0
 226 416 226 414 246 343 c 1
 314 343 l 2
 341 343 350 341 360 334 c 0
 373 324 381 309 381 293 c 0
 381 276 372 260 357 250 c 0
 348 245 338 243 314 243 c 2
EndSplineSet
EndChar
StartChar: currency
Encoding: 99 164 110
Width: 600
Flags: W
HStem: 97 100<296 314> 388 100<296 314>
VStem: 106 100<287 305> 394 100<287 305>
Fore
131 388 m 1
 111 408 73 438 73 469 c 0
 73 496 96 519 124 519 c 0
 141 519 148 515 171 493 c 2
 203 462 l 1
 240 482 264 488 300 488 c 128
 336 488 360 481 397 461 c 1
 428 491 l 2
 450 513 458 517 475 517 c 0
 503 517 526 494 526 466 c 0
 526 449 522 442 500 420 c 2
 469 388 l 1
 488 351 494 327 494 292 c 0
 494 257 488 233 468 196 c 1
 501 162 l 2
 522 141 527 132 527 116 c 0
 527 88 503 64 475 64 c 0
 458 64 451 68 429 90 c 2
 395 122 l 1
 359 103 335 97 300 97 c 0
 264 97 241 103 204 123 c 1
 171 91 l 2
 148 68 141 64 124 64 c 0
 96 64 73 87 73 115 c 0
 73 132 77 139 99 162 c 2
 131 196 l 1
 112 233 106 257 106 292 c 0
 106 328 112 352 131 388 c 1
300 388 m 0
 248 388 206 346 206 293 c 0
 206 241 249 197 300 197 c 128
 351 197 394 241 394 292 c 0
 394 346 353 388 300 388 c 0
EndSplineSet
EndChar
StartChar: yen
Encoding: 100 165 111
Width: 600
Flags: W
HStem: 0 100<196 250 350 406> 135 56<148 250 350 454> 225 56<148 225 375 454> 480 100<82 88 514.007 527.812>
Fore
301 348 m 1
 396 481 l 1
 370 488 355 506 355 530 c 0
 355 547 364 564 379 573 c 0
 388 579 396 580 422 580 c 2
 513 580 l 2
 541 580 548 578 558 571 c 0
 571 561 579 546 579 530 c 0
 579 513 570 497 555 487 c 0
 548 483 523 480 514 480 c 1
 375 281 l 1
 447 281 l 2
 467 281 478 271 478 253 c 128
 478 235 467 225 447 225 c 2
 350 225 l 1
 350 191 l 1
 447 191 l 2
 467 191 478 181 478 163 c 128
 478 145 467 135 447 135 c 2
 350 135 l 1
 350 100 l 1
 397 100 l 2
 424 100 432 98 442 91 c 0
 456 81 463 66 463 50 c 0
 463 17 441 0 397 0 c 2
 203 0 l 2
 180 0 166 3 158 10 c 0
 145 19 137 35 137 50 c 0
 137 67 146 84 161 93 c 0
 170 99 178 100 204 100 c 2
 250 100 l 1
 250 135 l 1
 153 135 l 2
 133 135 122 145 122 163 c 128
 122 181 133 191 153 191 c 2
 250 191 l 1
 250 225 l 1
 153 225 l 2
 133 225 122 235 122 253 c 128
 122 271 132 281 153 281 c 2
 225 281 l 1
 87 481 l 1
 85 480 83 480 82 480 c 0
 48 477 21 499 21 530 c 0
 21 547 30 564 45 573 c 0
 54 579 61 580 87 580 c 2
 179 580 l 2
 208 580 215 578 226 570 c 0
 239 560 246 546 246 530 c 0
 246 506 230 486 207 482 c 1
 301 348 l 1
EndSplineSet
EndChar
StartChar: brokenbar
Encoding: 101 166 112
Width: 600
Flags: W
VStem: 250 100<-106 136 342 577>
Fore
350 556 m 2
 350 353 l 2
 350 326 348 318 341 308 c 0
 331 295 316 287 300 287 c 0
 283 287 266 296 257 311 c 0
 252 319 250 330 250 353 c 2
 250 556 l 2
 250 581 252 592 259 601 c 0
 269 614 284 622 300 622 c 0
 327 622 345 605 349 577 c 0
 350 566 350 564 350 556 c 2
350 116 m 2
 350 -87 l 2
 350 -112 348 -122 341 -132 c 0
 331 -145 316 -153 300 -153 c 0
 283 -153 267 -144 257 -129 c 0
 252 -121 250 -110 250 -87 c 2
 250 116 l 2
 250 142 252 152 259 162 c 0
 269 174 284 182 300 182 c 0
 317 182 334 173 343 158 c 0
 348 149 350 140 350 116 c 2
EndSplineSet
EndChar
StartChar: section
Encoding: 102 167 113
Width: 600
Flags: W
HStem: -170 88<168 327> -170 182<115 134> 493 90<273 431>
VStem: 36 96<283 295> 132 85<432 443> 381 86<-31 -25> 431 88<437 493> 468 96<117 129>
Fore
431 493 m 1
 287 493 l 2
 248 493 217 469 217 440 c 0
 217 415 252 383 324 342 c 2
 416 291 l 2
 533 226 564 191 564 129 c 0
 564 68 527 25 462 10 c 1
 466 -7 467 -16 467 -28 c 0
 467 -63 454 -94 429 -123 c 0
 399 -156 365 -170 312 -170 c 2
 81 -170 l 1
 81 -43 l 2
 81 -6 95 12 125 12 c 0
 141 12 155 4 163 -9 c 0
 168 -16 169 -22 169 -43 c 2
 169 -82 l 1
 314 -82 l 2
 350 -82 381 -57 381 -29 c 0
 381 -3 347 29 276 69 c 2
 170 130 l 2
 71 187 36 226 36 283 c 0
 36 342 72 384 137 402 c 1
 133 414 132 420 132 432 c 0
 132 469 147 507 174 535 c 0
 205 569 241 583 294 583 c 2
 519 583 l 1
 519 456 l 2
 519 433 518 427 511 419 c 0
 503 408 489 401 475 401 c 0
 460 401 445 409 437 421 c 0
 433 428 431 437 431 456 c 2
 431 493 l 1
371 214 m 2
 272 271 l 2
 238 290 228 297 192 326 c 1
 153 326 132 314 132 292 c 0
 132 266 159 239 218 205 c 2
 321 147 l 1
 374 114 390 103 407 88 c 1
 424 88 l 1
 449 89 468 102 468 121 c 0
 468 144 433 178 371 214 c 2
EndSplineSet
EndChar
StartChar: dieresis
Encoding: 103 168 114
Width: 600
Flags: W
VStem: 136 120<591 599> 344 120<591 599>
Fore
196 654 m 0
 230 654 256 627 256 593 c 0
 256 561 229 534 196 534 c 128
 163 534 136 561 136 594 c 128
 136 627 163 654 196 654 c 0
404 654 m 0
 438 654 464 627 464 593 c 0
 464 561 437 534 404 534 c 128
 371 534 344 561 344 594 c 128
 344 627 371 654 404 654 c 0
EndSplineSet
EndChar
StartChar: copyright
Encoding: 104 169 115
Width: 600
Flags: W
HStem: -15 73<280 314> 118 71<289 314> 395 71<280 305> 525 73<280 314>
VStem: -7 73<270 308> 135 71<256 308> 533 73<269 308>
Fore
135 269 m 2
 135 305 l 2
 135 397 202 466 291 466 c 0
 319 466 342 461 370 447 c 1
 375 459 384 466 398 466 c 0
 418 466 431 451 431 428 c 1
 431 368 l 1
 431 340 418 324 396 324 c 0
 375 324 365 335 360 360 c 0
 357 379 327 395 293 395 c 0
 242 395 206 357 206 304 c 2
 206 270 l 2
 206 221 244 189 303 189 c 0
 342 189 355 194 378 218 c 0
 385 225 394 229 403 229 c 0
 422 229 439 212 439 193 c 0
 439 154 373 118 302 118 c 0
 206 118 135 182 135 269 c 2
299 598 m 0
 469 598 606 461 606 292 c 0
 606 121 469 -15 296 -15 c 0
 131 -15 -7 124 -7 292 c 0
 -7 461 130 598 299 598 c 0
300 525 m 0
 170 525 66 421 66 292 c 0
 66 164 171 58 297 58 c 0
 429 58 533 161 533 292 c 0
 533 421 428 525 300 525 c 0
EndSplineSet
EndChar
StartChar: ordfeminine
Encoding: 105 170 116
Width: 600
Flags: W
HStem: 182 77<165 442> 273 79<244 263> 417 70<277 311> 517 78<277 311>
VStem: 118 91<368 376>
Fore
354 284 m 1
 354 295 l 1
 314 279 285 273 246 273 c 0
 175 273 118 316 118 369 c 0
 118 390 129 415 146 434 c 0
 178 470 225 487 292 487 c 0
 312 487 325 486 354 482 c 1
 354 490 l 2
 354 509 337 517 296 517 c 0
 273 517 249 514 217 506 c 0
 206 503 195 501 189 501 c 0
 168 501 151 519 151 541 c 0
 151 557 160 569 175 575 c 0
 209 587 257 595 292 595 c 0
 381 595 432 557 432 490 c 2
 432 362 l 1
 438 362 l 2
 473 362 489 350 489 323 c 0
 489 298 472 284 439 284 c 2
 354 284 l 1
354 383 m 1
 354 410 l 1
 322 416 307 417 288 417 c 0
 246 417 209 397 209 374 c 0
 209 361 227 352 252 352 c 0
 284 352 328 365 354 383 c 1
432 182 m 2
 176 182 l 2
 132 182 124 189 124 227 c 0
 124 252 135 259 176 259 c 2
 431 259 l 2
 467 259 483 247 483 221 c 128
 483 195 466 182 432 182 c 2
EndSplineSet
EndChar
StartChar: guillemotleft
Encoding: 106 171 117
Width: 600
Flags: W
Fore
175 218 m 1
 326 77 l 2
 337 67 342 59 342 50 c 0
 342 34 327 20 309 20 c 0
 300 20 295 22 281 33 c 2
 33 218 l 1
 281 402 l 2
 295 413 300 415 310 415 c 0
 327 415 342 401 342 385 c 0
 342 376 338 368 326 358 c 1
 175 218 l 1
404 218 m 1
 555 77 l 2
 566 67 571 59 571 50 c 0
 571 34 556 20 538 20 c 0
 529 20 524 22 510 33 c 2
 262 218 l 1
 510 402 l 2
 524 413 529 415 539 415 c 0
 556 415 571 401 571 385 c 0
 571 376 567 368 555 358 c 1
 404 218 l 1
EndSplineSet
EndChar
StartChar: logicalnot
Encoding: 107 172 118
Width: 600
Flags: W
HStem: 345 100<89 365>
VStem: 365 100<162 345>
Fore
465 445 m 1
 465 181 l 2
 465 154 463 146 456 136 c 0
 446 123 431 115 415 115 c 0
 398 115 381 124 372 139 c 0
 367 148 365 158 365 181 c 2
 365 345 l 1
 108 345 l 2
 84 345 72 347 63 355 c 1
 50 364 42 380 42 395 c 0
 42 412 51 429 66 438 c 0
 75 444 82 445 108 445 c 2
 465 445 l 1
EndSplineSet
EndChar
StartChar: registered
Encoding: 109 174 120
Width: 600
Flags: W
HStem: -15 73<280 313> 525 73<280 313>
VStem: -7 73<272 306> 197 72<196 246 316 386> 348 71<352 358> 533 73<272 306>
Fore
269 246 m 1
 269 197 l 1
 295 197 311 184 311 162 c 0
 311 139 295 126 267 126 c 2
 199 126 l 2
 170 126 154 139 154 162 c 0
 154 184 169 197 197 197 c 1
 197 387 l 1
 169 388 154 401 154 423 c 0
 154 446 170 458 199 458 c 2
 292 458 l 2
 367 458 419 415 419 354 c 0
 419 317 395 283 358 266 c 1
 382 244 389 235 411 197 c 1
 434 195 447 182 447 162 c 0
 447 139 431 126 403 126 c 2
 363 126 l 1
 351 175 312 233 284 246 c 1
 269 246 l 1
269 316 m 1
 294 316 l 2
 325 316 348 333 348 355 c 0
 348 374 327 387 294 387 c 2
 269 387 l 1
 269 316 l 1
300 598 m 0
 468 598 606 461 606 292 c 0
 606 121 469 -15 296 -15 c 0
 131 -15 -7 124 -7 292 c 128
 -7 460 131 598 300 598 c 0
300 525 m 0
 171 525 66 420 66 292 c 128
 66 164 171 58 297 58 c 0
 429 58 533 161 533 292 c 0
 533 420 428 525 300 525 c 0
EndSplineSet
EndChar
StartChar: macron
Encoding: 110 175 121
Width: 600
Flags: W
HStem: 546 80<172 430>
Fore
178 626 m 2
 422 626 l 2
 445 626 457 623 464 615 c 0
 470 608 475 594 475 586 c 0
 475 561 455 546 422 546 c 2
 178 546 l 2
 153 546 145 548 136 558 c 0
 130 566 125 578 125 586 c 0
 125 611 144 626 178 626 c 2
EndSplineSet
EndChar
StartChar: degree
Encoding: 111 176 122
Width: 600
Flags: W
HStem: 243 61<284 302> 535 61<284 302>
VStem: 125 61<404.899 436> 414 61<404.617 436>
Fore
300 596 m 0
 397 596 475 517 475 420 c 0
 475 321 397 243 298 243 c 0
 204 243 125 323 125 420 c 128
 125 517 203 596 300 596 c 0
300 535 m 0
 237 535 186 483 186 420 c 128
 186 357 238 304 299 304 c 0
 363 304 414 356 414 420 c 0
 414 483 363 535 300 535 c 0
EndSplineSet
EndChar
StartChar: plusminus
Encoding: 112 177 123
Width: 600
Flags: W
HStem: 0 100<89 507> 330 100<89 250 349 507>
VStem: 250 100<207.667 330 429 577>
Fore
350 330 m 1
 350 230 l 2
 350 203 348 195 341 185 c 0
 331 172 316 164 300 164 c 0
 283 164 266 174 257 188 c 0
 252 197 250 207 250 230 c 2
 250 330 l 1
 108 330 l 2
 84 330 72 332 63 340 c 1
 50 349 42 365 42 380 c 0
 42 397 52 414 66 423 c 0
 75 429 83 430 108 430 c 2
 250 430 l 1
 250 558 l 2
 250 584 252 594 260 603 c 1
 269 616 284 624 300 624 c 0
 317 624 334 615 343 600 c 0
 349 591 350 584 350 558 c 2
 350 430 l 1
 491 430 l 2
 519 430 527 428 537 421 c 0
 550 411 558 396 558 380 c 0
 558 363 549 346 534 337 c 0
 526 332 514 330 491 330 c 2
 350 330 l 1
108 100 m 2
 492 100 l 2
 519 100 527 98 537 91 c 0
 550 81 558 66 558 50 c 0
 558 33 549 16 534 7 c 0
 526 2 514 0 492 0 c 2
 108 0 l 2
 84 0 72 2 63 10 c 1
 50 19 42 35 42 50 c 0
 42 67 52 84 66 93 c 0
 75 99 83 100 108 100 c 2
EndSplineSet
EndChar
StartChar: twosuperior
Encoding: 113 178 124
Width: 600
Flags: W
HStem: 247 67<253 362> 247 99<388 397> 570 67<279.294 296>
VStem: 358 67<515 523>
Fore
253 314 m 1
 362 314 l 1
 365 335 376 346 395 346 c 0
 418 346 429 332 429 303 c 2
 429 247 l 1
 149 247 l 1
 149 315 l 1
 335 469 358 492 358 520 c 128
 358 548 330 570 293 570 c 0
 270 570 250 562 237 546 c 0
 232 540 231 539 225 520 c 0
 221 508 208 500 195 500 c 0
 176 500 161 515 161 533 c 0
 161 553 177 583 198 602 c 0
 223 624 258 637 294 637 c 0
 369 637 425 586 425 517 c 0
 425 466 402 439 253 314 c 1
EndSplineSet
EndChar
StartChar: threesuperior
Encoding: 114 179 125
Width: 600
Flags: W
HStem: 238 67<268 305> 570 67<282 313>
VStem: 362 67<525 535> 375 67<349 359>
Fore
286 484 m 2
 311 484 l 2
 338 484 362 505 362 528 c 0
 362 554 337 570 299 570 c 0
 266 570 251 564 232 543 c 0
 226 537 217 533 208 533 c 0
 190 533 175 549 175 567 c 0
 175 604 236 637 302 637 c 0
 375 637 429 591 429 529 c 0
 429 498 411 469 381 450 c 2
 381 450 379 449 378 448 c 1
 419 427 442 393 442 355 c 0
 442 322 424 287 396 266 c 0
 370 247 335 238 285 238 c 0
 207 238 157 259 157 292 c 0
 157 311 172 326 190 326 c 0
 198 326 202 325 212 318 c 0
 227 308 245 305 283 305 c 0
 343 305 375 323 375 357 c 0
 375 378 357 399 331 411 c 0
 319 416 314 417 286 418 c 0
 265 420 252 432 252 451 c 128
 252 470 267 484 286 484 c 2
EndSplineSet
EndChar
StartChar: acute
Encoding: 115 180 126
Width: 600
Flags: W
Fore
452 624 m 1
 319 512 l 2
 304 500 297 496 287 496 c 0
 267 496 250 513 250 532 c 0
 250 545 257 556 273 569 c 2
 406 680 l 2
 422 693 427 696 438 696 c 0
 459 696 475 680 475 659 c 0
 475 647 469 637 452 624 c 1
EndSplineSet
EndChar
StartChar: paragraph
Encoding: 117 182 127
Width: 600
Flags: W
HStem: -174 78<176 270 468 514> 505 78<348 392 468 514>
VStem: 49 113<353 409> 270 78<-97 185 266 499> 392 76<-97 505>
Fore
468 505 m 1
 468 -96 l 1
 504 -96 l 2
 541 -96 558 -109 558 -135 c 128
 558 -161 540 -174 504 -174 c 2
 411 -174 l 2
 390 -174 380 -165 371 -140 c 1
 360 -168 352 -174 328 -174 c 2
 191 -174 l 2
 156 -174 138 -161 138 -135 c 0
 138 -122 146 -109 157 -102 c 0
 165 -97 170 -96 191 -96 c 2
 270 -96 l 1
 270 185 l 1
 141 198 49 272 49 361 c 2
 49 407 l 2
 49 504 163 583 305 583 c 2
 502 583 l 2
 538 583 556 570 556 544 c 128
 556 518 539 505 502 505 c 2
 468 505 l 1
270 266 m 1
 270 500 l 1
 203 486 162 450 162 405 c 2
 162 361 l 2
 162 316 203 280 270 266 c 1
392 505 m 1
 348 505 l 1
 348 -96 l 1
 361 -102 366 -108 371 -124 c 1
 375 -109 381 -102 392 -96 c 1
 392 505 l 1
EndSplineSet
EndChar
StartChar: periodcentered
Encoding: 118 183 128
Width: 600
Flags: W
Fore
309 214 m 2
 291 214 l 2
 255 214 225 244 225 280 c 128
 225 316 255 346 291 346 c 2
 309 346 l 2
 346 346 375 317 375 280 c 128
 375 243 346 214 309 214 c 2
EndSplineSet
EndChar
StartChar: cedilla
Encoding: 119 184 129
Width: 600
Flags: W
HStem: -229 70<291 309> -20 20G<262 332>
VStem: 337 70<-142 -128>
Fore
300 -229 m 0
 262 -229 180 -209 180 -166 c 0
 180 -147 196 -131 215 -131 c 0
 223 -131 226 -132 244 -142 c 128
 262 -152 284 -159 301 -159 c 0
 324 -159 337 -150 337 -134 c 0
 337 -113 318 -100 284 -100 c 0
 279 -100 275 -100 262 -102 c 1
 262 0 l 1
 332 0 l 1
 332 -41 l 1
 383 -52 407 -81 407 -132 c 0
 407 -189 362 -229 300 -229 c 0
EndSplineSet
EndChar
StartChar: onesuperior
Encoding: 120 185 130
Width: 600
Flags: W
HStem: 247 67<197 267 333 393>
VStem: 267 67<313 551>
Fore
334 638 m 1
 334 314 l 1
 391 314 l 2
 420 314 434 303 434 281 c 128
 434 259 419 247 391 247 c 2
 210 247 l 2
 182 247 166 259 166 281 c 128
 166 303 180 314 210 314 c 2
 267 314 l 1
 267 551 l 1
 219 539 l 2
 208 536 205 535 199 535 c 0
 182 535 168 551 168 570 c 128
 168 589 177 597 202 604 c 2
 334 638 l 1
EndSplineSet
EndChar
StartChar: ordmasculine
Encoding: 121 186 131
Width: 600
Flags: W
HStem: 182 77<169 443> 273 78<297 315> 517 78<297 315>
VStem: 131 79<421 439> 392 79<421 439>
Fore
301 595 m 0
 396 595 471 521 471 428 c 0
 471 343 394 273 301 273 c 0
 207 273 131 343 131 430 c 0
 131 520 208 595 301 595 c 0
301 517 m 0
 252 517 210 477 210 430 c 0
 210 388 253 351 301 351 c 128
 349 351 392 388 392 430 c 0
 392 477 350 517 301 517 c 0
428 182 m 2
 174 182 l 2
 139 182 122 195 122 221 c 0
 122 233 129 246 140 253 c 0
 148 258 153 259 174 259 c 2
 428 259 l 2
 464 259 480 247 480 221 c 128
 480 195 463 182 428 182 c 2
EndSplineSet
EndChar
StartChar: guillemotright
Encoding: 122 187 132
Width: 600
Flags: W
Fore
430 217 m 1
 279 358 l 2
 268 368 263 376 263 385 c 0
 263 401 278 415 296 415 c 0
 305 415 310 413 324 402 c 2
 571 217 l 1
 324 33 l 2
 310 22 305 20 295 20 c 0
 278 20 263 34 263 50 c 0
 263 59 267 67 279 77 c 1
 430 217 l 1
200 217 m 1
 49 358 l 2
 38 368 33 376 33 385 c 0
 33 401 48 415 66 415 c 0
 75 415 80 413 94 402 c 2
 341 217 l 1
 94 33 l 2
 80 22 75 20 65 20 c 0
 48 20 33 34 33 50 c 0
 33 59 37 67 49 77 c 1
 200 217 l 1
EndSplineSet
EndChar
StartChar: onequarter
Encoding: 123 188 133
Width: 600
Flags: W
HStem: 0 67<493 525> 83 67<446 525> 247 67<-3 67 133 193>
VStem: 67 67<313 551> 463 166<31 37> 525 67<66 83 150 279>
Fore
134 638 m 1
 134 314 l 1
 191 314 l 2
 220 314 234 303 234 281 c 128
 234 259 219 247 191 247 c 2
 10 247 l 2
 -18 247 -34 259 -34 281 c 128
 -34 303 -20 314 10 314 c 2
 67 314 l 1
 67 551 l 1
 19 539 l 2
 8 536 5 535 -1 535 c 0
 -18 535 -32 551 -32 570 c 128
 -32 589 -23 597 2 604 c 2
 134 638 l 1
473 528 m 2
 213 77 l 2
 202 58 193 51 179 51 c 0
 161 51 145 67 145 84 c 0
 145 90 148 99 155 110 c 1
 415 561 l 2
 427 581 435 587 450 587 c 0
 467 587 484 571 484 555 c 0
 484 548 481 541 473 528 c 2
592 380 m 1
 592 150 l 1
 615 149 629 137 629 117 c 128
 629 97 616 84 592 83 c 1
 592 67 l 1
 615 66 629 54 629 34 c 0
 629 12 613 0 585 0 c 2
 506 0 l 2
 478 0 463 12 463 34 c 128
 463 56 477 67 506 67 c 2
 525 67 l 1
 525 83 l 1
 362 83 l 1
 362 138 l 1
 508 380 l 1
 592 380 l 1
525 150 m 1
 525 279 l 1
 446 150 l 1
 525 150 l 1
EndSplineSet
Ligature: 8 2 'frac' one slash four
Ligature: 8 2 'frac' one fraction four
EndChar
StartChar: onehalf
Encoding: 124 189 134
Width: 600
Flags: W
HStem: 0 67<453 562> 0 99<589 597> 247 67<-3 67 133 193> 323 67<482 497>
VStem: 67 67<313 551> 558 67<268 283>
Fore
134 638 m 1
 134 314 l 1
 191 314 l 2
 220 314 234 303 234 281 c 128
 234 259 219 247 191 247 c 2
 10 247 l 2
 -18 247 -34 259 -34 281 c 128
 -34 303 -20 314 10 314 c 2
 67 314 l 1
 67 551 l 1
 19 539 l 2
 8 536 5 535 -1 535 c 0
 -18 535 -32 551 -32 570 c 128
 -32 589 -23 597 2 604 c 2
 134 638 l 1
473 528 m 2
 213 77 l 2
 202 58 193 51 179 51 c 0
 161 51 145 67 145 84 c 0
 145 90 148 99 155 110 c 1
 415 561 l 2
 427 581 435 587 450 587 c 0
 467 587 484 571 484 555 c 0
 484 548 481 541 473 528 c 2
453 67 m 1
 562 67 l 1
 565 88 576 99 595 99 c 0
 618 99 629 85 629 56 c 2
 629 0 l 1
 349 0 l 1
 349 68 l 1
 535 222 558 245 558 273 c 128
 558 301 530 323 493 323 c 0
 470 323 450 315 437 299 c 0
 432 293 431 292 425 273 c 0
 421 261 408 253 395 253 c 0
 376 253 361 268 361 286 c 0
 361 306 377 336 398 355 c 0
 423 377 458 390 494 390 c 0
 569 390 625 339 625 270 c 0
 625 219 602 192 453 67 c 1
EndSplineSet
Ligature: 8 2 'frac' one slash two
Ligature: 8 2 'frac' one fraction two
EndChar
StartChar: threequarters
Encoding: 125 190 135
Width: 600
Flags: W
HStem: 0 67<500 526> 83 67<446 526> 238 67<68 105> 570 67<82 113>
VStem: 162 67<526 534> 175 67<351 359> 362 268<108 119> 463 167<31 37> 526 67<66 83 150 279>
Fore
86 484 m 2
 111 484 l 2
 138 484 162 505 162 528 c 0
 162 554 137 570 99 570 c 0
 66 570 51 564 32 543 c 0
 26 537 17 533 8 533 c 0
 -10 533 -25 549 -25 567 c 0
 -25 604 36 637 102 637 c 0
 175 637 229 591 229 529 c 0
 229 498 211 469 181 450 c 2
 181 450 179 449 178 448 c 1
 219 427 242 393 242 355 c 0
 242 322 224 287 196 266 c 0
 170 247 135 238 85 238 c 0
 7 238 -43 259 -43 292 c 0
 -43 311 -28 326 -10 326 c 0
 -2 326 2 325 12 318 c 0
 27 308 45 305 83 305 c 0
 143 305 175 323 175 357 c 0
 175 378 157 399 131 411 c 0
 119 416 114 417 86 418 c 0
 65 420 52 432 52 451 c 128
 52 470 67 484 86 484 c 2
474 528 m 2
 213 77 l 2
 202 58 193 51 179 51 c 0
 161 51 145 66 145 84 c 0
 145 91 147 97 155 110 c 2
 416 561 l 2
 427 581 435 587 450 587 c 0
 467 587 484 571 484 555 c 0
 484 549 480 539 474 528 c 2
593 380 m 1
 593 150 l 1
 616 149 630 137 630 117 c 128
 630 97 617 84 593 83 c 1
 593 67 l 1
 616 66 630 54 630 34 c 0
 630 12 614 0 586 0 c 2
 507 0 l 2
 479 0 463 12 463 34 c 128
 463 56 477 67 507 67 c 2
 526 67 l 1
 526 83 l 1
 362 83 l 1
 362 138 l 1
 509 380 l 1
 593 380 l 1
526 150 m 1
 526 279 l 1
 446 150 l 1
 526 150 l 1
EndSplineSet
Ligature: 8 2 'frac' three slash four
Ligature: 8 2 'frac' three fraction four
EndChar
StartChar: questiondown
Encoding: 126 191 136
Width: 600
Flags: W
HStem: -227 100<274 308> 254 132<277.244 308>
VStem: 83 100<-52 -34> 223 150<316 322>
Fore
496 -89 m 2
 496 -168 l 1
 399 -215 356 -227 292 -227 c 0
 168 -227 83 -150 83 -38 c 0
 83 43 126 90 247 143 c 1
 251 179 268 197 297 197 c 0
 314 197 331 188 340 173 c 0
 345 164 347 154 347 131 c 2
 347 75 l 1
 219 26 183 0 183 -43 c 0
 183 -93 227 -127 291 -127 c 0
 329 -127 363 -119 396 -103 c 1
 396 -89 l 2
 396 -62 398 -54 405 -44 c 0
 415 -31 431 -23 446 -23 c 0
 463 -23 480 -33 489 -47 c 0
 494 -55 496 -66 496 -89 c 2
289 386 m 2
 306 386 l 2
 343 386 373 356 373 320 c 0
 373 284 343 254 306 254 c 2
 289 254 l 2
 252 254 223 283 223 320 c 128
 223 357 252 386 289 386 c 2
EndSplineSet
EndChar
StartChar: Agrave
Encoding: 127 192 137
Width: 600
Flags: W
HStem: 0 100<27.7264 46 155 188 395.592 439 553.031 572> 158 100<218 375> 483 100<122 201>
Fore
416 158 m 1
 178 158 l 1
 155 100 l 1
 178 100 l 2
 205 100 213 98 223 91 c 0
 236 81 244 66 244 50 c 0
 244 33 235 16 220 7 c 0
 212 2 199 0 178 0 c 2
 45 0 l 2
 1 0 -21 17 -21 50 c 0
 -21 67 -12 84 3 93 c 0
 12 99 21 100 46 100 c 1
 201 483 l 1
 138 483 l 2
 112 483 102 485 92 492 c 0
 79 502 71 517 71 533 c 0
 71 550 80 566 95 576 c 0
 104 582 111 583 138 583 c 2
 354 583 l 1
 553 100 l 1
 581 100 590 98 600 90 c 0
 613 81 621 66 621 50 c 0
 621 33 612 16 597 7 c 0
 589 2 576 0 555 0 c 2
 416 0 l 2
 392 0 380 3 371 10 c 0
 358 19 350 34 350 50 c 0
 350 67 359 84 374 93 c 0
 383 99 390 100 416 100 c 2
 439 100 l 1
 416 158 l 1
375 258 m 1
 297 450 l 1
 218 258 l 1
 375 258 l 1
210 824 m 2
 343 712 l 2
 359 699 366 688 366 676 c 0
 366 657 349 640 329 640 c 0
 320 640 310 645 297 656 c 2
 164 767 l 2
 147 781 141 790 141 803 c 0
 141 823 157 839 178 839 c 0
 188 839 196 835 210 824 c 2
EndSplineSet
EndChar
StartChar: Aacute
Encoding: 128 193 138
Width: 600
Flags: W
HStem: 0 100<27.7264 46 155 188 395 439 553.031 572> 158 100<218 375> 483 100<122 201>
Fore
416 158 m 1
 178 158 l 1
 155 100 l 1
 178 100 l 2
 205 100 213 98 223 91 c 0
 236 81 244 66 244 50 c 0
 244 33 235 16 220 7 c 0
 212 2 199 0 178 0 c 2
 45 0 l 2
 1 0 -21 17 -21 50 c 0
 -21 67 -12 84 3 93 c 0
 12 99 21 100 46 100 c 1
 201 483 l 1
 138 483 l 2
 112 483 102 485 92 492 c 0
 79 502 71 517 71 533 c 0
 71 550 80 566 95 576 c 0
 104 582 111 583 138 583 c 2
 354 583 l 1
 553 100 l 1
 581 100 590 98 600 90 c 0
 613 81 621 66 621 50 c 0
 621 33 612 16 597 7 c 0
 589 2 576 0 555 0 c 2
 416 0 l 2
 392 0 380 3 371 10 c 0
 358 19 350 34 350 50 c 0
 350 67 359 84 374 93 c 0
 383 99 390 100 416 100 c 2
 439 100 l 1
 416 158 l 1
375 258 m 1
 297 450 l 1
 218 258 l 1
 375 258 l 1
410 767 m 1
 277 656 l 2
 264 645 254 640 245 640 c 0
 225 640 208 657 208 676 c 0
 208 688 215 700 231 712 c 1
 364 824 l 2
 378 835 386 839 396 839 c 0
 417 839 433 823 433 803 c 0
 433 790 427 780 410 767 c 1
EndSplineSet
EndChar
StartChar: Acircumflex
Encoding: 129 194 139
Width: 600
Flags: W
HStem: 0 100<27.7264 46 155 188 395 439 553.031 572> 158 100<218 375> 483 100<122 201>
Fore
416 158 m 1
 178 158 l 1
 155 100 l 1
 178 100 l 2
 205 100 213 98 223 91 c 0
 236 81 244 66 244 50 c 0
 244 33 235 16 220 7 c 0
 212 2 199 0 178 0 c 2
 45 0 l 2
 1 0 -21 17 -21 50 c 0
 -21 67 -12 84 3 93 c 0
 12 99 21 100 46 100 c 1
 201 483 l 1
 138 483 l 2
 112 483 102 485 92 492 c 0
 79 502 71 517 71 533 c 0
 71 550 80 566 95 576 c 0
 104 582 111 583 138 583 c 2
 354 583 l 1
 553 100 l 1
 581 100 590 98 600 90 c 0
 613 81 621 66 621 50 c 0
 621 33 612 16 597 7 c 0
 589 2 576 0 555 0 c 2
 416 0 l 2
 392 0 380 3 371 10 c 0
 358 19 350 34 350 50 c 0
 350 67 359 84 374 93 c 0
 383 99 390 100 416 100 c 2
 439 100 l 1
 416 158 l 1
375 258 m 1
 297 450 l 1
 218 258 l 1
 375 258 l 1
284 750 m 1
 171 653 l 2
 159 643 152 640 143 640 c 0
 124 640 108 657 108 675 c 0
 108 689 110 692 132 711 c 2
 284 839 l 1
 435 711 l 1
 445 702 459 693 459 675 c 128
 459 657 443 640 425 640 c 0
 415 640 407 644 396 653 c 2
 284 750 l 1
EndSplineSet
EndChar
StartChar: Atilde
Encoding: 130 195 140
Width: 600
Flags: W
HStem: 0 100<27.7264 46 155 188 395 438 553.031 572> 158 100<218 375> 483 100<122 201> 667 69<348 364> 730 69<200 220>
Fore
416 158 m 1
 178 158 l 1
 155 100 l 1
 178 100 l 2
 205 100 213 98 223 91 c 0
 236 81 244 66 244 50 c 0
 244 33 235 16 220 7 c 0
 212 2 199 0 178 0 c 2
 45 0 l 2
 1 0 -21 17 -21 50 c 0
 -21 67 -12 84 3 93 c 0
 12 99 21 100 46 100 c 1
 201 483 l 1
 138 483 l 2
 112 483 102 485 92 492 c 0
 79 502 71 517 71 533 c 0
 71 550 80 566 95 576 c 0
 104 582 111 583 138 583 c 2
 354 583 l 1
 553 100 l 1
 581 100 590 98 600 90 c 0
 613 81 621 66 621 50 c 0
 621 33 612 16 597 7 c 0
 589 2 576 0 555 0 c 2
 416 0 l 2
 392 0 380 3 371 10 c 0
 358 19 350 34 350 50 c 0
 350 67 359 84 374 93 c 0
 383 99 390 100 416 100 c 2
 439 100 l 1
 416 158 l 1
375 258 m 1
 297 450 l 1
 218 258 l 1
 375 258 l 1
436 799 m 0
 453 799 468 785 468 771 c 0
 468 756 460 741 439 715 c 0
 412 681 388 667 359 667 c 0
 337 667 304 681 260 709 c 0
 233 726 224 730 210 730 c 0
 192 730 184 723 155 685 c 0
 147 675 139 670 129 670 c 0
 112 670 98 683 98 700 c 0
 98 714 108 733 125 754 c 0
 150 783 179 799 208 799 c 0
 231 799 249 792 298 762 c 0
 331 742 345 736 356 736 c 0
 371 736 375 739 397 769 c 0
 411 789 424 799 436 799 c 0
EndSplineSet
EndChar
StartChar: Adieresis
Encoding: 131 196 141
Width: 600
Flags: W
HStem: 0 100<27.7264 46 155 188 395.592 439 553.031 572> 158 100<218 375> 483 100<117 201> 678 120<170 188 376 396>
VStem: 119 120<735 741> 327 120<735 741>
Fore
416 158 m 1
 178 158 l 1
 155 100 l 1
 178 100 l 2
 205 100 213 98 223 91 c 0
 236 81 244 66 244 50 c 0
 244 33 235 16 220 7 c 0
 212 2 199 0 178 0 c 2
 45 0 l 2
 1 0 -21 17 -21 50 c 0
 -21 67 -12 84 3 93 c 0
 12 99 21 100 46 100 c 1
 201 483 l 1
 138 483 l 2
 112 483 102 485 92 492 c 0
 79 502 71 517 71 533 c 0
 71 550 80 566 95 576 c 0
 104 582 111 583 138 583 c 2
 354 583 l 1
 553 100 l 1
 581 100 590 98 600 90 c 0
 613 81 621 66 621 50 c 0
 621 33 612 16 597 7 c 0
 589 2 576 0 555 0 c 2
 416 0 l 2
 392 0 380 3 371 10 c 0
 358 19 350 34 350 50 c 0
 350 67 359 84 374 93 c 0
 383 99 390 100 416 100 c 2
 439 100 l 1
 416 158 l 1
375 258 m 1
 297 450 l 1
 218 258 l 1
 375 258 l 1
179 798 m 0
 213 798 239 771 239 737 c 0
 239 705 212 678 179 678 c 128
 146 678 119 705 119 738 c 128
 119 771 146 798 179 798 c 0
387 798 m 0
 421 798 447 771 447 737 c 0
 447 705 420 678 387 678 c 128
 354 678 327 705 327 738 c 128
 327 771 354 798 387 798 c 0
EndSplineSet
EndChar
StartChar: Aring
Encoding: 132 197 142
Width: 600
Flags: W
HStem: 0 100<27.7264 46 155 188 404 439 553.031 572> 158 100<218 375> 483 100<122 201> 630 54<271.194 286> 818 53<271.194 286>
VStem: 160 53<747 753> 353 53<747 753>
Fore
416 158 m 1
 178 158 l 1
 155 100 l 1
 178 100 l 2
 205 100 213 98 223 91 c 0
 236 81 244 66 244 50 c 0
 244 33 235 16 220 7 c 0
 212 2 199 0 178 0 c 2
 45 0 l 2
 1 0 -21 17 -21 50 c 0
 -21 67 -12 84 3 93 c 0
 12 99 21 100 46 100 c 1
 201 483 l 1
 138 483 l 2
 112 483 102 485 92 492 c 0
 79 502 71 517 71 533 c 0
 71 550 80 566 95 576 c 0
 104 582 111 583 138 583 c 2
 354 583 l 1
 553 100 l 1
 581 100 590 98 600 90 c 0
 613 81 621 66 621 50 c 0
 621 33 612 16 597 7 c 0
 589 2 576 0 555 0 c 2
 416 0 l 2
 392 0 380 3 371 10 c 0
 358 19 350 34 350 50 c 0
 350 67 359 84 374 93 c 0
 383 99 390 100 416 100 c 2
 439 100 l 1
 416 158 l 1
375 258 m 1
 297 450 l 1
 218 258 l 1
 375 258 l 1
283 871 m 0
 351 871 406 816 406 749 c 0
 406 685 349 630 283 630 c 0
 216 630 160 685 160 751 c 0
 160 816 216 871 283 871 c 0
283 818 m 0
 245 818 213 787 213 751 c 128
 213 715 245 684 283 684 c 0
 320 684 353 715 353 750 c 0
 353 787 321 818 283 818 c 0
EndSplineSet
EndChar
StartChar: AE
Encoding: 133 198 143
Width: 600
Flags: W
HStem: 0 100<28.7264 53 257 267 367 514> 0 189<555 573> 187 210<427 445> 483 100<139 168 367 493>
VStem: -20 218<47 55> 267 100<100 158 342 471> 493 100<395 483>
Fore
53 100 m 1
 168 483 l 1
 154 483 l 2
 129 483 118 485 109 492 c 0
 96 502 88 518 88 533 c 0
 88 550 97 567 112 576 c 0
 121 582 128 583 154 583 c 2
 593 583 l 1
 593 418 l 2
 593 391 591 383 584 373 c 0
 574 360 559 352 543 352 c 0
 526 352 510 361 500 376 c 0
 495 384 493 395 493 418 c 2
 493 483 l 1
 367 483 l 1
 367 342 l 1
 386 342 l 1
 388 377 406 397 436 397 c 0
 453 397 470 388 479 373 c 0
 485 364 486 357 486 331 c 2
 486 253 l 2
 486 226 484 218 477 208 c 0
 467 195 452 187 436 187 c 0
 406 187 387 208 386 243 c 1
 367 243 l 1
 367 100 l 1
 514 100 l 1
 514 123 l 2
 514 148 516 158 523 168 c 0
 533 181 548 189 564 189 c 0
 581 189 598 180 607 165 c 0
 613 156 614 148 614 123 c 2
 614 0 l 1
 265 0 l 2
 231 0 209 20 209 52 c 0
 209 79 231 100 259 100 c 2
 267 100 l 1
 267 158 l 1
 174 158 l 1
 157 100 l 1
 183 96 198 79 198 53 c 0
 198 19 177 0 141 0 c 2
 46 0 l 2
 2 0 -20 17 -20 50 c 0
 -20 67 -11 84 4 93 c 0
 13 99 22 100 46 100 c 2
 53 100 l 1
267 259 m 1
 267 471 l 1
 203 259 l 1
 267 259 l 1
EndSplineSet
EndChar
StartChar: Ccedilla
Encoding: 134 199 144
Width: 600
Flags: W
HStem: -229 70<293 311> -100 186<291 329> 367 216<489 502> 497 100<288 329>
VStem: 33 100<234 332> 342 70<-142 -128>
Fore
307 -229 m 0
 267 -229 185 -211 185 -166 c 0
 185 -147 201 -131 220 -131 c 0
 228 -131 230 -132 249 -142 c 0
 267 -153 289 -159 306 -159 c 0
 329 -159 342 -150 342 -134 c 0
 342 -113 323 -100 292 -100 c 0
 288 -100 284 -100 267 -102 c 1
 267 -9 l 1
 208 3 174 16 137 43 c 0
 71 92 33 167 33 249 c 2
 33 315 l 2
 33 475 150 597 305 597 c 0
 357 597 392 589 447 563 c 2
 457 559 l 1
 470 577 482 583 499 583 c 0
 517 583 533 574 542 559 c 0
 548 550 549 542 549 517 c 2
 549 433 l 2
 549 408 547 397 540 388 c 0
 530 375 515 367 499 367 c 0
 486 367 472 373 464 381 c 128
 456 389 454 396 449 420 c 0
 445 444 435 457 406 473 c 0
 379 488 343 497 309 497 c 0
 207 497 133 421 133 315 c 2
 133 251 l 2
 133 151 210 86 329 86 c 0
 375 86 415 94 440 109 c 0
 451 115 451 115 478 143 c 0
 489 154 501 159 514 159 c 0
 541 159 564 136 564 108 c 0
 564 82 535 48 491 23 c 0
 451 1 406 -10 337 -14 c 1
 337 -42 l 1
 388 -52 412 -81 412 -132 c 0
 412 -188 367 -229 307 -229 c 0
EndSplineSet
EndChar
StartChar: Egrave
Encoding: 135 200 145
Width: 600
Flags: W
HStem: 0 100<60 94 194 450> 0 219<492 510> 170 246<326 334> 483 100<60 94 194 428>
VStem: 94 100<100 243 342 483> 279 99<217 243 342 370> 428 100<414 483>
Fore
194 243 m 1
 194 100 l 1
 450 100 l 1
 450 152 l 2
 450 180 452 188 459 198 c 0
 469 212 484 219 500 219 c 0
 517 219 533 210 543 195 c 0
 548 186 550 177 550 152 c 2
 550 0 l 1
 79 0 l 2
 56 0 42 3 34 10 c 0
 21 19 13 34 13 50 c 0
 13 67 22 83 37 93 c 0
 46 99 55 100 79 100 c 2
 94 100 l 1
 94 483 l 1
 79 483 l 2
 54 483 43 485 34 492 c 0
 21 502 13 517 13 533 c 0
 13 550 22 567 37 576 c 0
 46 582 53 583 79 583 c 2
 528 583 l 1
 528 433 l 2
 528 405 526 397 519 387 c 0
 509 374 494 366 478 366 c 0
 461 366 445 375 435 390 c 0
 430 399 428 409 428 433 c 2
 428 483 l 1
 194 483 l 1
 194 342 l 1
 279 342 l 1
 279 349 l 2
 279 376 281 385 288 395 c 0
 298 408 313 416 328 416 c 0
 355 416 373 398 377 370 c 0
 378 361 378 358 378 349 c 2
 378 236 l 2
 378 210 376 200 369 191 c 0
 359 178 344 170 329 170 c 0
 312 170 295 179 286 194 c 0
 281 203 279 212 279 236 c 2
 279 243 l 1
 194 243 l 1
211 824 m 2
 344 712 l 2
 360 699 367 688 367 676 c 0
 367 657 350 640 330 640 c 0
 321 640 311 645 298 656 c 2
 165 767 l 2
 148 781 142 790 142 803 c 0
 142 823 158 839 179 839 c 0
 189 839 197 835 211 824 c 2
EndSplineSet
EndChar
StartChar: Eacute
Encoding: 136 201 146
Width: 600
Flags: W
HStem: 0 100<60 94 194 450> 0 219<492 510> 170 246<326 334> 483 100<60 94 194 428>
VStem: 94 100<100 243 342 483> 279 99<217 243 342 370> 428 100<414 483>
Fore
194 243 m 1
 194 100 l 1
 450 100 l 1
 450 152 l 2
 450 180 452 188 459 198 c 0
 469 212 484 219 500 219 c 0
 517 219 533 210 543 195 c 0
 548 186 550 177 550 152 c 2
 550 0 l 1
 79 0 l 2
 56 0 42 3 34 10 c 0
 21 19 13 34 13 50 c 0
 13 67 22 83 37 93 c 0
 46 99 55 100 79 100 c 2
 94 100 l 1
 94 483 l 1
 79 483 l 2
 54 483 43 485 34 492 c 0
 21 502 13 517 13 533 c 0
 13 550 22 567 37 576 c 0
 46 582 53 583 79 583 c 2
 528 583 l 1
 528 433 l 2
 528 405 526 397 519 387 c 0
 509 374 494 366 478 366 c 0
 461 366 445 375 435 390 c 0
 430 399 428 409 428 433 c 2
 428 483 l 1
 194 483 l 1
 194 342 l 1
 279 342 l 1
 279 349 l 2
 279 376 281 385 288 395 c 0
 298 408 313 416 328 416 c 0
 355 416 373 398 377 370 c 0
 378 361 378 358 378 349 c 2
 378 236 l 2
 378 210 376 200 369 191 c 0
 359 178 344 170 329 170 c 0
 312 170 295 179 286 194 c 0
 281 203 279 212 279 236 c 2
 279 243 l 1
 194 243 l 1
417 767 m 1
 284 656 l 2
 271 645 261 640 252 640 c 0
 232 640 215 657 215 676 c 0
 215 688 222 700 238 712 c 1
 371 824 l 2
 385 835 393 839 403 839 c 0
 424 839 440 823 440 803 c 0
 440 790 434 780 417 767 c 1
EndSplineSet
EndChar
StartChar: Ecircumflex
Encoding: 137 202 147
Width: 600
Flags: W
HStem: 0 100<60 94 194 450> 0 219<492 510> 170 246<326 334> 483 100<60 94 194 428>
VStem: 94 100<100 243 342 483> 279 99<217 243 342 370> 428 100<414 483>
Fore
194 243 m 1
 194 100 l 1
 450 100 l 1
 450 152 l 2
 450 180 452 188 459 198 c 0
 469 212 484 219 500 219 c 0
 517 219 533 210 543 195 c 0
 548 186 550 177 550 152 c 2
 550 0 l 1
 79 0 l 2
 56 0 42 3 34 10 c 0
 21 19 13 34 13 50 c 0
 13 67 22 83 37 93 c 0
 46 99 55 100 79 100 c 2
 94 100 l 1
 94 483 l 1
 79 483 l 2
 54 483 43 485 34 492 c 0
 21 502 13 517 13 533 c 0
 13 550 22 567 37 576 c 0
 46 582 53 583 79 583 c 2
 528 583 l 1
 528 433 l 2
 528 405 526 397 519 387 c 0
 509 374 494 366 478 366 c 0
 461 366 445 375 435 390 c 0
 430 399 428 409 428 433 c 2
 428 483 l 1
 194 483 l 1
 194 342 l 1
 279 342 l 1
 279 349 l 2
 279 376 281 385 288 395 c 0
 298 408 313 416 328 416 c 0
 355 416 373 398 377 370 c 0
 378 361 378 358 378 349 c 2
 378 236 l 2
 378 210 376 200 369 191 c 0
 359 178 344 170 329 170 c 0
 312 170 295 179 286 194 c 0
 281 203 279 212 279 236 c 2
 279 243 l 1
 194 243 l 1
292 750 m 1
 179 653 l 2
 167 643 160 640 151 640 c 0
 132 640 116 657 116 675 c 0
 116 689 118 692 140 711 c 2
 292 839 l 1
 443 711 l 1
 453 702 467 693 467 675 c 128
 467 657 451 640 433 640 c 0
 423 640 415 644 404 653 c 2
 292 750 l 1
EndSplineSet
EndChar
StartChar: Edieresis
Encoding: 138 203 148
Width: 600
Flags: W
HStem: 0 100<60 94 194 450> 0 219<492 510> 170 246<326 338> 483 100<60 94 194 428> 678 120<176.067 196 384.067 398>
VStem: 94 100<100 243 342 483> 127 120<735 741> 279 99<217 243 342 370> 335 120<735 741> 428 100<414 483>
Fore
194 243 m 1
 194 100 l 1
 450 100 l 1
 450 152 l 2
 450 180 452 188 459 198 c 0
 469 212 484 219 500 219 c 0
 517 219 533 210 543 195 c 0
 548 186 550 177 550 152 c 2
 550 0 l 1
 79 0 l 2
 56 0 42 3 34 10 c 0
 21 19 13 34 13 50 c 0
 13 67 22 83 37 93 c 0
 46 99 55 100 79 100 c 2
 94 100 l 1
 94 483 l 1
 79 483 l 2
 54 483 43 485 34 492 c 0
 21 502 13 517 13 533 c 0
 13 550 22 567 37 576 c 0
 46 582 53 583 79 583 c 2
 528 583 l 1
 528 433 l 2
 528 405 526 397 519 387 c 0
 509 374 494 366 478 366 c 0
 461 366 445 375 435 390 c 0
 430 399 428 409 428 433 c 2
 428 483 l 1
 194 483 l 1
 194 342 l 1
 279 342 l 1
 279 349 l 2
 279 376 281 385 288 395 c 0
 298 408 313 416 328 416 c 0
 355 416 373 398 377 370 c 0
 378 361 378 358 378 349 c 2
 378 236 l 2
 378 210 376 200 369 191 c 0
 359 178 344 170 329 170 c 0
 312 170 295 179 286 194 c 0
 281 203 279 212 279 236 c 2
 279 243 l 1
 194 243 l 1
187 798 m 0
 221 798 247 771 247 737 c 0
 247 705 220 678 187 678 c 128
 154 678 127 705 127 738 c 128
 127 771 154 798 187 798 c 0
395 798 m 0
 429 798 455 771 455 737 c 0
 455 705 428 678 395 678 c 128
 362 678 335 705 335 738 c 128
 335 771 362 798 395 798 c 0
EndSplineSet
EndChar
StartChar: Igrave
Encoding: 139 204 149
Width: 600
Flags: W
HStem: 0 100<130 250 350 468> 483 100<130 250 350 468>
VStem: 250 100<99 483>
Fore
350 483 m 1
 350 100 l 1
 451 100 l 2
 478 100 486 98 496 91 c 0
 510 81 517 66 517 50 c 0
 517 17 495 0 451 0 c 2
 149 0 l 2
 125 0 113 3 104 10 c 0
 91 19 83 35 83 50 c 0
 83 67 92 84 107 93 c 0
 116 99 123 100 149 100 c 2
 250 100 l 1
 250 483 l 1
 149 483 l 2
 124 483 113 485 104 492 c 0
 91 502 83 517 83 533 c 0
 83 550 92 567 107 576 c 0
 116 582 123 583 149 583 c 2
 451 583 l 2
 478 583 486 581 496 574 c 0
 510 564 517 549 517 533 c 0
 517 516 508 499 493 490 c 0
 485 485 474 483 451 483 c 2
 350 483 l 1
220 824 m 2
 353 712 l 2
 369 699 376 688 376 676 c 0
 376 657 359 640 339 640 c 0
 330 640 320 645 307 656 c 2
 174 767 l 2
 157 781 151 790 151 803 c 0
 151 823 167 839 188 839 c 0
 198 839 206 835 220 824 c 2
EndSplineSet
EndChar
StartChar: Iacute
Encoding: 140 205 150
Width: 600
Flags: W
HStem: 0 100<130 250 350 468> 483 100<130 250 350 468>
VStem: 250 100<99 483>
Fore
350 483 m 1
 350 100 l 1
 451 100 l 2
 478 100 486 98 496 91 c 0
 510 81 517 66 517 50 c 0
 517 17 495 0 451 0 c 2
 149 0 l 2
 125 0 113 3 104 10 c 0
 91 19 83 35 83 50 c 0
 83 67 92 84 107 93 c 0
 116 99 123 100 149 100 c 2
 250 100 l 1
 250 483 l 1
 149 483 l 2
 124 483 113 485 104 492 c 0
 91 502 83 517 83 533 c 0
 83 550 92 567 107 576 c 0
 116 582 123 583 149 583 c 2
 451 583 l 2
 478 583 486 581 496 574 c 0
 510 564 517 549 517 533 c 0
 517 516 508 499 493 490 c 0
 485 485 474 483 451 483 c 2
 350 483 l 1
452 767 m 1
 319 656 l 2
 306 645 296 640 287 640 c 0
 267 640 250 657 250 676 c 0
 250 688 257 700 273 712 c 1
 406 824 l 2
 420 835 428 839 438 839 c 0
 459 839 475 823 475 803 c 0
 475 790 469 780 452 767 c 1
EndSplineSet
EndChar
StartChar: Icircumflex
Encoding: 141 206 151
Width: 600
Flags: W
HStem: 0 100<130 250 350 468> 483 100<130 250 350 468>
VStem: 250 100<99 483>
Fore
350 483 m 1
 350 100 l 1
 451 100 l 2
 478 100 486 98 496 91 c 0
 510 81 517 66 517 50 c 0
 517 17 495 0 451 0 c 2
 149 0 l 2
 125 0 113 3 104 10 c 0
 91 19 83 35 83 50 c 0
 83 67 92 84 107 93 c 0
 116 99 123 100 149 100 c 2
 250 100 l 1
 250 483 l 1
 149 483 l 2
 124 483 113 485 104 492 c 0
 91 502 83 517 83 533 c 0
 83 550 92 567 107 576 c 0
 116 582 123 583 149 583 c 2
 451 583 l 2
 478 583 486 581 496 574 c 0
 510 564 517 549 517 533 c 0
 517 516 508 499 493 490 c 0
 485 485 474 483 451 483 c 2
 350 483 l 1
300 750 m 1
 187 653 l 2
 175 643 168 640 159 640 c 0
 140 640 124 657 124 675 c 0
 124 689 126 692 148 711 c 2
 300 839 l 1
 451 711 l 1
 461 702 475 693 475 675 c 128
 475 657 459 640 441 640 c 0
 431 640 423 644 412 653 c 2
 300 750 l 1
EndSplineSet
EndChar
StartChar: Idieresis
Encoding: 142 207 152
Width: 600
Flags: W
HStem: 0 100<130 250 350 468> 483 100<130 250 350 468> 678 120<185.067 199 393.067 407>
VStem: 136 120<735 741> 250 100<99 483> 344 120<735 741>
Fore
350 483 m 1
 350 100 l 1
 451 100 l 2
 478 100 486 98 496 91 c 0
 510 81 517 66 517 50 c 0
 517 17 495 0 451 0 c 2
 149 0 l 2
 125 0 113 3 104 10 c 0
 91 19 83 35 83 50 c 0
 83 67 92 84 107 93 c 0
 116 99 123 100 149 100 c 2
 250 100 l 1
 250 483 l 1
 149 483 l 2
 124 483 113 485 104 492 c 0
 91 502 83 517 83 533 c 0
 83 550 92 567 107 576 c 0
 116 582 123 583 149 583 c 2
 451 583 l 2
 478 583 486 581 496 574 c 0
 510 564 517 549 517 533 c 0
 517 516 508 499 493 490 c 0
 485 485 474 483 451 483 c 2
 350 483 l 1
196 798 m 0
 230 798 256 771 256 737 c 0
 256 705 229 678 196 678 c 128
 163 678 136 705 136 738 c 128
 136 771 163 798 196 798 c 0
404 798 m 0
 438 798 464 771 464 737 c 0
 464 705 437 678 404 678 c 128
 371 678 344 705 344 738 c 128
 344 771 371 798 404 798 c 0
EndSplineSet
EndChar
StartChar: Eth
Encoding: 143 208 153
Width: 600
Flags: W
HStem: 0 100<63 74 174 305> 243 100<47 74 174 257> 483 100<63 74 174 305>
VStem: 74 100<100 243 342 483> 450 100<239 321>
Fore
74 243 m 1
 66 243 l 2
 43 243 30 246 21 253 c 0
 8 262 0 277 0 293 c 0
 0 310 9 327 24 336 c 0
 33 342 40 343 67 343 c 2
 74 343 l 1
 74 483 l 1
 35 483 13 501 13 533 c 0
 13 550 22 567 37 576 c 0
 46 582 53 583 80 583 c 2
 292 583 l 2
 438 583 550 462 550 305 c 2
 550 258 l 2
 550 185 526 123 480 75 c 0
 431 23 371 0 284 0 c 2
 79 0 l 2
 56 0 43 3 34 10 c 0
 21 19 13 35 13 50 c 0
 13 82 36 100 74 100 c 1
 74 243 l 1
174 243 m 1
 174 100 l 1
 285 100 l 2
 345 100 378 112 409 144 c 1
 437 175 450 210 450 261 c 2
 450 307 l 2
 450 354 434 398 405 432 c 0
 375 467 337 483 284 483 c 2
 174 483 l 1
 174 343 l 1
 248 343 l 2
 275 343 283 341 293 334 c 0
 307 324 314 309 314 293 c 0
 314 260 292 243 248 243 c 2
 174 243 l 1
EndSplineSet
EndChar
StartChar: Ntilde
Encoding: 144 209 154
Width: 600
Flags: W
HStem: 0 100<58 73 173 227> 483 100<39 73 373 431 531.031 546.331> 667 69<370 378> 730 69<215 233>
VStem: 73 100<99 394> 431 100<191 483>
Fore
173 394 m 1
 173 100 l 1
 208 100 l 2
 235 100 244 98 254 91 c 0
 267 81 274 66 274 50 c 0
 274 33 265 17 250 7 c 0
 243 3 228 0 208 0 c 2
 79 0 l 2
 55 0 42 3 33 10 c 0
 20 19 12 34 12 50 c 0
 12 82 34 100 73 100 c 1
 73 483 l 1
 58 483 l 2
 33 483 22 485 13 492 c 0
 0 502 -8 517 -8 533 c 0
 -8 550 1 567 16 576 c 0
 25 582 32 583 58 583 c 2
 173 583 l 1
 431 191 l 1
 431 483 l 1
 396 483 l 2
 371 483 360 485 351 492 c 0
 338 502 330 517 330 533 c 0
 330 550 339 567 354 576 c 0
 363 582 370 583 396 583 c 2
 526 583 l 2
 553 583 561 581 571 574 c 0
 584 564 592 549 592 533 c 0
 592 501 571 483 531 483 c 1
 531 0 l 1
 432 0 l 1
 173 394 l 1
451 799 m 1
 471 797 484 786 484 771 c 128
 484 756 476 741 455 715 c 0
 428 681 404 667 375 667 c 0
 353 667 320 681 276 709 c 0
 249 727 240 730 226 730 c 0
 208 730 200 724 170 684 c 0
 163 675 155 670 145 670 c 0
 128 670 114 683 114 700 c 0
 114 714 123 732 140 753 c 0
 165 783 194 799 223 799 c 0
 247 799 264 792 314 762 c 0
 346 743 361 736 372 736 c 0
 387 736 391 740 413 770 c 0
 426 789 438 798 451 799 c 1
EndSplineSet
EndChar
StartChar: Ograve
Encoding: 145 210 155
Width: 600
Flags: W
HStem: -14 100<292 312> 497 100<292 312>
VStem: 21 100<273 307> 479 100<273 307>
Fore
300 597 m 0
 367 597 432 570 485 520 c 0
 548 460 579 383 579 287 c 0
 579 123 452 -14 300 -14 c 0
 146 -14 21 123 21 292 c 0
 21 460 146 597 300 597 c 0
300 497 m 0
 202 497 121 404 121 292 c 0
 121 179 202 86 300 86 c 0
 397 86 479 179 479 289 c 0
 479 404 399 497 300 497 c 0
223 824 m 2
 356 712 l 2
 372 699 379 688 379 676 c 0
 379 657 362 640 342 640 c 0
 333 640 323 645 310 656 c 2
 177 767 l 2
 160 781 154 790 154 803 c 0
 154 823 170 839 191 839 c 0
 201 839 209 835 223 824 c 2
EndSplineSet
EndChar
StartChar: Oacute
Encoding: 146 211 156
Width: 600
Flags: W
HStem: -14 100<288 310> 497 100<288 310>
VStem: 21 100<273 307> 479 100<273 307>
Fore
300 597 m 0
 367 597 432 570 485 520 c 0
 548 460 579 383 579 287 c 0
 579 123 452 -14 300 -14 c 0
 146 -14 21 123 21 292 c 0
 21 460 146 597 300 597 c 0
300 497 m 0
 202 497 121 404 121 292 c 0
 121 179 202 86 300 86 c 0
 397 86 479 179 479 289 c 0
 479 404 399 497 300 497 c 0
423 767 m 1
 290 656 l 2
 277 645 267 640 258 640 c 0
 238 640 221 657 221 676 c 0
 221 688 228 700 244 712 c 1
 377 824 l 2
 391 835 399 839 409 839 c 0
 430 839 446 823 446 803 c 0
 446 790 440 780 423 767 c 1
EndSplineSet
EndChar
StartChar: Ocircumflex
Encoding: 147 212 157
Width: 600
Flags: W
HStem: -14 100<292 310> 497 100<292 310>
VStem: 21 100<273 307> 479 100<273 307>
Fore
300 597 m 0
 367 597 432 570 485 520 c 0
 548 460 579 383 579 287 c 0
 579 123 452 -14 300 -14 c 0
 146 -14 21 123 21 292 c 0
 21 460 146 597 300 597 c 0
300 497 m 0
 202 497 121 404 121 292 c 0
 121 179 202 86 300 86 c 0
 397 86 479 179 479 289 c 0
 479 404 399 497 300 497 c 0
300 750 m 1
 187 653 l 2
 175 643 168 640 159 640 c 0
 140 640 124 657 124 675 c 0
 124 689 126 692 148 711 c 2
 300 839 l 1
 451 711 l 1
 461 702 475 693 475 675 c 128
 475 657 459 640 441 640 c 0
 431 640 423 644 412 653 c 2
 300 750 l 1
EndSplineSet
EndChar
StartChar: Otilde
Encoding: 148 213 158
Width: 600
Flags: W
HStem: -14 100<282 310> 497 100<282 310> 667 69<372 390> 730 69<228 236>
VStem: 21 100<273 307> 479 100<273 307>
Fore
300 597 m 0
 367 597 432 570 485 520 c 0
 548 460 579 383 579 287 c 0
 579 123 452 -14 300 -14 c 0
 146 -14 21 123 21 292 c 0
 21 460 146 597 300 597 c 0
300 497 m 0
 202 497 121 404 121 292 c 0
 121 179 202 86 300 86 c 0
 397 86 479 179 479 289 c 0
 479 404 399 497 300 497 c 0
460 799 m 0
 477 799 492 785 492 771 c 0
 492 756 484 741 463 715 c 0
 436 681 412 667 383 667 c 0
 361 667 328 681 284 709 c 0
 257 726 248 730 234 730 c 0
 216 730 208 723 179 685 c 0
 171 675 163 670 153 670 c 0
 136 670 122 683 122 700 c 0
 122 714 132 733 149 754 c 0
 174 783 203 799 232 799 c 0
 255 799 273 792 322 762 c 0
 355 742 369 736 380 736 c 0
 395 736 399 739 421 769 c 0
 435 789 448 799 460 799 c 0
EndSplineSet
EndChar
StartChar: Odieresis
Encoding: 149 214 159
Width: 600
Flags: W
HStem: -14 100<292 310> 497 100<292 310> 678 120<185.067 199 393.067 407>
VStem: 21 100<273 307> 136 120<735 741> 344 120<735 741> 479 100<273 307>
Fore
300 597 m 0
 367 597 432 570 485 520 c 0
 548 460 579 383 579 287 c 0
 579 123 452 -14 300 -14 c 0
 146 -14 21 123 21 292 c 0
 21 460 146 597 300 597 c 0
300 497 m 0
 202 497 121 404 121 292 c 0
 121 179 202 86 300 86 c 0
 397 86 479 179 479 289 c 0
 479 404 399 497 300 497 c 0
196 798 m 0
 230 798 256 771 256 737 c 0
 256 705 229 678 196 678 c 128
 163 678 136 705 136 738 c 128
 136 771 163 798 196 798 c 0
404 798 m 0
 438 798 464 771 464 737 c 0
 464 705 437 678 404 678 c 128
 371 678 344 705 344 738 c 128
 344 771 371 798 404 798 c 0
EndSplineSet
EndChar
StartChar: multiply
Encoding: 150 215 160
Width: 600
Flags: W
Fore
300 209 m 1
 197 106 l 2
 176 86 166 80 150 80 c 0
 123 80 100 103 100 131 c 0
 100 147 105 156 126 177 c 2
 229 280 l 1
 126 383 l 2
 105 405 100 413 100 430 c 0
 100 457 123 480 150 480 c 0
 166 480 176 474 197 454 c 2
 300 351 l 1
 403 454 l 2
 425 475 433 480 450 480 c 0
 477 480 500 457 500 430 c 0
 500 414 494 404 474 383 c 2
 371 280 l 1
 474 177 l 2
 494 157 500 146 500 130 c 0
 500 103 477 80 450 80 c 0
 433 80 424 85 403 106 c 2
 300 209 l 1
EndSplineSet
EndChar
StartChar: Oslash
Encoding: 151 216 161
Width: 600
Flags: W
HStem: -14 100<282.129 314> 497 100<281.373 314>
VStem: 20 100<281 299> 479 100<281 299>
Fore
159 28 m 1
 105 -40 l 2
 85 -65 77 -70 58 -70 c 0
 31 -70 9 -49 9 -23 c 0
 9 -10 13 -2 30 19 c 2
 87 92 l 1
 42 151 20 214 20 292 c 0
 20 460 145 597 300 597 c 0
 352 597 401 581 449 549 c 1
 495 607 l 2
 514 632 523 638 542 638 c 0
 568 638 590 616 590 590 c 0
 590 577 586 569 570 548 c 2
 518 483 l 1
 559 429 579 364 579 291 c 0
 579 123 454 -14 300 -14 c 0
 251 -14 202 1 159 28 c 1
452 400 m 1
 221 107 l 1
 246 93 273 86 300 86 c 0
 397 86 479 179 479 290 c 0
 479 328 469 369 452 400 c 1
152 174 m 1
 387 471 l 1
 358 488 330 497 299 497 c 0
 201 497 120 404 120 292 c 0
 120 248 130 211 152 174 c 1
EndSplineSet
EndChar
StartChar: Ugrave
Encoding: 152 217 162
Width: 600
Flags: W
HStem: -14 100<282.431 315> 483 100<171 225 377 429 529.031 544.331>
VStem: 71 100<193 483> 429 100<193 483>
Fore
529 483 m 1
 529 205 l 2
 529 134 502 78 445 35 c 0
 402 2 355 -14 300 -14 c 0
 246 -14 198 2 155 35 c 0
 99 78 71 134 71 205 c 2
 71 483 l 1
 31 484 10 501 10 533 c 0
 10 550 19 567 34 576 c 0
 43 582 51 583 76 583 c 2
 206 583 l 2
 234 583 241 582 252 574 c 0
 264 564 272 549 272 533 c 0
 272 516 263 499 248 490 c 0
 240 485 229 483 206 483 c 2
 171 483 l 1
 171 196 l 2
 171 135 229 86 300 86 c 128
 371 86 429 135 429 196 c 2
 429 483 l 1
 394 483 l 2
 368 483 358 485 349 492 c 0
 336 502 328 517 328 533 c 0
 328 550 337 567 352 576 c 0
 361 582 368 583 394 583 c 2
 524 583 l 2
 551 583 559 581 570 574 c 0
 583 564 590 549 590 533 c 0
 590 501 569 483 529 483 c 1
223 824 m 2
 356 712 l 2
 372 699 379 688 379 676 c 0
 379 657 362 640 342 640 c 0
 333 640 323 645 310 656 c 2
 177 767 l 2
 160 781 154 790 154 803 c 0
 154 823 170 839 191 839 c 0
 201 839 209 835 223 824 c 2
EndSplineSet
EndChar
StartChar: Uacute
Encoding: 153 218 163
Width: 600
Flags: W
HStem: -14 100<288 315> 483 100<171 223 375 429 529.031 544.331>
VStem: 71 100<193 483> 429 100<193 483>
Fore
529 483 m 1
 529 205 l 2
 529 134 502 78 445 35 c 0
 402 2 355 -14 300 -14 c 0
 246 -14 198 2 155 35 c 0
 99 78 71 134 71 205 c 2
 71 483 l 1
 31 484 10 501 10 533 c 0
 10 550 19 567 34 576 c 0
 43 582 51 583 76 583 c 2
 206 583 l 2
 234 583 241 582 252 574 c 0
 264 564 272 549 272 533 c 0
 272 516 263 499 248 490 c 0
 240 485 229 483 206 483 c 2
 171 483 l 1
 171 196 l 2
 171 135 229 86 300 86 c 128
 371 86 429 135 429 196 c 2
 429 483 l 1
 394 483 l 2
 368 483 358 485 349 492 c 0
 336 502 328 517 328 533 c 0
 328 550 337 567 352 576 c 0
 361 582 368 583 394 583 c 2
 524 583 l 2
 551 583 559 581 570 574 c 0
 583 564 590 549 590 533 c 0
 590 501 569 483 529 483 c 1
423 767 m 1
 290 656 l 2
 277 645 267 640 258 640 c 0
 238 640 221 657 221 676 c 0
 221 688 228 700 244 712 c 1
 377 824 l 2
 391 835 399 839 409 839 c 0
 430 839 446 823 446 803 c 0
 446 790 440 780 423 767 c 1
EndSplineSet
EndChar
StartChar: Ucircumflex
Encoding: 154 219 164
Width: 600
Flags: W
HStem: -14 100<282.431 315> 483 100<171 219 377 429 529.031 544.331>
VStem: 71 100<193 483> 429 100<193 483>
Fore
529 483 m 1
 529 205 l 2
 529 134 502 78 445 35 c 0
 402 2 355 -14 300 -14 c 0
 246 -14 198 2 155 35 c 0
 99 78 71 134 71 205 c 2
 71 483 l 1
 31 484 10 501 10 533 c 0
 10 550 19 567 34 576 c 0
 43 582 51 583 76 583 c 2
 206 583 l 2
 234 583 241 582 252 574 c 0
 264 564 272 549 272 533 c 0
 272 516 263 499 248 490 c 0
 240 485 229 483 206 483 c 2
 171 483 l 1
 171 196 l 2
 171 135 229 86 300 86 c 128
 371 86 429 135 429 196 c 2
 429 483 l 1
 394 483 l 2
 368 483 358 485 349 492 c 0
 336 502 328 517 328 533 c 0
 328 550 337 567 352 576 c 0
 361 582 368 583 394 583 c 2
 524 583 l 2
 551 583 559 581 570 574 c 0
 583 564 590 549 590 533 c 0
 590 501 569 483 529 483 c 1
300 750 m 1
 187 653 l 2
 175 643 168 640 159 640 c 0
 140 640 124 657 124 675 c 0
 124 689 126 692 148 711 c 2
 300 839 l 1
 451 711 l 1
 461 702 475 693 475 675 c 128
 475 657 459 640 441 640 c 0
 431 640 423 644 412 653 c 2
 300 750 l 1
EndSplineSet
EndChar
StartChar: Udieresis
Encoding: 155 220 165
Width: 600
Flags: W
HStem: -14 100<282.431 315> 483 100<171 219 377 429 529.031 544.331> 678 120<185 206 393 411>
VStem: 71 100<193 483> 136 120<735 741> 344 120<735 741> 429 100<193 483>
Fore
529 483 m 1
 529 205 l 2
 529 134 502 78 445 35 c 0
 402 2 355 -14 300 -14 c 0
 246 -14 198 2 155 35 c 0
 99 78 71 134 71 205 c 2
 71 483 l 1
 31 484 10 501 10 533 c 0
 10 550 19 567 34 576 c 0
 43 582 51 583 76 583 c 2
 206 583 l 2
 234 583 241 582 252 574 c 0
 264 564 272 549 272 533 c 0
 272 516 263 499 248 490 c 0
 240 485 229 483 206 483 c 2
 171 483 l 1
 171 196 l 2
 171 135 229 86 300 86 c 128
 371 86 429 135 429 196 c 2
 429 483 l 1
 394 483 l 2
 368 483 358 485 349 492 c 0
 336 502 328 517 328 533 c 0
 328 550 337 567 352 576 c 0
 361 582 368 583 394 583 c 2
 524 583 l 2
 551 583 559 581 570 574 c 0
 583 564 590 549 590 533 c 0
 590 501 569 483 529 483 c 1
196 798 m 0
 230 798 256 771 256 737 c 0
 256 705 229 678 196 678 c 128
 163 678 136 705 136 738 c 128
 136 771 163 798 196 798 c 0
404 798 m 0
 438 798 464 771 464 737 c 0
 464 705 437 678 404 678 c 128
 371 678 344 705 344 738 c 128
 344 771 371 798 404 798 c 0
EndSplineSet
EndChar
StartChar: Yacute
Encoding: 156 221 166
Width: 600
Flags: W
HStem: 0 100<164 249 350 428> 483 100<83 85 514 516>
VStem: 21 222<527 535> 250 100<99 245>
Fore
21 533 m 0
 21 569 49 583 88 583 c 2
 177 583 l 2
 204 583 213 581 223 574 c 0
 235 564 243 549 243 533 c 0
 243 510 231 495 205 484 c 1
 300 348 l 1
 394 484 l 1
 367 494 354 510 354 533 c 0
 354 550 363 567 378 576 c 0
 387 582 396 583 421 583 c 2
 513 583 l 2
 540 583 549 581 558 574 c 0
 572 564 579 549 579 533 c 0
 579 502 551 479 516 483 c 2
 514 483 l 1
 350 245 l 1
 350 100 l 1
 415 100 l 2
 443 100 451 98 461 91 c 0
 474 81 482 66 482 50 c 0
 482 33 473 16 458 7 c 0
 451 3 436 0 415 0 c 2
 185 0 l 2
 161 0 148 3 139 10 c 0
 126 19 118 34 118 50 c 0
 118 67 127 84 142 93 c 0
 151 99 158 100 185 100 c 2
 250 100 l 1
 250 245 l 1
 85 483 l 1
 44 483 21 501 21 533 c 0
426 767 m 1
 293 656 l 2
 280 645 270 640 261 640 c 0
 241 640 224 657 224 676 c 0
 224 688 231 700 247 712 c 1
 380 824 l 2
 394 835 402 839 412 839 c 0
 433 839 449 823 449 803 c 0
 449 790 443 780 426 767 c 1
EndSplineSet
EndChar
StartChar: Thorn
Encoding: 157 222 167
Width: 600
Flags: W
HStem: 0 100<61 95 195 303> 140 100<195 328> 343 100<195 328> 483 100<61 95 195 303>
VStem: 95 100<99 140 240 343 442 483> 421 102<287 295>
Fore
195 140 m 1
 195 100 l 1
 294 100 l 2
 321 100 329 98 339 91 c 0
 352 81 360 66 360 50 c 0
 360 33 351 16 336 7 c 0
 329 3 314 0 294 0 c 2
 80 0 l 2
 57 0 43 3 35 10 c 0
 22 19 14 35 14 50 c 0
 14 67 23 84 38 93 c 0
 47 99 56 100 80 100 c 2
 95 100 l 1
 95 483 l 1
 80 483 l 2
 53 483 45 485 35 492 c 0
 22 502 14 517 14 533 c 0
 14 550 23 567 38 576 c 0
 46 581 59 583 80 583 c 2
 294 583 l 2
 318 583 330 580 339 574 c 0
 352 564 360 549 360 533 c 0
 360 516 351 499 336 490 c 0
 327 484 318 483 294 483 c 2
 195 483 l 1
 195 443 l 1
 293 443 l 2
 395 443 447 427 488 382 c 0
 510 358 523 325 523 292 c 0
 523 259 510 225 488 201 c 0
 447 156 395 140 293 140 c 2
 195 140 l 1
195 240 m 1
 326 240 l 2
 392 240 421 255 421 291 c 0
 421 328 393 343 326 343 c 2
 195 343 l 1
 195 240 l 1
EndSplineSet
EndChar
StartChar: germandbls
Encoding: 158 223 168
Width: 600
Flags: W
HStem: -16 100<373 390> 0 100<60 96> 523 100<252 280>
VStem: 95 100<99 464> 346 100<454 464> 429 100<154 177>
Fore
95 100 m 1
 95 478 l 2
 95 563 167 623 268 623 c 128
 369 623 446 551 446 456 c 0
 446 419 438 397 411 365 c 1
 488 320 529 249 529 165 c 0
 529 57 467 -16 374 -16 c 0
 305 -16 255 31 255 97 c 0
 255 134 274 156 305 156 c 0
 318 156 332 151 340 142 c 0
 346 135 347 134 352 113 c 0
 356 94 366 84 382 84 c 0
 410 84 429 116 429 164 c 0
 429 200 414 234 388 259 c 0
 361 285 330 297 278 303 c 0
 241 307 223 323 223 353 c 0
 223 381 242 399 276 402 c 0
 302 405 310 407 321 415 c 0
 337 425 346 442 346 459 c 0
 346 496 314 523 268 523 c 0
 221 523 195 502 195 461 c 2
 195 100 l 1
 223 95 238 78 238 51 c 0
 238 16 217 0 172 0 c 2
 79 0 l 2
 55 0 42 3 33 9 c 0
 21 19 13 35 13 50 c 0
 13 67 23 84 37 93 c 0
 46 99 54 100 79 100 c 2
 95 100 l 1
EndSplineSet
EndChar
StartChar: agrave
Encoding: 159 224 169
Width: 600
Flags: W
HStem: -16 100<206 235> 0 21G<388 505> 196 92<265 298> 350 100<276 315>
VStem: 42 106<117 129>
Fore
388 0 m 1
 388 23 l 1
 340 -2 281 -16 222 -16 c 0
 123 -16 42 45 42 119 c 0
 42 150 57 185 81 212 c 0
 126 262 195 288 284 288 c 0
 316 288 347 285 388 278 c 1
 388 301 l 2
 388 335 359 350 295 350 c 0
 262 350 225 345 179 333 c 0
 162 329 148 327 139 327 c 0
 111 327 90 349 90 378 c 0
 90 399 100 413 120 420 c 0
 168 437 242 450 292 450 c 0
 415 450 489 395 489 302 c 2
 489 100 l 1
 505 100 l 2
 532 100 541 98 551 91 c 0
 563 81 571 66 571 50 c 0
 571 33 562 16 547 7 c 0
 540 2 526 0 505 0 c 2
 388 0 l 1
389 135 m 1
 389 185 l 1
 349 192 312 196 278 196 c 0
 210 196 148 161 148 123 c 0
 148 101 181 84 224 84 c 0
 278 84 334 101 389 135 c 1
206 680 m 2
 339 569 l 2
 355 556 362 545 362 532 c 0
 362 513 345 496 325 496 c 0
 315 496 308 500 293 512 c 2
 160 624 l 1
 143 637 137 647 137 660 c 0
 137 680 153 696 174 696 c 0
 185 696 190 693 206 680 c 2
EndSplineSet
EndChar
StartChar: aacute
Encoding: 160 225 170
Width: 600
Flags: W
HStem: -16 100<215 242> 0 21G<388 505> 196 92<265 298> 350 100<276 315>
VStem: 42 106<117 129>
Fore
388 0 m 1
 388 23 l 1
 340 -2 281 -16 222 -16 c 0
 123 -16 42 45 42 119 c 0
 42 150 57 185 81 212 c 0
 126 262 195 288 284 288 c 0
 316 288 347 285 388 278 c 1
 388 301 l 2
 388 335 359 350 295 350 c 0
 262 350 225 345 179 333 c 0
 162 329 148 327 139 327 c 0
 111 327 90 349 90 378 c 0
 90 399 100 413 120 420 c 0
 168 437 242 450 292 450 c 0
 415 450 489 395 489 302 c 2
 489 100 l 1
 505 100 l 2
 532 100 541 98 551 91 c 0
 563 81 571 66 571 50 c 0
 571 33 562 16 547 7 c 0
 540 2 526 0 505 0 c 2
 388 0 l 1
389 135 m 1
 389 185 l 1
 349 192 312 196 278 196 c 0
 210 196 148 161 148 123 c 0
 148 101 181 84 224 84 c 0
 278 84 334 101 389 135 c 1
419 624 m 1
 286 512 l 2
 271 500 264 496 254 496 c 0
 234 496 217 513 217 532 c 0
 217 545 224 556 240 569 c 2
 373 680 l 2
 389 693 394 696 405 696 c 0
 426 696 442 680 442 659 c 0
 442 647 436 637 419 624 c 1
EndSplineSet
EndChar
StartChar: acircumflex
Encoding: 161 226 171
Width: 600
Flags: W
HStem: -16 100<217 235> 0 21G<388 505> 196 92<265 298> 350 100<276 315>
VStem: 42 106<117 129>
Fore
388 0 m 1
 388 23 l 1
 340 -2 281 -16 222 -16 c 0
 123 -16 42 45 42 119 c 0
 42 150 57 185 81 212 c 0
 126 262 195 288 284 288 c 0
 316 288 347 285 388 278 c 1
 388 301 l 2
 388 335 359 350 295 350 c 0
 262 350 225 345 179 333 c 0
 162 329 148 327 139 327 c 0
 111 327 90 349 90 378 c 0
 90 399 100 413 120 420 c 0
 168 437 242 450 292 450 c 0
 415 450 489 395 489 302 c 2
 489 100 l 1
 505 100 l 2
 532 100 541 98 551 91 c 0
 563 81 571 66 571 50 c 0
 571 33 562 16 547 7 c 0
 540 2 526 0 505 0 c 2
 388 0 l 1
389 135 m 1
 389 185 l 1
 349 192 312 196 278 196 c 0
 210 196 148 161 148 123 c 0
 148 101 181 84 224 84 c 0
 278 84 334 101 389 135 c 1
290 607 m 1
 177 510 l 2
 166 501 158 497 149 497 c 0
 130 497 114 514 114 532 c 0
 114 546 116 549 138 567 c 2
 290 696 l 1
 450 560 l 0
 461 551 465 543 465 532 c 0
 465 514 449 497 431 497 c 0
 422 497 413 501 402 510 c 2
 290 607 l 1
EndSplineSet
EndChar
StartChar: atilde
Encoding: 162 227 172
Width: 600
Flags: W
HStem: -16 100<216 235> 0 21G<388 505> 196 92<265 308> 350 100<269 315> 523 69<361 372> 587 69<216 226>
VStem: 42 106<117 129>
Fore
388 0 m 1
 388 23 l 1
 340 -2 281 -16 222 -16 c 0
 123 -16 42 45 42 119 c 0
 42 150 57 185 81 212 c 0
 126 262 195 288 284 288 c 0
 316 288 347 285 388 278 c 1
 388 301 l 2
 388 335 359 350 295 350 c 0
 262 350 225 345 179 333 c 0
 162 329 148 327 139 327 c 0
 111 327 90 349 90 378 c 0
 90 399 100 413 120 420 c 0
 168 437 242 450 292 450 c 0
 415 450 489 395 489 302 c 2
 489 100 l 1
 505 100 l 2
 532 100 541 98 551 91 c 0
 563 81 571 66 571 50 c 0
 571 33 562 16 547 7 c 0
 540 2 526 0 505 0 c 2
 388 0 l 1
389 135 m 1
 389 185 l 1
 349 192 312 196 278 196 c 0
 210 196 148 161 148 123 c 0
 148 101 181 84 224 84 c 0
 278 84 334 101 389 135 c 1
446 656 m 0
 463 656 478 642 478 628 c 0
 478 613 470 598 449 571 c 0
 422 537 398 523 369 523 c 0
 347 523 314 537 270 566 c 0
 243 584 234 587 220 587 c 0
 202 587 194 580 165 541 c 0
 157 530 149 526 139 526 c 0
 122 526 108 540 108 556 c 0
 108 570 118 590 135 611 c 0
 160 640 189 656 218 656 c 0
 241 656 258 649 308 618 c 0
 342 598 355 592 366 592 c 0
 381 592 385 596 407 626 c 0
 421 646 434 656 446 656 c 0
EndSplineSet
EndChar
StartChar: adieresis
Encoding: 163 228 173
Width: 600
Flags: W
HStem: -16 100<217 247> 0 21G<388 505> 196 92<265 298> 350 100<276 315> 534 120<177 187 386 396>
VStem: 42 106<117 129> 125 120<591 597> 333 120<591 597>
Fore
388 0 m 1
 388 23 l 1
 340 -2 281 -16 222 -16 c 0
 123 -16 42 45 42 119 c 0
 42 150 57 185 81 212 c 0
 126 262 195 288 284 288 c 0
 316 288 347 285 388 278 c 1
 388 301 l 2
 388 335 359 350 295 350 c 0
 262 350 225 345 179 333 c 0
 162 329 148 327 139 327 c 0
 111 327 90 349 90 378 c 0
 90 399 100 413 120 420 c 0
 168 437 242 450 292 450 c 0
 415 450 489 395 489 302 c 2
 489 100 l 1
 505 100 l 2
 532 100 541 98 551 91 c 0
 563 81 571 66 571 50 c 0
 571 33 562 16 547 7 c 0
 540 2 526 0 505 0 c 2
 388 0 l 1
389 135 m 1
 389 185 l 1
 349 192 312 196 278 196 c 0
 210 196 148 161 148 123 c 0
 148 101 181 84 224 84 c 0
 278 84 334 101 389 135 c 1
185 654 m 0
 219 654 245 627 245 593 c 0
 245 561 218 534 185 534 c 128
 152 534 125 561 125 594 c 128
 125 627 152 654 185 654 c 0
393 654 m 0
 427 654 453 627 453 593 c 0
 453 561 426 534 393 534 c 128
 360 534 333 561 333 594 c 128
 333 627 360 654 393 654 c 0
EndSplineSet
EndChar
StartChar: aring
Encoding: 164 229 174
Width: 600
Flags: W
HStem: -16 100<217 235> 0 21G<388 505> 196 92<265 299> 350 100<276 315> 486 54<277 299> 674 53<277 299>
VStem: 42 106<117 129> 166 53<603 609> 359 53<603 609>
Fore
388 0 m 1
 388 23 l 1
 340 -2 281 -16 222 -16 c 0
 123 -16 42 45 42 119 c 0
 42 150 57 185 81 212 c 0
 126 262 195 288 284 288 c 0
 316 288 347 285 388 278 c 1
 388 301 l 2
 388 335 359 350 295 350 c 0
 262 350 225 345 179 333 c 0
 162 329 148 327 139 327 c 0
 111 327 90 349 90 378 c 0
 90 399 100 413 120 420 c 0
 168 437 242 450 292 450 c 0
 415 450 489 395 489 302 c 2
 489 100 l 1
 505 100 l 2
 532 100 541 98 551 91 c 0
 563 81 571 66 571 50 c 0
 571 33 562 16 547 7 c 0
 540 2 526 0 505 0 c 2
 388 0 l 1
389 135 m 1
 389 185 l 1
 349 192 312 196 278 196 c 0
 210 196 148 161 148 123 c 0
 148 101 181 84 224 84 c 0
 278 84 334 101 389 135 c 1
289 727 m 0
 357 727 412 672 412 605 c 0
 412 541 355 486 289 486 c 0
 222 486 166 541 166 607 c 0
 166 672 222 727 289 727 c 0
289 674 m 0
 251 674 219 643 219 607 c 128
 219 571 251 540 289 540 c 0
 326 540 359 571 359 606 c 0
 359 643 327 674 289 674 c 0
EndSplineSet
EndChar
StartChar: ae
Encoding: 165 230 175
Width: 600
Flags: W
HStem: -16 100<146 164 430 452> 172 86<362 502> 197 89<193 212> 350 100<193 212 430 441>
VStem: -13 101<130 148>
Fore
611 172 m 1
 360 172 l 1
 377 109 400 84 441 84 c 0
 463 84 482 89 509 101 c 0
 538 113 553 118 566 118 c 0
 592 118 612 96 612 66 c 0
 612 47 603 32 587 22 c 0
 552 0 489 -16 442 -16 c 0
 402 -16 379 -9 342 16 c 1
 333 5 321 -1 305 -1 c 0
 290 -1 279 5 269 16 c 1
 232 -7 202 -16 159 -16 c 0
 55 -16 -13 48 -13 145 c 0
 -13 189 3 216 45 242 c 0
 85 268 148 286 195 286 c 0
 210 286 229 284 255 281 c 1
 255 301 l 2
 255 329 235 350 207 350 c 0
 190 350 181 348 117 329 c 0
 108 326 100 325 94 325 c 0
 68 325 46 348 46 376 c 0
 46 401 60 417 87 426 c 0
 124 438 182 450 207 450 c 0
 253 450 288 433 323 394 c 1
 359 433 393 450 435 450 c 0
 482 450 528 426 563 381 c 0
 594 341 611 285 611 218 c 2
 611 172 l 1
255 130 m 1
 255 189 l 1
 232 195 216 197 199 197 c 0
 162 197 121 186 101 171 c 0
 93 164 88 154 88 142 c 0
 88 107 116 84 158 84 c 0
 189 84 215 96 255 130 c 1
362 258 m 1
 502 258 l 1
 498 285 495 299 487 313 c 0
 476 335 454 350 432 350 c 0
 409 350 386 333 375 307 c 0
 369 294 366 281 362 258 c 1
EndSplineSet
EndChar
StartChar: ccedilla
Encoding: 166 231 176
Width: 600
Flags: W
HStem: -229 70<298.955 314> -100 184<291 330> 350 100<289 332>
VStem: 54 100<188.808 220> 347 70<-142 -128>
Fore
312 -229 m 0
 273 -229 190 -211 190 -166 c 0
 190 -147 206 -131 225 -131 c 0
 233 -131 236 -132 254 -142 c 128
 272 -152 294 -159 311 -159 c 0
 334 -159 347 -150 347 -134 c 0
 347 -112 327 -100 291 -100 c 0
 286 -100 281 -101 272 -102 c 1
 272 -14 l 1
 217 -8 184 2 148 26 c 0
 87 66 54 131 54 206 c 0
 54 350 159 450 311 450 c 0
 367 450 415 440 454 420 c 1
 460 441 471 450 491 450 c 0
 508 450 526 441 533 428 c 0
 539 419 540 411 540 384 c 2
 540 307 l 2
 540 281 538 271 531 262 c 0
 521 249 506 241 490 241 c 0
 477 241 462 247 454 255 c 1
 446 261 444 267 439 289 c 0
 435 307 429 316 417 325 c 1
 391 341 354 350 311 350 c 0
 259 350 222 336 194 307 c 0
 168 281 154 245 154 207 c 0
 154 125 213 84 330 84 c 0
 370 84 411 89 435 97 c 0
 454 103 460 107 485 128 c 0
 494 136 503 140 515 140 c 0
 542 140 565 117 565 89 c 0
 565 58 528 23 475 5 c 0
 436 -8 398 -14 342 -16 c 1
 342 -42 l 1
 393 -52 417 -81 417 -133 c 0
 417 -188 372 -229 312 -229 c 0
EndSplineSet
EndChar
StartChar: egrave
Encoding: 167 232 177
Width: 600
Flags: W
HStem: -16 100<288 322> 172 88<145 439> 350 100<272 309>
Fore
550 172 m 1
 142 172 l 1
 165 112 218 84 306 84 c 0
 352 84 377 88 469 112 c 0
 481 115 493 117 502 117 c 0
 529 117 550 95 550 67 c 0
 550 47 539 33 515 22 c 0
 470 2 368 -16 297 -16 c 0
 142 -16 33 80 33 216 c 0
 33 348 145 450 291 450 c 0
 440 450 550 349 550 211 c 2
 550 172 l 1
145 260 m 1
 439 260 l 1
 423 315 365 350 292 350 c 128
 219 350 160 314 145 260 c 1
218 680 m 2
 351 569 l 2
 367 556 374 545 374 532 c 0
 374 513 357 496 337 496 c 0
 327 496 320 500 305 512 c 2
 172 624 l 1
 155 637 149 647 149 660 c 0
 149 680 165 696 186 696 c 0
 197 696 202 693 218 680 c 2
EndSplineSet
EndChar
StartChar: eacute
Encoding: 168 233 178
Width: 600
Flags: W
HStem: -16 100<288 322> 172 88<145 439> 350 100<272 308>
Fore
550 172 m 1
 142 172 l 1
 165 112 218 84 306 84 c 0
 352 84 377 88 469 112 c 0
 481 115 493 117 502 117 c 0
 529 117 550 95 550 67 c 0
 550 47 539 33 515 22 c 0
 470 2 368 -16 297 -16 c 0
 142 -16 33 80 33 216 c 0
 33 348 145 450 291 450 c 0
 440 450 550 349 550 211 c 2
 550 172 l 1
145 260 m 1
 439 260 l 1
 423 315 365 350 292 350 c 128
 219 350 160 314 145 260 c 1
431 624 m 1
 298 512 l 2
 283 500 276 496 266 496 c 0
 246 496 229 513 229 532 c 0
 229 545 236 556 252 569 c 2
 385 680 l 2
 401 693 406 696 417 696 c 0
 438 696 454 680 454 659 c 0
 454 647 448 637 431 624 c 1
EndSplineSet
EndChar
StartChar: ecircumflex
Encoding: 169 234 179
Width: 600
Flags: W
HStem: -16 100<288 322> 172 88<145 439> 350 100<272 309>
Fore
550 172 m 1
 142 172 l 1
 165 112 218 84 306 84 c 0
 352 84 377 88 469 112 c 0
 481 115 493 117 502 117 c 0
 529 117 550 95 550 67 c 0
 550 47 539 33 515 22 c 0
 470 2 368 -16 297 -16 c 0
 142 -16 33 80 33 216 c 0
 33 348 145 450 291 450 c 0
 440 450 550 349 550 211 c 2
 550 172 l 1
145 260 m 1
 439 260 l 1
 423 315 365 350 292 350 c 128
 219 350 160 314 145 260 c 1
305 607 m 1
 192 510 l 2
 181 501 173 497 164 497 c 0
 145 497 129 514 129 532 c 0
 129 546 131 549 153 567 c 2
 305 696 l 1
 465 560 l 0
 476 551 480 543 480 532 c 0
 480 514 464 497 446 497 c 0
 437 497 428 501 417 510 c 2
 305 607 l 1
EndSplineSet
EndChar
StartChar: edieresis
Encoding: 170 235 180
Width: 600
Flags: W
HStem: -16 100<288 322> 172 88<145 439> 350 100<272 308> 534 120<192 210 400 418>
VStem: 140 120<591 597> 348 120<591 597>
Fore
550 172 m 1
 142 172 l 1
 165 112 218 84 306 84 c 0
 352 84 377 88 469 112 c 0
 481 115 493 117 502 117 c 0
 529 117 550 95 550 67 c 0
 550 47 539 33 515 22 c 0
 470 2 368 -16 297 -16 c 0
 142 -16 33 80 33 216 c 0
 33 348 145 450 291 450 c 0
 440 450 550 349 550 211 c 2
 550 172 l 1
145 260 m 1
 439 260 l 1
 423 315 365 350 292 350 c 128
 219 350 160 314 145 260 c 1
200 654 m 0
 234 654 260 627 260 593 c 0
 260 561 233 534 200 534 c 128
 167 534 140 561 140 594 c 128
 140 627 167 654 200 654 c 0
408 654 m 0
 442 654 468 627 468 593 c 0
 468 561 441 534 408 534 c 128
 375 534 348 561 348 594 c 128
 348 627 375 654 408 654 c 0
EndSplineSet
EndChar
StartChar: igrave
Encoding: 171 236 181
Width: 600
Flags: W
HStem: 0 100<109 250 349 479> 337 100<157 250>
VStem: 250 100<99 337>
Fore
350 437 m 1
 350 100 l 1
 472 100 l 2
 499 100 507 98 517 91 c 0
 530 81 538 66 538 50 c 0
 538 33 529 17 514 7 c 0
 507 3 492 0 472 0 c 2
 128 0 l 2
 105 0 91 3 83 10 c 0
 70 19 62 34 62 50 c 0
 62 67 71 84 86 93 c 0
 95 99 102 100 128 100 c 2
 250 100 l 1
 250 337 l 1
 172 337 l 2
 147 337 135 339 126 347 c 1
 113 356 105 371 105 387 c 0
 105 404 114 421 129 430 c 0
 138 436 146 437 172 437 c 2
 350 437 l 1
207 680 m 2
 340 569 l 2
 356 556 363 545 363 532 c 0
 363 513 346 496 326 496 c 0
 316 496 309 500 294 512 c 2
 161 624 l 1
 144 637 138 647 138 660 c 0
 138 680 154 696 175 696 c 0
 186 696 191 693 207 680 c 2
EndSplineSet
EndChar
StartChar: iacute
Encoding: 172 237 182
Width: 600
Flags: W
HStem: 0 100<109 250 349 479> 337 100<157 250>
VStem: 250 100<99 337>
Fore
350 437 m 1
 350 100 l 1
 472 100 l 2
 499 100 507 98 517 91 c 0
 530 81 538 66 538 50 c 0
 538 33 529 17 514 7 c 0
 507 3 492 0 472 0 c 2
 128 0 l 2
 105 0 91 3 83 10 c 0
 70 19 62 34 62 50 c 0
 62 67 71 84 86 93 c 0
 95 99 102 100 128 100 c 2
 250 100 l 1
 250 337 l 1
 172 337 l 2
 147 337 135 339 126 347 c 1
 113 356 105 371 105 387 c 0
 105 404 114 421 129 430 c 0
 138 436 146 437 172 437 c 2
 350 437 l 1
410 624 m 1
 277 512 l 2
 262 500 255 496 245 496 c 0
 225 496 208 513 208 532 c 0
 208 545 215 556 231 569 c 2
 364 680 l 2
 380 693 385 696 396 696 c 0
 417 696 433 680 433 659 c 0
 433 647 427 637 410 624 c 1
EndSplineSet
EndChar
StartChar: icircumflex
Encoding: 173 238 183
Width: 600
Flags: W
HStem: 0 100<108 250 349 479> 337 100<157 250>
VStem: 250 100<99 337>
Fore
350 437 m 1
 350 100 l 1
 472 100 l 2
 499 100 507 98 517 91 c 0
 530 81 538 66 538 50 c 0
 538 33 529 17 514 7 c 0
 507 3 492 0 472 0 c 2
 128 0 l 2
 105 0 91 3 83 10 c 0
 70 19 62 34 62 50 c 0
 62 67 71 84 86 93 c 0
 95 99 102 100 128 100 c 2
 250 100 l 1
 250 337 l 1
 172 337 l 2
 147 337 135 339 126 347 c 1
 113 356 105 371 105 387 c 0
 105 404 114 421 129 430 c 0
 138 436 146 437 172 437 c 2
 350 437 l 1
284 607 m 1
 171 510 l 2
 160 501 152 497 143 497 c 0
 124 497 108 514 108 532 c 0
 108 546 110 549 132 567 c 2
 284 696 l 1
 444 560 l 0
 455 551 459 543 459 532 c 0
 459 514 443 497 425 497 c 0
 416 497 407 501 396 510 c 2
 284 607 l 1
EndSplineSet
EndChar
StartChar: idieresis
Encoding: 174 239 184
Width: 600
Flags: W
HStem: 0 100<109 250 349 479> 337 100<157 250> 534 120<170 181 381 389>
VStem: 119 120<591 597> 250 100<99 337> 327 120<591 597>
Fore
350 437 m 1
 350 100 l 1
 472 100 l 2
 499 100 507 98 517 91 c 0
 530 81 538 66 538 50 c 0
 538 33 529 17 514 7 c 0
 507 3 492 0 472 0 c 2
 128 0 l 2
 105 0 91 3 83 10 c 0
 70 19 62 34 62 50 c 0
 62 67 71 84 86 93 c 0
 95 99 102 100 128 100 c 2
 250 100 l 1
 250 337 l 1
 172 337 l 2
 147 337 135 339 126 347 c 1
 113 356 105 371 105 387 c 0
 105 404 114 421 129 430 c 0
 138 436 146 437 172 437 c 2
 350 437 l 1
179 654 m 0
 213 654 239 627 239 593 c 0
 239 561 212 534 179 534 c 128
 146 534 119 561 119 594 c 128
 119 627 146 654 179 654 c 0
387 654 m 0
 421 654 447 627 447 593 c 0
 447 561 420 534 387 534 c 128
 354 534 327 561 327 594 c 128
 327 627 354 654 387 654 c 0
EndSplineSet
EndChar
StartChar: eth
Encoding: 175 240 185
Width: 600
Flags: W
HStem: -16 100<281 315> 350 93<281 303>
VStem: 42 102<207 225>
Fore
417 583 m 1
 372 558 l 1
 501 468 558 368 558 233 c 0
 558 153 537 99 489 55 c 0
 439 10 370 -16 300 -16 c 0
 157 -16 42 85 42 211 c 0
 42 339 151 443 286 443 c 0
 336 443 367 433 430 396 c 1
 391 445 341 490 293 518 c 1
 201 468 l 2
 182 457 178 456 169 456 c 0
 152 456 139 472 139 493 c 0
 139 507 142 510 163 522 c 2
 213 551 l 1
 198 558 182 564 174 568 c 2
 158 573 l 2
 141 579 132 590 132 604 c 0
 132 623 151 640 172 640 c 0
 195 640 225 631 271 609 c 2
 299 596 l 1
 376 637 l 2
 388 643 399 646 409 646 c 0
 426 646 440 632 440 613 c 0
 440 601 432 590 417 583 c 1
300 350 m 0
 213 350 144 289 144 212 c 0
 144 141 214 84 300 84 c 0
 385 84 456 141 456 210 c 0
 456 289 388 350 300 350 c 0
EndSplineSet
EndChar
StartChar: ntilde
Encoding: 176 241 186
Width: 600
Flags: W
HStem: 0 100<70 95 195 222 406 410 510 525.03> 350 100<309 334> 417 20G<101 195> 523 69<365 376> 587 69<214 232>
VStem: 95 100<99 282> 410 100<99 289>
Fore
34 387 m 0
 34 423 62 437 101 437 c 2
 195 437 l 1
 195 389 l 1
 243 435 277 450 332 450 c 0
 432 450 510 392 510 282 c 2
 510 100 l 1
 549 100 571 82 571 50 c 0
 571 33 562 16 547 7 c 0
 539 2 526 0 505 0 c 2
 416 0 l 2
 371 0 349 17 349 50 c 0
 349 82 371 100 410 100 c 1
 410 278 l 2
 410 327 382 350 322 350 c 0
 272 350 247 337 195 282 c 1
 195 100 l 1
 201 100 l 2
 228 100 236 98 246 91 c 0
 259 81 267 66 267 50 c 0
 267 33 258 17 243 7 c 0
 235 2 222 0 201 0 c 2
 89 0 l 2
 65 0 53 3 43 10 c 0
 31 19 23 35 23 50 c 0
 23 67 32 84 47 93 c 0
 56 98 64 100 89 100 c 2
 95 100 l 1
 95 337 l 1
 56 338 34 355 34 387 c 0
446 656 m 1
 466 654 479 643 479 627 c 0
 479 613 471 598 450 571 c 0
 423 537 399 523 370 523 c 0
 348 523 315 537 271 566 c 0
 243 584 235 587 221 587 c 0
 203 587 195 581 165 540 c 0
 158 531 150 526 140 526 c 0
 123 526 109 540 109 556 c 0
 109 570 119 589 136 610 c 0
 161 640 190 656 218 656 c 0
 242 656 259 649 309 618 c 0
 342 598 355 592 367 592 c 0
 382 592 387 596 411 631 c 0
 421 645 435 655 446 656 c 1
EndSplineSet
EndChar
StartChar: ograve
Encoding: 177 242 187
Width: 600
Flags: W
HStem: -16 100<281 315> 350 100<281 315>
VStem: 42 100<207 225> 458 100<207 225>
Fore
303 450 m 0
 444 450 558 346 558 217 c 0
 558 87 444 -16 300 -16 c 128
 156 -16 42 87 42 217 c 0
 42 349 155 450 303 450 c 0
302 350 m 0
 211 350 142 293 142 217 c 0
 142 142 211 84 300 84 c 128
 389 84 458 142 458 217 c 0
 458 291 389 350 302 350 c 0
217 680 m 2
 350 569 l 2
 366 556 373 545 373 532 c 0
 373 513 356 496 336 496 c 0
 326 496 319 500 304 512 c 2
 171 624 l 1
 154 637 148 647 148 660 c 0
 148 680 164 696 185 696 c 0
 196 696 201 693 217 680 c 2
EndSplineSet
EndChar
StartChar: oacute
Encoding: 178 243 188
Width: 600
Flags: W
HStem: -16 100<281 315> 350 100<281 315>
VStem: 42 100<207 225> 458 100<207 225>
Fore
303 450 m 0
 444 450 558 346 558 217 c 0
 558 87 444 -16 300 -16 c 128
 156 -16 42 87 42 217 c 0
 42 349 155 450 303 450 c 0
302 350 m 0
 211 350 142 293 142 217 c 0
 142 142 211 84 300 84 c 128
 389 84 458 142 458 217 c 0
 458 291 389 350 302 350 c 0
430 624 m 1
 297 512 l 2
 282 500 275 496 265 496 c 0
 245 496 228 513 228 532 c 0
 228 545 235 556 251 569 c 2
 384 680 l 2
 400 693 405 696 416 696 c 0
 437 696 453 680 453 659 c 0
 453 647 447 637 430 624 c 1
EndSplineSet
EndChar
StartChar: ocircumflex
Encoding: 179 244 189
Width: 600
Flags: W
HStem: -16 100<281 315> 350 100<281 315>
VStem: 42 100<207 225> 458 100<207 225>
Fore
303 450 m 0
 444 450 558 346 558 217 c 0
 558 87 444 -16 300 -16 c 128
 156 -16 42 87 42 217 c 0
 42 349 155 450 303 450 c 0
302 350 m 0
 211 350 142 293 142 217 c 0
 142 142 211 84 300 84 c 128
 389 84 458 142 458 217 c 0
 458 291 389 350 302 350 c 0
300 607 m 1
 187 510 l 2
 176 501 168 497 159 497 c 0
 140 497 124 514 124 532 c 0
 124 546 126 549 148 567 c 2
 300 696 l 1
 460 560 l 0
 471 551 475 543 475 532 c 0
 475 514 459 497 441 497 c 0
 432 497 423 501 412 510 c 2
 300 607 l 1
EndSplineSet
EndChar
StartChar: otilde
Encoding: 180 245 190
Width: 600
Flags: W
HStem: -16 100<281 315> 350 100<281 322> 523 69<377 385> 587 69<230 236>
VStem: 42 100<207 225> 458 100<207 225>
Fore
303 450 m 0
 444 450 558 346 558 217 c 0
 558 87 444 -16 300 -16 c 128
 156 -16 42 87 42 217 c 0
 42 349 155 450 303 450 c 0
302 350 m 0
 211 350 142 293 142 217 c 0
 142 142 211 84 300 84 c 128
 389 84 458 142 458 217 c 0
 458 291 389 350 302 350 c 0
460 656 m 0
 477 656 492 642 492 628 c 0
 492 613 484 598 463 571 c 0
 436 537 412 523 383 523 c 0
 361 523 328 537 284 566 c 0
 257 584 248 587 234 587 c 0
 216 587 208 580 179 541 c 0
 171 530 163 526 153 526 c 0
 136 526 122 540 122 556 c 0
 122 570 132 590 149 611 c 0
 174 640 203 656 232 656 c 0
 255 656 272 649 322 618 c 0
 356 598 369 592 380 592 c 0
 395 592 399 596 421 626 c 0
 435 646 448 656 460 656 c 0
EndSplineSet
EndChar
StartChar: odieresis
Encoding: 181 246 191
Width: 600
Flags: W
HStem: -16 100<281 315> 350 100<281 315> 534 120<185 203 393 411>
VStem: 42 100<207 225> 136 120<591 597> 344 120<591 597> 458 100<207 225>
Fore
303 450 m 0
 444 450 558 346 558 217 c 0
 558 87 444 -16 300 -16 c 128
 156 -16 42 87 42 217 c 0
 42 349 155 450 303 450 c 0
302 350 m 0
 211 350 142 293 142 217 c 0
 142 142 211 84 300 84 c 128
 389 84 458 142 458 217 c 0
 458 291 389 350 302 350 c 0
196 654 m 0
 230 654 256 627 256 593 c 0
 256 561 229 534 196 534 c 128
 163 534 136 561 136 594 c 128
 136 627 163 654 196 654 c 0
404 654 m 0
 438 654 464 627 464 593 c 0
 464 561 437 534 404 534 c 128
 371 534 344 561 344 594 c 128
 344 627 371 654 404 654 c 0
EndSplineSet
EndChar
StartChar: divide
Encoding: 182 247 192
Width: 600
Flags: W
HStem: 28 132<285.339 315> 230 100<89 507> 400 132<285.339 315>
VStem: 225 150<91 97 459 477>
Fore
108 330 m 2
 492 330 l 2
 519 330 527 328 537 321 c 0
 550 311 558 296 558 280 c 0
 558 263 549 246 534 237 c 0
 526 232 514 230 492 230 c 2
 108 230 l 2
 84 230 72 232 63 240 c 1
 50 249 42 265 42 280 c 0
 42 297 52 314 66 323 c 0
 75 329 83 330 108 330 c 2
300 160 m 0
 346 160 375 134 375 93 c 0
 375 54 345 28 300 28 c 128
 255 28 225 55 225 94 c 128
 225 133 255 160 300 160 c 0
300 532 m 0
 346 532 375 506 375 465 c 0
 375 426 345 400 300 400 c 128
 255 400 225 427 225 466 c 128
 225 505 255 532 300 532 c 0
EndSplineSet
EndChar
StartChar: oslash
Encoding: 183 248 193
Width: 600
Flags: W
HStem: -16 100<278 312> 350 100<279.384 312>
VStem: 42 100<201 219> 458 100<201 219>
Fore
548 402 m 1
 506 359 l 1
 540 316 558 267 558 217 c 0
 558 87 444 -16 300 -16 c 0
 255 -16 213 -6 172 14 c 1
 116 -44 l 2
 95 -65 87 -70 71 -70 c 0
 44 -70 23 -49 23 -22 c 0
 23 -7 28 2 48 22 c 2
 96 72 l 1
 62 114 42 167 42 217 c 0
 42 347 156 450 298 450 c 0
 342 450 398 437 432 419 c 1
 480 468 l 2
 501 489 509 494 526 494 c 0
 552 494 573 473 573 447 c 0
 573 430 569 422 548 402 c 1
436 286 m 1
 247 91 l 1
 265 86 279 84 299 84 c 0
 389 84 458 142 458 217 c 0
 458 241 450 264 436 286 c 1
167 145 m 1
 357 342 l 1
 336 347 319 350 300 350 c 0
 211 350 142 292 142 217 c 0
 142 192 150 168 167 145 c 1
EndSplineSet
EndChar
StartChar: ugrave
Encoding: 184 249 194
Width: 600
Flags: W
HStem: -13 100<268 285> 0 21G<410 505> 417 20G<79 195 375 510>
VStem: 95 100<146 337> 410 100<154 337>
Fore
273 -13 m 0
 171 -13 95 46 95 156 c 2
 95 338 l 1
 79 338 l 1
 68 337 l 2
 38 335 13 358 13 387 c 0
 13 404 22 421 37 430 c 0
 46 436 54 437 79 437 c 2
 195 437 l 1
 195 159 l 2
 195 110 223 87 283 87 c 0
 333 87 358 100 410 155 c 1
 410 337 l 1
 375 337 l 2
 350 337 339 339 330 347 c 1
 317 356 309 372 309 387 c 0
 309 404 318 421 333 430 c 0
 342 436 351 437 375 437 c 2
 510 437 l 1
 510 100 l 1
 549 100 571 82 571 50 c 0
 571 33 562 17 547 7 c 0
 539 2 526 0 505 0 c 2
 410 0 l 1
 410 48 l 1
 360 1 328 -13 273 -13 c 0
215 680 m 2
 348 569 l 2
 364 556 371 545 371 532 c 0
 371 513 354 496 334 496 c 0
 324 496 317 500 302 512 c 2
 169 624 l 1
 152 637 146 647 146 660 c 0
 146 680 162 696 183 696 c 0
 194 696 199 693 215 680 c 2
EndSplineSet
EndChar
StartChar: uacute
Encoding: 185 250 195
Width: 600
Flags: W
HStem: -13 100<268 287> 0 21G<410 505> 417 20G<79 195 375 510>
VStem: 95 100<146 337> 410 100<154 337>
Fore
273 -13 m 0
 171 -13 95 46 95 156 c 2
 95 338 l 1
 79 338 l 1
 68 337 l 2
 38 335 13 358 13 387 c 0
 13 404 22 421 37 430 c 0
 46 436 54 437 79 437 c 2
 195 437 l 1
 195 159 l 2
 195 110 223 87 283 87 c 0
 333 87 358 100 410 155 c 1
 410 337 l 1
 375 337 l 2
 350 337 339 339 330 347 c 1
 317 356 309 372 309 387 c 0
 309 404 318 421 333 430 c 0
 342 436 351 437 375 437 c 2
 510 437 l 1
 510 100 l 1
 549 100 571 82 571 50 c 0
 571 33 562 17 547 7 c 0
 539 2 526 0 505 0 c 2
 410 0 l 1
 410 48 l 1
 360 1 328 -13 273 -13 c 0
418 624 m 1
 285 512 l 2
 270 500 263 496 253 496 c 0
 233 496 216 513 216 532 c 0
 216 545 223 556 239 569 c 2
 372 680 l 2
 388 693 393 696 404 696 c 0
 425 696 441 680 441 659 c 0
 441 647 435 637 418 624 c 1
EndSplineSet
EndChar
StartChar: ucircumflex
Encoding: 186 251 196
Width: 600
Flags: W
HStem: -13 100<268 296> 0 21G<410 505> 417 20G<79 195 375 510>
VStem: 95 100<146 337> 410 100<154 337>
Fore
273 -13 m 0
 171 -13 95 46 95 156 c 2
 95 338 l 1
 79 338 l 1
 68 337 l 2
 38 335 13 358 13 387 c 0
 13 404 22 421 37 430 c 0
 46 436 54 437 79 437 c 2
 195 437 l 1
 195 159 l 2
 195 110 223 87 283 87 c 0
 333 87 358 100 410 155 c 1
 410 337 l 1
 375 337 l 2
 350 337 339 339 330 347 c 1
 317 356 309 372 309 387 c 0
 309 404 318 421 333 430 c 0
 342 436 351 437 375 437 c 2
 510 437 l 1
 510 100 l 1
 549 100 571 82 571 50 c 0
 571 33 562 17 547 7 c 0
 539 2 526 0 505 0 c 2
 410 0 l 1
 410 48 l 1
 360 1 328 -13 273 -13 c 0
296 607 m 1
 183 510 l 2
 172 501 164 497 155 497 c 0
 136 497 120 514 120 532 c 0
 120 546 122 549 144 567 c 2
 296 696 l 1
 456 560 l 0
 467 551 471 543 471 532 c 0
 471 514 455 497 437 497 c 0
 428 497 419 501 408 510 c 2
 296 607 l 1
EndSplineSet
EndChar
StartChar: udieresis
Encoding: 187 252 197
Width: 600
Flags: W
HStem: -13 100<268 285> 0 21G<410 505> 417 20G<79 195 375 510> 534 120<188 198 396 410>
VStem: 95 100<146 337> 131 120<591 597> 339 120<591 597> 410 100<154 337>
Fore
273 -13 m 0
 171 -13 95 46 95 156 c 2
 95 338 l 1
 79 338 l 1
 68 337 l 2
 38 335 13 358 13 387 c 0
 13 404 22 421 37 430 c 0
 46 436 54 437 79 437 c 2
 195 437 l 1
 195 159 l 2
 195 110 223 87 283 87 c 0
 333 87 358 100 410 155 c 1
 410 337 l 1
 375 337 l 2
 350 337 339 339 330 347 c 1
 317 356 309 372 309 387 c 0
 309 404 318 421 333 430 c 0
 342 436 351 437 375 437 c 2
 510 437 l 1
 510 100 l 1
 549 100 571 82 571 50 c 0
 571 33 562 17 547 7 c 0
 539 2 526 0 505 0 c 2
 410 0 l 1
 410 48 l 1
 360 1 328 -13 273 -13 c 0
191 654 m 0
 225 654 251 627 251 593 c 0
 251 561 224 534 191 534 c 128
 158 534 131 561 131 594 c 128
 131 627 158 654 191 654 c 0
399 654 m 0
 433 654 459 627 459 593 c 0
 459 561 432 534 399 534 c 128
 366 534 339 561 339 594 c 128
 339 627 366 654 399 654 c 0
EndSplineSet
EndChar
StartChar: yacute
Encoding: 188 253 198
Width: 600
Flags: W
HStem: -205 100<68 188 297 321> 417 20G<87 177 421 513>
VStem: 21 222<376.035 390>
Fore
354 387 m 0
 354 423 382 437 421 437 c 2
 513 437 l 2
 539 437 549 435 558 428 c 0
 572 418 579 403 579 387 c 0
 579 358 560 340 527 337 c 1
 297 -105 l 1
 302 -105 l 2
 328 -105 338 -107 348 -114 c 0
 360 -124 368 -139 368 -155 c 0
 368 -172 359 -188 344 -198 c 0
 336 -203 324 -205 302 -205 c 2
 87 -205 l 2
 62 -205 51 -203 42 -195 c 1
 29 -186 21 -171 21 -155 c 0
 21 -138 30 -121 45 -112 c 0
 54 -107 63 -105 87 -105 c 2
 187 -105 l 1
 242 3 l 1
 70 337 l 1
 39 341 21 359 21 387 c 0
 21 422 50 437 87 437 c 2
 177 437 l 2
 203 437 213 435 223 428 c 0
 235 418 243 403 243 387 c 0
 243 356 222 338 184 337 c 1
 298 114 l 1
 418 337 l 1
 377 337 354 355 354 387 c 0
452 624 m 1
 319 512 l 2
 304 500 297 496 287 496 c 0
 267 496 250 513 250 532 c 0
 250 545 257 556 273 569 c 2
 406 680 l 2
 422 693 427 696 438 696 c 0
 459 696 475 680 475 659 c 0
 475 647 469 637 452 624 c 1
EndSplineSet
EndChar
StartChar: thorn
Encoding: 189 254 199
Width: 600
Flags: W
HStem: -205 100<39 73 174 249> 10 100<311 332> 350 100<311 345> 524 100<39 73>
VStem: 74 100<-106 66 222 244 392 524> 471 100<222 244>
Fore
174 66 m 1
 174 -105 l 1
 232 -105 l 2
 258 -105 268 -107 278 -114 c 0
 291 -124 298 -139 298 -155 c 0
 298 -172 289 -188 274 -198 c 0
 266 -203 254 -205 232 -205 c 2
 58 -205 l 2
 33 -205 22 -203 12 -195 c 0
 0 -186 -8 -171 -8 -155 c 0
 -8 -138 1 -121 16 -112 c 0
 25 -106 34 -105 58 -105 c 2
 74 -105 l 1
 74 524 l 1
 58 524 l 2
 32 524 22 526 12 533 c 0
 0 543 -8 558 -8 574 c 0
 -8 591 1 608 16 617 c 0
 25 622 34 624 58 624 c 2
 174 624 l 1
 174 392 l 1
 223 434 265 450 328 450 c 0
 467 450 571 354 571 224 c 0
 571 101 468 10 329 10 c 0
 270 10 226 26 174 66 c 1
323 350 m 0
 281 350 248 341 222 321 c 0
 193 300 174 263 174 231 c 0
 174 160 235 110 323 110 c 0
 409 110 471 160 471 230 c 0
 471 263 452 300 423 321 c 0
 397 341 364 350 323 350 c 0
EndSplineSet
EndChar
StartChar: ydieresis
Encoding: 190 255 200
Width: 600
Flags: W
HStem: -205 100<68 188 297 310> 417 20G<87 177 421 513> 534 120<185 198 393.067 407>
VStem: 21 222<376.035 390> 136 120<591 597> 344 120<591 597>
Fore
354 387 m 0
 354 423 382 437 421 437 c 2
 513 437 l 2
 539 437 549 435 558 428 c 0
 572 418 579 403 579 387 c 0
 579 358 560 340 527 337 c 1
 297 -105 l 1
 302 -105 l 2
 328 -105 338 -107 348 -114 c 0
 360 -124 368 -139 368 -155 c 0
 368 -172 359 -188 344 -198 c 0
 336 -203 324 -205 302 -205 c 2
 87 -205 l 2
 62 -205 51 -203 42 -195 c 1
 29 -186 21 -171 21 -155 c 0
 21 -138 30 -121 45 -112 c 0
 54 -107 63 -105 87 -105 c 2
 187 -105 l 1
 242 3 l 1
 70 337 l 1
 39 341 21 359 21 387 c 0
 21 422 50 437 87 437 c 2
 177 437 l 2
 203 437 213 435 223 428 c 0
 235 418 243 403 243 387 c 0
 243 356 222 338 184 337 c 1
 298 114 l 1
 418 337 l 1
 377 337 354 355 354 387 c 0
196 654 m 0
 230 654 256 627 256 593 c 0
 256 561 229 534 196 534 c 128
 163 534 136 561 136 594 c 128
 136 627 163 654 196 654 c 0
404 654 m 0
 438 654 464 627 464 593 c 0
 464 561 437 534 404 534 c 128
 371 534 344 561 344 594 c 128
 344 627 371 654 404 654 c 0
EndSplineSet
EndChar
StartChar: uni0E01
Encoding: 191 3585 201
Width: 600
Flags: W
HStem: 0 21G<160 235 425 500> 395 63<240.7 379.8>
VStem: 160 75<0 241.5> 425 75<0 374>
Fore
307 458 m 0
 425 458 500 361 500 283 c 10
 500 0 l 25
 425 0 l 25
 425 283 l 18
 425 353 363 395 307 395 c 8
 256 395 221 373 190 336 c 1
 229 325 254 312 276 278 c 1
 253 264 235 235 235 209 c 10
 235 0 l 25
 160 0 l 25
 160 209 l 18
 160 234 184 260 217 274 c 1
 198 297 156 309 104 318 c 1
 157 400 214 458 307 458 c 0
EndSplineSet
Comment: "Thai Gogai" 
EndChar
StartChar: uni0E02
Encoding: 192 3586 202
Width: 600
Flags: W
HStem: 0 62<162 205 280 425> 223 50<154.6 201.4> 395 63<226.729 305.2>
VStem: 95 50<283 333.7> 205 75<62 220.1> 210 50<283 333.7> 318 75<231.3 357.4> 425 75<62 445>
Fore
280 159 m 2xfb
 280 62 l 1
 425 62 l 1
 425 445 l 1
 500 445 l 1
 500 0 l 1
 162 0 l 1
 162 62 l 1
 205 62 l 1
 205 168 l 2xfb
 205 221 318 255 318 334 c 0
 318 352 295 395 261 395 c 0
 252 395 229 393 209 384 c 1
 238 380 260 348 260 309 c 0xf7
 260 262 223 223 178 223 c 0
 132 223 95 262 95 309 c 0
 95 376 168 458 261 458 c 0
 342 458 393 399 393 334 c 0
 393 248 280 206 280 159 c 2xfb
145 309 m 0
 145 289 160 273 178 273 c 0
 196 273 210 289 210 309 c 0xf7
 210 328 195 344 178 344 c 0
 160 344 145 328 145 309 c 0
EndSplineSet
EndChar
StartChar: uni0E03
Encoding: 193 3587 203
Width: 600
Flags: MW
HStem: 0 62<162 205 280 425> 203 50<154.6 201.4> 363 59<251 252> 386 63<205 206> 388 67<288 289> 422 27<206 252> 425 20G<425 500>
VStem: 95 50<263.3 312.7> 205 75<62 210.1> 210 50<263.3 312.7> 318 75<231.6 358.504> 425 75<62 445>
Fore
280 149 m 2xc3b0
 280 62 l 1
 425 62 l 1
 425 445 l 1
 500 445 l 1
 500 0 l 1
 162 0 l 1
 162 62 l 1
 205 62 l 1
 205 158 l 2
 205 211 318 255 318 333 c 0
 318 347 311 381 288 388 c 1
 251 363 l 1
 205 386 l 1xc3b0
 199 385 193 380 187 373 c 1
 178 373 l 1
 223 373 260 335 260 288 c 0xc370
 260 241 223 203 178 203 c 0
 132 203 95 241 95 288 c 0
 95 344 159 440 206 449 c 1
 252 422 l 1
 289 455 l 1
 333 438 393 389 393 333 c 0
 393 247 280 196 280 149 c 2xc3b0
145 288 m 0
 145 269 160 253 178 253 c 0
 196 253 210 269 210 288 c 0xc370
 210 307 196 323 178 323 c 0
 160 323 145 307 145 288 c 0
EndSplineSet
EndChar
StartChar: uni0E04
Encoding: 194 3588 204
Width: 613
Flags: W
HStem: 0 21G<165 240 438 513> 138 62<285 335.7> 268 62<285 335.7> 395 63<218.4 395.2>
VStem: 90 75<230.1 365.3> 165 75<0 127.705 137.1 156.3> 346 62<209.3 258.7> 438 75<0 364>
Fore
275 234 m 0
 275 215 291 200 311 200 c 0
 330 200 346 215 346 234 c 0
 346 253 330 268 311 268 c 0
 291 268 275 253 275 234 c 0
165 90 m 2
 165 141 90 227 90 286 c 0
 90 387 202 458 312 458 c 0
 417 458 513 395 513 286 c 2
 513 0 l 1
 438 0 l 1
 438 286 l 2
 438 346 376 395 312 395 c 0
 240 395 165 347 165 286 c 0
 165 243 178 224 191 207 c 1
 205 247 226 287 258 308 c 1
 273 322 291 330 311 330 c 0
 365 330 408 288 408 234 c 0
 408 181 365 138 311 138 c 0
 282 138 258 154 241 180 c 1
 240 147 240 111 240 90 c 2
 240 0 l 1
 165 0 l 1
 165 90 l 2
EndSplineSet
EndChar
StartChar: uni0E05
Encoding: 195 3589 205
Width: 613
Flags: MW
HStem: 0 21G<165 240 438 513> 138 62<285 335.7> 268 62<285 335.7> 347 63<311 312> 385 66<386 396> 410 40<248 311>
VStem: 90 75<230.1 341.9> 165 75<0 127.705 137.1 156.3> 248 1<388 450> 346 62<209.3 258.7> 438 75<0 338>
Fore
275 234 m 0
 275 215 291 200 311 200 c 0
 330 200 346 215 346 234 c 0
 346 253 330 268 311 268 c 0
 291 268 275 253 275 234 c 0
165 90 m 2
 165 141 90 227 90 286 c 0
 90 364 171 433 248 450 c 1
 311 410 l 1
 396 451 l 1
 462 429 513 367 513 286 c 2
 513 0 l 1
 438 0 l 1
 438 286 l 2
 438 326 408 372 386 385 c 1
 312 347 l 1
 249 388 l 1
 213 371 165 329 165 286 c 0
 165 243 178 224 191 207 c 1
 205 247 226 287 258 308 c 1
 273 322 291 330 311 330 c 0
 365 330 408 288 408 234 c 0
 408 181 365 138 311 138 c 0
 282 138 258 154 241 180 c 1
 240 147 240 111 240 90 c 2
 240 0 l 1
 165 0 l 1
 165 90 l 2
EndSplineSet
EndChar
StartChar: uni0E06
Encoding: 196 3590 206
Width: 600
Flags: HMW
HStem: -12 57<150.5 161 150.5 177.5> 0 21G<423 500> 203 50<70.6 117.4> 364 58<168 168> 386 63<121 122> 389 66<206 211> 422 27<122 168> 425 20G<425 500>
VStem: 11 50<263.3 312.7> 80 52<46.5 120.6> 126 50<263.3 312.7> 165 75<49.1899 124 185 249.4> 232 75<325.4 378.7> 425 75<68 445>
Fore
307 354 m 0x61ac
 307 307 240 241 240 213 c 2
 240 181 l 1
 267 181 281 177 326 166 c 0
 399 139 425 68 425 68 c 1
 425 445 l 1
 500 445 l 1
 500 0 l 1
 423 0 l 1
 384.492 71.6626 298.248 116.234 240 124 c 1
 240 61 l 2
 240 8 200 -12 155 -12 c 0
 108 -12 80 29 80 92 c 0
 80 153 115 178 165 185 c 1
 165 226 l 2x61d4
 165 253 232 332 232 354 c 0
 232 373 226 382 206 389 c 1
 168 364 l 1
 121 386 l 1
 115 385 109 380 103 373 c 1
 94 373 l 1
 139 373 176 335 176 288 c 0
 176 241 139 203 94 203 c 0
 48 203 11 241 11 288 c 0
 11 344 75 440 122 449 c 1
 168 422 l 1
 211 455 l 1
 252 438 307 407 307 354 c 0x61ac
61 288 m 0
 61 269 76 253 94 253 c 0
 112 253 126 269 126 288 c 0x61a4
 126 307 112 323 94 323 c 0
 76 323 61 307 61 288 c 0
165 124 m 1x61d4
 143 124 132 114 132 92 c 0
 132 57 145 45 156 45 c 0
 166 45 165 65 165 80 c 2
 165 124 l 1x61d4
EndSplineSet
EndChar
StartChar: uni0E07
Encoding: 197 3591 207
Width: 615
Flags: MW
HStem: 0 21G<344 470> 269 63<345.5 384.5> 395 63<345.5 384.5>
VStem: 275 63<340.9 386.4> 392 78<340.9 386.4> 395 75<68 276>
Fore
338 363 m 0
 338 346 350 332 365 332 c 0
 380 332 392 346 392 363 c 0
 392 381 380 395 365 395 c 0
 350 395 338 381 338 363 c 0
275 363 m 0
 275 416 315 458 365 458 c 0
 430 458 470 416 470 363 c 2
 470 0 l 1
 344 0 l 1
 110 226 l 1
 153 270 l 1
 369 68 l 1
 395 68 l 1
 395 276 l 1
 386 272 376 269 365 269 c 0
 315 269 275 311 275 363 c 0
EndSplineSet
EndChar
StartChar: uni0E08
Encoding: 198 3592 208
Width: 600
Flags: W
HStem: 0 21G<337 500> 134 62<254.3 297.2> 264 62<254.3 297.2> 395 63<207.3 375>
VStem: 182 62<205.3 254.7> 425 75<62 372>
Fore
182 230 m 0
 182 283 225 326 279 326 c 0
 323 326 354 296 365 245 c 2
 409 62 l 1
 425 62 l 1
 425 309 l 2
 425 372 357 395 297 395 c 0
 228 395 182 367 142 330 c 1
 106 369 l 1
 147 413 209 458 295 458 c 0
 410 458 500 399 500 309 c 2
 500 0 l 1
 337 0 l 1
 319 146 l 1
 308 139 294 134 279 134 c 0
 225 134 182 177 182 230 c 0
244 230 m 0
 244 211 260 196 279 196 c 0
 293 196 304 211 304 230 c 0
 304 249 293 264 279 264 c 0
 260 264 244 249 244 230 c 0
EndSplineSet
EndChar
StartChar: uni0E09
Encoding: 199 3593 209
Width: 600
Flags: HW
HStem: -12 62<419.3 468.7> 129 63<189.2 232.794> 259 63<188.9 233.1> 395 63<192.6 360.3>
VStem: 118 62<201.6 249.7> 228 88<81 131> 242 74<201.6 249.7> 407 75<189 371> 478 62<59.6 106.4>
Fore
180 225 m 0xfa
 180 207 194 192 210 192 c 0
 228 192 242 207 242 225 c 0
 242 244 228 259 211 259 c 0
 194 259 180 244 180 225 c 0xfa
118 225 m 0
 118 279 159 322 211 322 c 0
 275 322 316 279 316 225 c 2xfa
 316 81 l 1
 407 189 l 1
 407 310 l 2
 407 371 342 395 281 395 c 0
 213 395 153 366 114 329 c 1
 78 368 l 1
 118 413 194 458 278 458 c 0
 395 458 482 398 482 310 c 2
 482 164 l 1xfd
 516 151 540 121 540 83 c 0
 540 30 497 -12 444 -12 c 0
 404 -12 370 15 362 51 c 1
 313 0 l 1
 228 0 l 1
 228 131 l 1xfc80
 223 130 217 129 211 129 c 0
 159 129 118 172 118 225 c 0
410 83 m 0
 410 65 425 50 444 50 c 0
 463 50 478 65 478 83 c 0xf880
 478 101 463 117 444 117 c 0
 426 117 410 102 410 83 c 0
EndSplineSet
EndChar
StartChar: uni0E0A
Encoding: 200 3594 210
Width: 607
Flags: W
HStem: 0 62<156 211 286 425> 223 50<153.9 200.7> 395 63<226.729 300>
VStem: 95 50<283 333.7> 210 50<283 333.7> 211 75<62 220.1> 311 75<231.3 357.4> 425 75<62 294.536> 472 75<396.7 489>
Fore
286 159 m 2xf6
 286 62 l 25
 425 62 l 17
 425 240 l 2xf7
 425 279 430 314 396 353 c 1
 447 384 472 418 472 489 c 9
 547 482 l 17xf280
 547 409 529 370 469 350 c 1
 500 316 500 286 500 240 c 2
 500 0 l 1
 156 0 l 9
 156 62 l 25
 211 62 l 25
 211 168 l 18xf7
 211 221 311 255 311 334 c 0
 311 352 291 395 261 395 c 0
 252 395 229 393 209 384 c 1
 238 380 260 348 260 309 c 0xfa
 260 262 222 223 176 223 c 0
 131 223 95 262 95 309 c 0
 95 376 168 458 261 458 c 0
 338 458 386 399 386 334 c 0
 386 248 286 206 286 159 c 2xf6
145 309 m 0
 145 289 159 273 176 273 c 0
 195 273 210 289 210 309 c 0xfa
 210 328 195 344 178 344 c 0
 160 344 145 328 145 309 c 0
EndSplineSet
EndChar
StartChar: uni0E0B
Encoding: 201 3595 211
Width: 607
Flags: MW
HStem: 0 62<156 211 286 425> 203 50<152.9 199.7> 363 60<251 251> 386 63<205 206> 388 67<284 285> 423 26<206 251>
VStem: 95 50<263.3 312.7> 210 50<263.3 312.7> 211 75<62 195> 311 75<231.6 360.879> 425 75<62 298.443> 472 75<403.7 496>
Fore
500 0 m 1xc260
 156 0 l 9
 156 62 l 25
 211 62 l 25
 211 158 l 18xc2e0
 211 210 311 255 311 333 c 0
 311 347 305 380 285 388 c 1
 251 363 l 1
 205 386 l 1
 199 385 193 380 187 373 c 1
 178 373 l 1
 223 373 260 335 260 288 c 0xc340
 260 241 222 203 175 203 c 0
 131 203 95 241 95 288 c 0
 95 344 159 440 206 449 c 1
 251 423 l 1
 284 455 l 1
 328 438 386 389 386 333 c 0
 386 247 286 195 286 149 c 2
 286 62 l 25
 425 62 l 17
 425 246 l 2xc2e0
 425 285 430 321 396 360 c 1
 447 392 472 425 472 496 c 9
 547 480 l 17xc250
 547 413 528 377 461 359 c 1
 500 324 500 293 500 246 c 2
 500 0 l 1xc260
145 288 m 0
 145 269 158 253 175 253 c 0
 194 253 210 269 210 288 c 0xc340
 210 307 196 323 178 323 c 0
 160 323 145 307 145 288 c 0
EndSplineSet
EndChar
StartChar: uni0E0C
Encoding: 202 3596 212
Width: 600
Flags: HW
HStem: -15 51<297.8 334.2> -12 50<134.6 181.4> 105 50<151 181.4> 395 63<166.1 296.1>
VStem: 76 75<155 241> 76 50<47.6 95.7> 191 50<47.6 95.7> 252 41<46.5 84.2> 305 75<143 375.2> 454 75<68 445>
Fore
316 94 m 0xb3c0
 302 94 293 80 293 66 c 0
 293 51 302 36 316 36 c 0
 330 36 339 49 339 61 c 0
 339 77 330 94 316 94 c 0xb3c0
126 71 m 0x77c0
 126 53 140 38 158 38 c 0
 176 38 191 53 191 71 c 0
 191 90 176 105 158 105 c 0
 140 105 126 90 126 71 c 0x77c0
151 155 m 1xbbc0
 158 155 l 2
 204 155 241 117 241 71 c 0
 241 25 204 -12 158 -12 c 0
 113 -12 76 25 76 71 c 2x77c0
 76 215 l 2
 76 239 96 264 124 277 c 1
 107 299 83 312 35 321 c 1
 87 402 131 458 222 458 c 0
 344 458 380 366 380 292 c 2
 380 125 l 1
 454 68 l 1
 454 445 l 1
 529 445 l 1
 529 0 l 1
 449 0 l 1
 379 45 l 1
 379 -6 346 -15 320 -15 c 0
 260 -15 252 35 252 66 c 0
 252 120 280 143 305 143 c 1
 305 292 l 2
 305 356 279 395 222 395 c 0
 179 395 159 370 127 338 c 1
 157 328 164 315 180 282 c 1
 164 269 151 241 151 215 c 2
 151 155 l 1xbbc0
EndSplineSet
EndChar
StartChar: uni0E0D
Encoding: 203 3597 213
Width: 600
Flags: HMW
HStem: -172 45<350.4 405> -81 32<347.8 379.322> -12 50<134.6 181.4> 0 62<383 454> 105 50<151 181.4> 395 63<166.1 298.7>
VStem: 76 50<47.6 95.7> 76 75<155 241> 191 50<47.6 95.7> 306 37<-111 -99.5 -111 -85.5> 308 75<62 376.9> 389 37<-123.5 -104> 454 75<62 445>
Fore
366 -81 m 0xccb8
 352 -81 343 -95 343 -104 c 0
 343 -118 354 -127 366 -127 c 0
 375 -127 389 -119 389 -104 c 0
 389 -90 376 -81 366 -81 c 0xccb8
538 -58 m 1
 526.533 -103.87 494.529 -172 405 -172 c 0
 360 -172 306 -154 306 -104 c 0
 306 -67 340 -49 366 -49 c 0
 395 -49 426 -71 426 -104 c 0
 426 -115 425 -121 421 -127 c 1
 455.604 -121.389 463.276 -93.7711 469 -58 c 1
 538 -58 l 1
EndSplineSet
Refer: 310 63247 N 1 0 0 1 0 0 2
Substitution: 0 65534 'nds0' uni0E0D.descless
Substitution: 0 65534 'ndsc' uni0E0D.descless
EndChar
StartChar: uni0E0E
Encoding: 204 3598 214
Width: 600
Flags: W
HStem: -170 45<212.4 274.8> -64 50<217.6 263.403> -12 62<110.9 155.1> 114 62<110.9 155.1> 395 63<234.7 373.8>
VStem: 40 62<58.6 105.4> 132 61<-118.7 -74.5> 151 75<173 246.5> 164 62<58.6 105.4> 425 75<-91 378>
Fore
151 214 m 2xfd40
 151 239 178 260 211 274 c 1
 192 297 150 309 98 318 c 1
 151 400 208 458 301 458 c 0
 419 458 500 361 500 284 c 2
 500 -169 l 1
 425 -169 l 1
 403 -158 370 -137 338 -117 c 1
 322 -147 300 -170 241 -170 c 0
 190 -170 132 -140 132 -92 c 0xfe40
 132 -43 192 -14 241 -14 c 0
 260 -14 283 -24 307 -39 c 1
 318 -11 331 16 351 29 c 1
 396 0 l 1
 382 -19 372 -39 365 -60 c 1
 389 -71 411 -83 425 -91 c 1
 425 287 l 2
 425 357 357 395 301 395 c 8
 250 395 215 373 184 336 c 1
 223 325 248 312 270 278 c 1
 247 264 226 240 226 214 c 2xfd40
 226 82 l 2xfcc0
 226 30 185 -12 133 -12 c 0
 81 -12 40 30 40 82 c 0
 40 134 81 176 133 176 c 0
 140 176 146 175 151 173 c 1
 151 214 l 2xfd40
102 82 m 0
 102 64 116 50 133 50 c 0
 150 50 164 64 164 82 c 0xfcc0
 164 100 150 114 133 114 c 0
 116 114 102 100 102 82 c 0
297 -83 m 1
 275 -72 255 -64 241 -64 c 0
 223 -64 193 -79 193 -94 c 0xfe40
 193 -113 219 -125 241 -125 c 0
 267 -125 283 -106 297 -83 c 1
EndSplineSet
EndChar
StartChar: uni0E0F
Encoding: 205 3599 215
Width: 600
Flags: W
HStem: -170 45<148.6 183.983> -63 47<140.8 182.4> -12 62<110.9 155.1> 114 62<110.9 155.1> 395 63<234.7 373.8>
VStem: 40 62<58.6 105.4> 78 60<-118 -66> 151 75<173 239> 164 62<58.6 105.4> 425 75<-93 378>
AnchorPoint: "BelowBase" 500 -210 basechar 0
Fore
102 82 m 0xfcc0
 102 64 116 50 133 50 c 0
 150 50 164 64 164 82 c 0
 164 100 150 114 133 114 c 0
 116 114 102 100 102 82 c 0xfcc0
151 173 m 1xfd40
 151 214 l 2
 151 239 178 260 211 274 c 1
 192 297 150 309 98 318 c 1
 151 400 208 458 301 458 c 0
 419 458 500 361 500 285 c 2
 500 -170 l 1
 425 -170 l 1
 355 -111 l 1
 330 -167 l 1
 303 -156 275 -139 254 -122 c 1
 239 -150 221 -170 166 -170 c 0
 126 -170 78 -139 78 -92 c 0
 78 -41 131 -16 162 -16 c 0
 187 -16 206 -28 223 -35 c 1
 232 -10 246 19 266 32 c 1
 310 2 l 1
 289 -11 278 -39 270 -68 c 1
 283 -75 296 -82 312 -88 c 1
 354 -35 l 1
 425 -93 l 1
 425 287 l 2
 425 357 357 395 301 395 c 8
 250 395 215 373 184 336 c 1
 223 325 248 312 270 278 c 1
 247 264 226 240 226 214 c 2xfb40
 226 82 l 2xf8c0
 226 30 185 -12 133 -12 c 0
 81 -12 40 30 40 82 c 0
 40 134 81 176 133 176 c 0
 140 176 146 175 151 173 c 1xfd40
203 -84 m 1
 190 -76 177 -63 159 -63 c 0
 145 -63 138 -72 138 -92 c 0
 138 -112 154 -125 172 -125 c 0
 181 -125 199 -114 203 -84 c 1
EndSplineSet
EndChar
StartChar: uni0E10
Encoding: 206 3600 216
Width: 600
Flags: W
HStem: -191 45<414 455> -190 38<143.3 197.9> -134 28<419.9 459.195> -82 38<127.6 190.849> -44 30<419.9 464.1> 0 21<337 500> 85 63<253.2 294.8> 207 63<253.2 294.8> 357 54<396.9 500.9> 396 63<289.832 404.4>
VStem: 70 50<-145.9 -84.8> 182 62<156.2 199.1> 380 31<-97.1 -52.9> 425 75<62 291.7> 471 29<-97.1 -52.9>
Fore
212 -98 m 1x7f38
 197 -88 182 -82 164 -82 c 0
 136 -82 120 -92 120 -116 c 0
 120 -139 149 -152 168 -152 c 0
 191 -152 202 -128 212 -98 c 1x7f38
442 -44 m 0
 425 -44 411 -58 411 -75 c 0
 411 -92 425 -106 442 -106 c 0
 459 -106 471 -92 471 -75 c 0x3f3a
 471 -58 459 -44 442 -44 c 0
500 -74 m 2
 500 -191 l 1
 401 -191 l 1xbf3a
 342 -126 l 1
 305 -184 l 1
 281 -172 271 -152 252 -133 c 1
 239 -166 219 -190 172 -190 c 0x7f3a
 126 -190 70 -160 70 -116 c 0
 70 -68 128 -44 168 -44 c 0
 191 -44 210 -49 225 -57 c 1
 235 -33 247 -11 268 1 c 1
 313 -22 l 1
 289 -35 277 -61 268 -88 c 1
 282 -100 287 -113 305 -124 c 1
 342 -66 l 1
 414 -146 l 1
 455 -146 l 1xbf3a
 455 -132 l 1
 450 -133 445 -134 440 -134 c 0
 407 -134 380 -107 380 -74 c 0
 380 -41 407 -14 440 -14 c 0
 473 -14 500 -41 500 -74 c 2
EndSplineSet
Refer: 295 63232 N 1 0 0 1 0 0 2
Substitution: 0 65534 'nds0' uni0E10.descless
Substitution: 0 65534 'ndsc' uni0E10.descless
EndChar
StartChar: uni0E11
Encoding: 207 3601 217
Width: 600
Flags: MW
HStem: 0 21G<155 230 425 500> 203 50<70.6 117.4> 359 53<164 165> 377 66<119 122> 380 71<203 205> 395 63<382 422.3> 412 31<122 165>
VStem: 11 50<263.3 312.7> 126 50<263.3 312.7> 155 85<177 241.1> 221 75<325.4 375.786> 221 19<233 354> 425 75<0 383.7>
Fore
240 233 m 2xc548
 240 177 l 1
 285 279 l 2
 316 355 341 458 395 458 c 0
 442 458 500 441 500 333 c 2
 500 0 l 1
 425 0 l 1
 425 333 l 2
 425 372 416 395 395 395 c 0
 385 395 368 310 342 254 c 2
 230 0 l 1
 155 0 l 1
 155 206 l 2xc548
 155 233 221 332 221 354 c 0
 221 368 220 375 203 380 c 1
 164 359 l 1
 119 377 l 1
 115 376 112 375 108 373 c 1
 94 373 l 1
 139 373 176 335 176 288 c 0
 176 241 139 203 94 203 c 0
 48 203 11 241 11 288 c 0
 11 342 75 435 122 443 c 1
 165 412 l 1
 205 451 l 1
 246 435 296 405 296 354 c 0xc5a8
 296 307 240 261 240 233 c 2xc548
61 288 m 0
 61 269 76 253 94 253 c 0
 112 253 126 269 126 288 c 0xc588
 126 307 112 323 94 323 c 0
 76 323 61 307 61 288 c 0
EndSplineSet
EndChar
StartChar: uni0E12
Encoding: 208 3602 218
Width: 600
Flags: HMW
HStem: -12 48<309.8 346.2> 161 45<189.3 214> 280 58<189.3 238.7> 343 65<204 204> 381 66<132 137> 386 63<274 281> 408 39<132 204> 425 20G<454 529>
VStem: 21 75<191.6 321.6> 73 75<93 150.2> 123 56<217 269> 249 54<217.967 269> 264 41<46.8 83.2> 318 75<143 336> 454 75<76 445>
Fore
214 280 m 0xe136
 195 280 179 263 179 243 c 0
 179 223 195 206 214 206 c 0
 233 206 249 223 249 243 c 0
 249 263 233 280 214 280 c 0xe136
328 94 m 0
 314 94 305 79 305 65 c 0xe10e
 305 51 314 36 328 36 c 0
 342 36 352 51 352 65 c 0
 352 79 342 94 328 94 c 0
318 310 m 2
 318 330 306 369 274 386 c 1
 204 343 l 1
 137 381 l 1
 112 359 96 312 96 280 c 0xe18e
 96 212 148 157 148 93 c 1
 148 97 l 1xe146
 198 161 l 1
 156 161 123 200 123 245 c 0xe126
 123 296 164 338 213 338 c 0
 262 338 303 296 303 245 c 0
 303 226 296 208 282 194 c 1
 138 0 l 1
 73 0 l 1
 73 93 l 2xe156
 73 137 21 188 21 280 c 0xe186
 21 359 80 433 132 447 c 1
 204 408 l 1
 281 449 l 1
 344 437 393 377 393 310 c 2
 393 126 l 1
 454 76 l 1
 454 445 l 1
 529 445 l 1
 529 0 l 1
 449 0 l 1
 392 47 l 1
 392 -4 353 -12 323 -12 c 0
 271 -12 264 36 264 65 c 0
 264 120 293 143 318 143 c 1
 318 310 l 2
EndSplineSet
EndChar
StartChar: uni0E13
Encoding: 209 3603 219
Width: 600
Flags: MW
HStem: -12 50<134.6 181.4 444.8 482.5> 105 50<151 181.4> 395 63<154.6 283.3>
VStem: 76 75<155 246.2> 76 50<47.6 95.7> 191 50<47.6 95.7> 288 75<75 355> 426 75<136 445> 489 50<56 69.5>
Fore
126 71 m 0xef
 126 53 140 38 158 38 c 0
 176 38 191 53 191 71 c 0
 191 90 176 105 158 105 c 0
 140 105 126 90 126 71 c 0xef
363 75 m 1
 426 136 l 1
 426 445 l 1
 501 445 l 1
 501 120 l 1
 523 109 539 87 539 63 c 0
 539 21 505 -12 463 -12 c 0
 431 -12 404 7 398 34 c 1
 363 0 l 1
 288 0 l 1
 288 287 l 2
 288 355 265 395 204 395 c 0
 166 395 142 372 123 339 c 1
 154 329 163 316 180 282 c 1
 164 269 151 241 151 215 c 2
 151 155 l 1xf7
 158 155 l 2
 204 155 241 117 241 71 c 0
 241 25 204 -12 158 -12 c 0
 113 -12 76 25 76 71 c 2xef
 76 215 l 2xf7
 76 239 96 264 124 277 c 1
 107 299 83 312 35 321 c 1
 86 402 114 458 204 458 c 0
 331 458 363 364 363 287 c 2
 363 75 l 1
436 63 m 0
 436 49 449 38 463 38 c 0
 478 38 489 49 489 63 c 0
 489 76 478 88 463 88 c 0
 448 88 436 76 436 63 c 0
EndSplineSet
EndChar
StartChar: uni0E14
Encoding: 210 3604 220
Width: 600
Flags: W
HStem: 0 21G<159 230 425 500> 280 58<288.3 337.7> 395 63<200 427.5>
VStem: 105 75<192.9 339.8> 159 75<96 151.9> 222 56<212.4 268.3> 348 54<213.1 268.3> 425 75<0 343.8>
Fore
222 243 m 0xe7
 222 295 263 338 312 338 c 0
 361 338 402 295 402 243 c 0
 402 220 389 199 374 183 c 2
 230 0 l 1
 159 0 l 1
 159 96 l 2xeb
 159 139 105 190 105 280 c 0
 105 384 209 458 304 458 c 0
 417 458 500 397 500 310 c 2
 500 0 l 1
 425 0 l 1
 425 310 l 2
 425 336 399 395 304 395 c 0
 224 395 180 326 180 280 c 0xf3
 180 213 234 159 234 96 c 1
 234 99 l 1xeb
 288 158 l 1
 251 165 222 201 222 243 c 0xe7
313 280 m 0
 294 280 278 262 278 241 c 0xe7
 278 219 294 202 313 202 c 0
 332 202 348 219 348 241 c 0
 348 262 332 280 313 280 c 0
EndSplineSet
EndChar
StartChar: uni0E15
Encoding: 211 3605 221
Width: 600
Flags: HMW
HStem: 0 21G<159 230 425 500> 280 58<288.3 337.7> 344 64<303 303> 383 66<230 233> 386 65<377 386> 408 41<230 303>
VStem: 105 75<192.9 322.9> 159 75<96 151.9> 222 56<212.4 268.3> 348 54<213.1 268.3> 425 75<0 334.7>
Fore
230 0 m 1xc0e0
 159 0 l 1
 159 96 l 2xc160
 159 139 105 190 105 280 c 0
 105 360 162 423 230 449 c 1
 303 408 l 1
 386 451 l 1
 455 428 500 376 500 310 c 2
 500 0 l 1
 425 0 l 1
 425 310 l 2
 425 329 410 366 377 386 c 1
 303 344 l 1
 233 383 l 1
 201 359 180 313 180 280 c 0xc260
 180 213 234 159 234 96 c 1
 234 99 l 1xc160
 288 158 l 1
 251 165 222 201 222 243 c 0
 222 295 263 338 312 338 c 0
 361 338 402 295 402 243 c 0
 402 220 391 201 374 183 c 2
 230 0 l 1xc0e0
313 280 m 0
 294 280 278 262 278 241 c 0xc0e0
 278 219 294 202 313 202 c 0
 332 202 348 219 348 241 c 0
 348 262 332 280 313 280 c 0
EndSplineSet
EndChar
StartChar: uni0E16
Encoding: 212 3606 222
Width: 600
Flags: W
HStem: -12 62<230.9 275.1> 114 62<230.9 275.1> 395 63<238.9 376.7>
VStem: 160 75<173 242> 160 62<58.6 105.4> 284 62<58.6 105.4> 425 75<0 375.1>
Fore
222 82 m 0xee
 222 64 236 50 253 50 c 0
 270 50 284 64 284 82 c 0
 284 100 270 114 253 114 c 0
 236 114 222 100 222 82 c 0xee
235 173 m 1xf6
 240 175 247 176 253 176 c 0
 305 176 346 134 346 82 c 0
 346 30 305 -12 253 -12 c 0
 201 -12 160 30 160 82 c 2xee
 160 217 l 2
 160 241 182 266 212 279 c 1
 194 301 153 313 104 322 c 1
 155 402 210 458 300 458 c 0
 422 458 500 364 500 288 c 2
 500 0 l 1
 425 0 l 1
 425 288 l 2
 425 355 359 395 300 395 c 0
 253 395 220 374 191 339 c 1
 225 329 248 316 266 283 c 1
 249 270 235 242 235 217 c 2
 235 173 l 1xf6
EndSplineSet
EndChar
StartChar: uni0E17
Encoding: 213 3607 223
Width: 600
Flags: MW
HStem: 0 21G<151 226 425 500> 269 63<110.9 155.1> 395 63<110.9 155.1 380.4 422>
VStem: 40 62<340.9 386.4> 151 75<153 272> 164 62<340.9 386.4> 425 75<0 384.2>
Fore
102 363 m 0
 102 346 116 332 133 332 c 0
 150 332 164 346 164 363 c 0
 164 381 150 395 133 395 c 0
 116 395 102 381 102 363 c 0
40 363 m 0
 40 416 81 458 133 458 c 0
 185 458 226 416 226 363 c 2
 226 153 l 1
 278 270 l 2
 309 350 343 458 396 458 c 0
 442 458 500 442 500 340 c 2
 500 0 l 1
 425 0 l 1
 425 340 l 2
 425 374 416 395 396 395 c 0
 384 395 358 313 338 252 c 2
 226 0 l 1
 151 0 l 1
 151 272 l 1
 146 270 140 269 133 269 c 0
 81 269 40 311 40 363 c 0
EndSplineSet
EndChar
StartChar: uni0E18
Encoding: 214 3608 224
Width: 600
Flags: HW
HStem: 0 62<105 160 235 392> 357 54<365.2 473.1> 396 63<257.821 371.8>
VStem: 160 75<62 264> 392 75<62 291.7>
Fore
438 411 m 0xd8
 465 411 466 415 475 424 c 1
 505 380 l 1
 494 370 l 2
 483 360 456 357 412 357 c 0xd8
 376 357 355 396 299 396 c 0
 279 396 234 393 190 356 c 1
 247 345 467 301 467 257 c 2
 467 0 l 1
 105 0 l 1
 105 62 l 1
 160 62 l 1
 160 264 l 1
 235 264 l 1
 235 62 l 1
 392 62 l 1
 392 228 l 2
 392 277 152 321 104 330 c 1
 104 350 l 1
 154 423 217 459 299 459 c 0xb8
 386 459 381 411 438 411 c 0xd8
EndSplineSet
EndChar
StartChar: uni0E19
Encoding: 215 3609 225
Width: 614
Flags: HMW
HStem: -12 62<426.3 479.6> 269 63<110.5 159.9> 395 63<110.5 159.9>
VStem: 40 62<340.9 386.4> 160 75<66 274> 172 63<340.9 386.4> 354 62<77 85> 416 75<177 445> 491 63<61 114.3>
Fore
102 363 m 0xf580
 102 346 115 332 130 332 c 0
 153 332 172 346 172 363 c 0
 172 381 153 395 130 395 c 0
 115 395 102 381 102 363 c 0xf580
40 363 m 0
 40 416 80 458 130 458 c 0
 188 458 235 416 235 363 c 2xf580
 235 66 l 1
 416 177 l 1
 416 445 l 1
 491 445 l 1
 491 173 l 1
 528 160 554 127 554 87 c 0
 554 32 508 -12 451 -12 c 0
 396 -12 354 34 354 85 c 1
 233 0 l 1
 160 0 l 1
 160 274 l 1xf980
 151 271 141 269 130 269 c 0
 80 269 40 311 40 363 c 0
416 87 m 0
 416 67 432 50 451 50 c 0
 473 50 491 67 491 87 c 0
 491 108 473 125 451 125 c 0
 432 125 416 108 416 87 c 0
EndSplineSet
EndChar
StartChar: uni0E1A
Encoding: 216 3610 226
Width: 600
Flags: W
HStem: 0 62<114 151 226 425> 269 63<110.9 155.1> 395 63<110.9 155.1>
VStem: 40 62<340.9 386.4> 151 75<62 272> 164 62<340.9 386.4> 425 75<62 445>
Fore
102 363 m 0xf6
 102 346 116 332 133 332 c 0
 150 332 164 346 164 363 c 0
 164 381 150 395 133 395 c 0
 116 395 102 381 102 363 c 0xf6
40 363 m 0
 40 416 81 458 133 458 c 0
 185 458 226 416 226 363 c 2xf6
 226 62 l 1
 425 62 l 1
 425 445 l 1
 500 445 l 1
 500 0 l 1
 114 0 l 1
 114 62 l 1
 151 62 l 1
 151 272 l 1xfa
 146 270 140 269 133 269 c 0
 81 269 40 311 40 363 c 0
EndSplineSet
EndChar
StartChar: uni0E1B
Encoding: 217 3611 227
Width: 600
Flags: W
HStem: 0 62<114 151 226 425> 269 63<110.9 155.1> 395 63<110.9 155.1>
VStem: 40 62<340.9 386.4> 151 75<62 272> 164 62<340.9 386.4> 425 75<62 610>
AnchorPoint: "AboveBase" 425 500 basechar 0
Fore
102 363 m 0xf6
 102 346 116 332 133 332 c 0
 150 332 164 346 164 363 c 0
 164 381 150 395 133 395 c 0
 116 395 102 381 102 363 c 0xf6
40 363 m 0
 40 416 81 458 133 458 c 0
 185 458 226 416 226 363 c 2xf6
 226 62 l 1
 425 62 l 1
 425 610 l 1
 500 610 l 1
 500 0 l 1
 114 0 l 1
 114 62 l 1
 151 62 l 1
 151 272 l 1xfa
 146 270 140 269 133 269 c 0
 81 269 40 311 40 363 c 0
EndSplineSet
EndChar
StartChar: uni0E1C
Encoding: 218 3612 228
Width: 600
Flags: W
HStem: 0 21G<104 214 385 500> 269 63<174.9 219.1> 395 63<174.9 219.1>
VStem: 104 75<81 272> 104 62<340.9 386.4> 228 62<340.9 386.4> 425 75<68 445>
Fore
166 363 m 0xee
 166 346 180 332 197 332 c 0
 214 332 228 346 228 363 c 0
 228 381 214 395 197 395 c 0
 180 395 166 381 166 363 c 0xee
179 272 m 1xf6
 179 81 l 1xf6
 271 239 l 1
 341 239 l 1
 425 68 l 1
 425 445 l 1
 500 445 l 1
 500 0 l 1
 385 0 l 1
 305 161 l 1
 214 0 l 1
 104 0 l 1
 104 363 l 2xee
 104 416 145 458 197 458 c 0
 249 458 290 416 290 363 c 0
 290 311 249 269 197 269 c 0
 190 269 184 270 179 272 c 1xf6
EndSplineSet
EndChar
StartChar: uni0E1D
Encoding: 219 3613 229
Width: 600
Flags: W
HStem: 0 21G<104 214 385 500> 269 63<174.9 219.1> 395 63<174.9 219.1>
VStem: 104 75<81 272> 104 62<340.9 386.4> 228 62<340.9 386.4> 425 75<68 610>
AnchorPoint: "AboveBase" 425 500 basechar 0
Fore
166 363 m 0xee
 166 346 180 332 197 332 c 0
 214 332 228 346 228 363 c 0
 228 381 214 395 197 395 c 0
 180 395 166 381 166 363 c 0xee
179 272 m 1xf6
 179 81 l 1xf6
 271 239 l 1
 341 239 l 1
 425 68 l 1
 425 610 l 1
 500 610 l 1
 500 0 l 1
 385 0 l 1
 305 161 l 1
 214 0 l 1
 104 0 l 1
 104 363 l 2xee
 104 416 145 458 197 458 c 0
 249 458 290 416 290 363 c 0
 290 311 249 269 197 269 c 0
 190 269 184 270 179 272 c 1xf6
EndSplineSet
EndChar
StartChar: uni0E1E
Encoding: 220 3614 230
Width: 600
Flags: HW
HStem: 0 21G<151 249 393 500> 269 63<110.9 155.1> 395 63<110.9 155.1>
VStem: 40 62<340.9 386.4> 151 75<137 272> 164 62<340.9 386.4> 425 75<137 445>
Fore
102 363 m 0xf6
 102 346 116 332 133 332 c 0
 150 332 164 346 164 363 c 0
 164 381 150 395 133 395 c 0
 116 395 102 381 102 363 c 0xf6
151 0 m 1xfa
 151 272 l 1xfa
 146 270 140 269 133 269 c 0
 81 269 40 311 40 363 c 0
 40 416 81 458 133 458 c 0
 185 458 226 416 226 363 c 2xf6
 226 137 l 1
 295 445 l 1
 356 445 l 1
 425 137 l 1
 425 445 l 1
 500 445 l 1
 500 0 l 1
 393 0 l 1
 326 307 l 1
 249 0 l 1
 151 0 l 1xfa
EndSplineSet
EndChar
StartChar: uni0E1F
Encoding: 221 3615 231
Width: 600
Flags: HW
HStem: 0 21G<151 249 393 500> 269 63<110.9 155.1> 395 63<110.9 155.1>
VStem: 40 62<340.9 386.4> 151 75<137 272> 164 62<340.9 386.4> 425 75<137 610>
AnchorPoint: "AboveBase" 425 500 basechar 0
Fore
102 363 m 0xf6
 102 346 116 332 133 332 c 0
 150 332 164 346 164 363 c 0
 164 381 150 395 133 395 c 0
 116 395 102 381 102 363 c 0xf6
151 0 m 1xfa
 151 272 l 1xfa
 146 270 140 269 133 269 c 0
 81 269 40 311 40 363 c 0
 40 416 81 458 133 458 c 0
 185 458 226 416 226 363 c 2xf6
 226 137 l 1
 295 445 l 1
 356 445 l 1
 425 137 l 1
 425 610 l 1
 500 610 l 1
 500 0 l 1
 393 0 l 1
 326 307 l 1
 249 0 l 1
 151 0 l 1xfa
EndSplineSet
EndChar
StartChar: uni0E20
Encoding: 222 3616 232
Width: 600
Flags: W
HStem: -12 62<110.9 155.1> 114 62<110.9 155.1> 395 63<234.7 373.8>
VStem: 40 62<58.6 105.4> 151 75<173 239> 164 62<58.6 105.4> 425 75<0 378>
Fore
151 173 m 1xfa
 151 214 l 2
 151 239 178 260 211 274 c 1
 192 297 150 309 98 318 c 1
 151 400 208 458 301 458 c 0
 419 458 500 361 500 285 c 2
 500 0 l 1
 425 0 l 1
 425 287 l 2
 425 357 357 395 301 395 c 8
 250 395 215 373 184 336 c 1
 223 325 248 312 270 278 c 1
 247 264 226 240 226 214 c 2xfa
 226 81 l 2xf6
 226 30 185 -12 133 -12 c 0
 81 -12 40 30 40 82 c 0
 40 134 81 176 133 176 c 0
 140 176 146 176 151 173 c 1xfa
102 82 m 0
 102 64 116 50 133 50 c 0
 150 50 164 64 164 82 c 0xf6
 164 100 150 114 133 114 c 0
 116 114 102 100 102 82 c 0
EndSplineSet
EndChar
StartChar: uni0E21
Encoding: 223 3617 233
Width: 600
Flags: HW
HStem: -12 57<123.8 155> 269 63<110.9 155.1> 395 63<110.9 155.1>
VStem: 40 62<340.9 386.4> 66 52<51.7 120.6> 151 75<39.9469 124 185 272> 164 62<340.9 386.4> 425 75<68 445>
Fore
151 185 m 1xed
 151 272 l 1xed
 146 270 140 269 133 269 c 0
 81 269 40 311 40 363 c 0
 40 416 81 458 133 458 c 0
 185 458 226 416 226 363 c 2
 226 182 l 1
 264 182 278 179 329 168 c 0
 400 142 425 68 425 68 c 1
 425 445 l 1
 500 445 l 1
 500 0 l 1
 423 0 l 1
 423 0 390 66 324 95 c 0
 292 110 264 121 226 125 c 1xf3
 226 61 l 2
 226 8 186 -12 141 -12 c 0
 94 -12 66 29 66 92 c 0
 66 153 101 178 151 185 c 1xed
151 124 m 1
 129 124 118 114 118 92 c 0
 118 61 128 45 142 45 c 0
 152 45 151 65 151 80 c 2
 151 124 l 1
102 363 m 0xf3
 102 346 116 332 133 332 c 0
 150 332 164 346 164 363 c 0
 164 381 150 395 133 395 c 0
 116 395 102 381 102 363 c 0xf3
EndSplineSet
EndChar
StartChar: uni0E22
Encoding: 224 3618 234
Width: 600
Flags: W
HStem: 0 58<105 159> 0 62<234 425> 192 54<229.4 336> 395 63<187.2 230.1>
VStem: 115 63<340.9 386.4> 159 75<62 174.9> 239 63<340.9 386.4> 425 75<62 445>
Fore
178 363 m 0x3b
 178 346 192 332 208 332 c 0
 225 332 239 346 239 363 c 0
 239 381 225 395 208 395 c 0
 192 395 178 381 178 363 c 0x3b
115 363 m 0
 115 416 156 458 208 458 c 0
 260 458 302 416 302 363 c 0
 302 311 260 269 208 269 c 2
 206 269 l 1
 222 248 254 246 336 246 c 1
 336 192 l 1
 234 192 234 165 234 132 c 2
 234 62 l 1
 425 62 l 1
 425 445 l 1
 500 445 l 1
 500 0 l 1x77
 105 0 l 1
 105 58 l 1
 159 58 l 1
 159 135 l 2xb7
 159 179 164 194 195 215 c 1
 129 215 115 284 115 363 c 0
EndSplineSet
EndChar
StartChar: uni0E23
Encoding: 225 3619 235
Width: 605
Flags: HW
HStem: -12 62<310.5 349.5> 114 62<310.5 349.5> 357 63<379.5 480.671> 396 63<254.454 387>
VStem: 240 62<58.6 105.4> 358 77<59.2 104.7 170 260.7>
Fore
302 82 m 0xcc
 302 64 315 50 330 50 c 0
 345 50 358 64 358 80 c 0
 358 99 345 114 330 114 c 0
 315 114 302 100 302 82 c 0xcc
459 420 m 0xec
 468.39 420 474.077 420.385 490 431 c 1
 520 388 l 1
 509 375 l 2
 496 360 479 357 438 357 c 0xec
 393 357 366 396 296 396 c 0
 278 396 240 394 202 366 c 1
 215 363 256 354 287 348 c 0
 336 336 435 300 435 266 c 2
 435 80 l 2
 435 29 395 -12 330 -12 c 0
 280 -12 240 30 240 82 c 0
 240 134 280 176 330 176 c 0
 341 176 351 174 360 170 c 1
 360 236 l 2
 360 255 342 263 284 281 c 0
 229 307 104 329 104 329 c 1
 104 350 l 1
 153 423 215 459 296 459 c 0xdc
 398 459 392 420 459 420 c 0xec
EndSplineSet
EndChar
StartChar: uni0E24
Encoding: 226 3620 236
Width: 600
Flags: W
HStem: -12 62<230.9 275.1> 114 62<230.9 275.1> 395 63<238.9 376.7>
VStem: 160 75<173 242> 160 62<58.6 105.4> 284 62<58.6 105.4> 425 75<-165 375.1>
Fore
222 82 m 0xee
 222 64 236 50 253 50 c 0
 270 50 284 64 284 82 c 0
 284 100 270 114 253 114 c 0
 236 114 222 100 222 82 c 0xee
235 173 m 1xf6
 240 175 247 176 253 176 c 0
 305 176 346 134 346 82 c 0
 346 30 305 -12 253 -12 c 0
 201 -12 160 30 160 82 c 2xee
 160 217 l 2
 160 241 182 266 212 279 c 1
 194 301 153 313 104 322 c 1
 155 402 210 458 300 458 c 0
 422 458 500 364 500 288 c 2
 500 -165 l 1
 425 -165 l 1
 425 288 l 2
 425 355 359 395 300 395 c 0
 253 395 220 374 191 339 c 1
 225 329 248 316 266 283 c 1
 249 270 235 242 235 217 c 2
 235 173 l 1xf6
EndSplineSet
EndChar
StartChar: uni0E25
Encoding: 227 3621 237
Width: 608
Flags: W
HStem: -12 62<230.5 269.5> 114 62<231.3 271.6> 252 62<245.6 375.6> 395 63<205.3 373>
VStem: 160 75<173 240> 160 62<58.6 105.4> 278 62<58.6 105.4> 425 75<216 372>
Fore
222 82 m 0xf7
 222 64 235 50 250 50 c 0
 265 50 278 64 278 82 c 0
 278 100 268 114 256 114 c 0
 237 114 222 100 222 82 c 0xf7
235 173 m 1xfb
 243 175 251 176 261 176 c 0
 305 176 340 134 340 82 c 0
 340 30 300 -12 250 -12 c 0
 200 -12 160 30 160 82 c 2xf7
 160 189 l 2
 160 258 199 314 295 314 c 0
 368 314 425 216 425 216 c 1
 425 312 l 2
 425 372 355 395 295 395 c 0
 226 395 182 366 142 328 c 1
 106 367 l 1
 147 412 209 458 295 458 c 0
 410 458 500 400 500 312 c 2
 500 0 l 1
 425 0 l 1
 425 0 357 252 295 252 c 0
 257 252 235 240 235 189 c 2
 235 173 l 1xfb
EndSplineSet
EndChar
StartChar: uni0E26
Encoding: 228 3622 238
Width: 600
Flags: W
HStem: -12 62<110.9 155.1> 114 62<110.9 155.1> 395 63<234.7 373.8>
VStem: 40 62<58.6 105.4> 151 75<173 239> 164 62<58.6 105.4> 425 75<-165 378>
Fore
151 173 m 1xfa
 151 214 l 2
 151 239 178 260 211 274 c 1
 192 297 150 309 98 318 c 1
 151 400 208 458 301 458 c 0
 419 458 500 361 500 285 c 2
 500 -165 l 1
 425 -165 l 1
 425 287 l 2
 425 357 357 395 301 395 c 8
 250 395 215 373 184 336 c 1
 223 325 248 312 270 278 c 1
 247 264 226 240 226 214 c 2xfa
 226 82 l 2xf6
 226 31 185 -12 133 -12 c 0
 81 -12 40 30 40 82 c 0
 40 134 81 176 133 176 c 0
 140 176 146 176 151 173 c 1xfa
102 82 m 0
 102 64 116 50 133 50 c 0
 150 50 164 64 164 82 c 0xf6
 164 100 150 114 133 114 c 0
 116 114 102 100 102 82 c 0
EndSplineSet
EndChar
StartChar: uni0E27
Encoding: 229 3623 239
Width: 615
Flags: W
HStem: -12 62<390.5 429.5> 114 62<390.5 429.5> 395 63<204.9 381.7>
VStem: 320 62<58.6 105.4> 438 77<58.6 105.4 170 370>
Fore
382 82 m 0
 382 64 395 50 410 50 c 0
 425 50 438 64 438 82 c 0
 438 100 425 114 410 114 c 0
 395 114 382 100 382 82 c 0
320 82 m 0
 320 134 360 176 410 176 c 0
 421 176 431 174 440 170 c 1
 440 303 l 2
 440 370 361 395 292 395 c 0
 225 395 181 362 142 320 c 1
 106 361 l 1
 146 409 206 458 290 458 c 0
 416 458 515 397 515 303 c 2
 515 82 l 2
 515 30 475 -12 410 -12 c 0
 360 -12 320 30 320 82 c 0
EndSplineSet
EndChar
StartChar: uni0E28
Encoding: 230 3624 240
Width: 614
Flags: W
HStem: 0 21G<161 236 441 516> 136 66<285.6 332.4> 266 66<285.6 332.4> 398 64<216.4 347.7>
VStem: 91 75<241.2 366> 161 75<0 131.278> 341 66<210.6 257.4> 441 75<0 316.275>
Fore
449 488 m 1xfb
 520 488 l 1
 520 449 507 421 483 387 c 1
 504 360 516 327 516 288 c 2
 516 0 l 1
 441 0 l 1
 441 288 l 2
 441 303 437 317 430 330 c 1
 415 317 400 305 385 296 c 1
 399 279 407 257 407 234 c 0
 407 180 363 136 309 136 c 0
 284 136 260 146 242 161 c 1
 238 135 236 110 236 94 c 2
 236 0 l 1
 161 0 l 1
 161 94 l 2xf7
 161 141 91 227 91 288 c 0
 91 392 203 462 310 462 c 0
 354 462 397 451 432 431 c 1
 444 454 449 467 449 488 c 1xfb
277 234 m 0
 277 216 291 202 309 202 c 0
 327 202 341 216 341 234 c 0
 341 252 327 266 309 266 c 0
 291 266 277 252 277 234 c 0
185 215 m 1
 206 275 245 332 309 332 c 0
 323 332 332 330 342 326 c 1
 358 339 375 355 390 373 c 1
 367 388 339 398 310 398 c 0
 238 398 166 348 166 288 c 0xfb
 166 252 174 231 185 215 c 1
EndSplineSet
EndChar
StartChar: uni0E29
Encoding: 231 3625 241
Width: 610
Flags: HW
HStem: 0 62<105 160 235 428> 154 56<300.4 367> 275 50<101.4 156.812> 290 50<300.4 357.6> 405 50<101.4 158.6>
VStem: 40 50<336.4 393.6> 160 75<62 280> 170 65<336.4 393.6> 239 50<221.4 278.6> 369 50<224.367 278.6> 428 75<62 164 298 445>
Back
239 250 m 4
 239 300 279 340 329 340 c 4
 379 340 419 300 419 250 c 4
 419 200 379 160 329 160 c 4
 279 160 239 200 239 250 c 4
289 250 m 4
 289 228 307 210 329 210 c 4
 351 210 369 228 369 250 c 4
 369 272 351 290 329 290 c 4
 307 290 289 272 289 250 c 4
40 365 m 4
 40 415 80 455 130 455 c 4
 180 455 235 415 235 365 c 4
 235 315 180 275 130 275 c 4
 80 275 40 315 40 365 c 4
90 365 m 4
 90 343 108 325 130 325 c 4
 152 325 170 343 170 365 c 4
 170 387 152 405 130 405 c 4
 108 405 90 387 90 365 c 4
160 304 m 21
 235 365 l 5
 235 365 235 134 235 62 c 5
 428 62 l 13
 428 445 l 5
 503 445 l 13
 503 0 l 21
 105 0 l 5
 105 62 l 5
 160 62 l 13
 160 304 l 21
368 231 m 5
 376 228 385 226 393 226 c 4
 460 226 522 324 530 333 c 13
 575 285 l 21
 508 184 430 154 367 154 c 4
 346 154 327 157 310 162 c 5
 368 231 l 5
EndSplineSet
Fore
90 365 m 0xede0
 90 343 108 325 130 325 c 0
 152 325 170 343 170 365 c 0
 170 387 152 405 130 405 c 0
 108 405 90 387 90 365 c 0xede0
367 154 m 0
 313 154 239 173 239 250 c 0
 239 300 279 340 329 340 c 0
 379 340 419 300 419 250 c 0
 419 243 418 236 417 230 c 1
 421 231 424 233 428 234 c 1
 428 445 l 1
 503 445 l 1
 503 298 l 1
 517 315 527 330 530 333 c 1
 575 285 l 1
 552 250 528 224 503 204 c 1
 503 0 l 1
 105 0 l 1
 105 62 l 1
 160 62 l 1
 160 280 l 1xdee0
 150 277 140 275 130 275 c 0
 80 275 40 315 40 365 c 0
 40 415 80 455 130 455 c 0
 180 455 235 415 235 365 c 2xede0
 235 62 l 1xeee0
 428 62 l 1
 428 164 l 1
 407 157 386 154 367 154 c 0
289 250 m 0
 289 228 307 210 329 210 c 0
 351 210 369 228 369 250 c 0
 369 272 351 290 329 290 c 0
 307 290 289 272 289 250 c 0
EndSplineSet
EndChar
StartChar: uni0E2A
Encoding: 232 3626 242
Width: 604
Flags: W
HStem: -18 66<226.6 273.4> 112 66<226.6 273.4> 250 66<239.3 315.987> 398 64<202.9 339.618>
VStem: 153 65<56.6 103.4> 153 75<175 256.8> 282 66<56.6 103.4> 432 75<202 333.625>
Back
250 178 m 0
 304 178 348 134 348 80 c 0
 348 26 304 -18 250 -18 c 0
 196 -18 153 26 153 80 c 0
 153 134 196 178 250 178 c 0
218 80 m 0
 218 62 232 48 250 48 c 0
 268 48 282 62 282 80 c 0
 282 98 268 112 250 112 c 0
 232 112 218 98 218 80 c 0
101 363 m 1
 149.82 424.024 214.4 462 290 462 c 0
 413 462 507 400 507 306 c 2
 507 0 l 1
 432 0 l 1
 422 35 358 250 290 250 c 0
 251 250 228 240 228 184 c 2
 228 138 l 1
 225 136 l 1
 153 80 l 1
 153 184 l 2
 153 257 195 316 290 316 c 0
 355 316 408 242 432 202 c 1
 432 306 l 2
 432 371 358 398 290 398 c 0
 222.78 398 183.033 360.588 142 312 c 1
 101 363 l 1
440 488 m 1
 511 488 l 1
 511 480 l 2
 511 424 403 303 335 273 c 2
 331 271 l 1
 295 301 l 1
 304 307 l 2
 361 338 438 459 440 480 c 2
 440 488 l 1
EndSplineSet
Fore
440 488 m 1xf7
 511 488 l 1
 511 456 497 433 472 396 c 1
 494 371 507 341 507 306 c 2
 507 0 l 1
 432 0 l 1
 422 35 358 250 290 250 c 0
 251 250 228 240 228 184 c 2
 228 175 l 1xf7
 235 177 242 178 250 178 c 0
 304 178 348 134 348 80 c 0
 348 26 304 -18 250 -18 c 0
 196 -18 153 26 153 80 c 2xfb
 153 184 l 2
 153 257 195 316 290 316 c 0
 298 316 306 315 313 313 c 1
 335 328 359 353 380 380 c 1
 354 392 321 398 290 398 c 0
 223 398 183 361 142 312 c 1
 101 363 l 1
 150 424 214 462 290 462 c 0
 338 462 382 452 418 435 c 1
 433 462 440 469 440 488 c 1xf7
218 80 m 0xfb
 218 62 232 48 250 48 c 0
 268 48 282 62 282 80 c 0
 282 98 268 112 250 112 c 0
 232 112 218 98 218 80 c 0xfb
424 340 m 1
 403 319 381 301 361 288 c 1
 393 262 418 226 432 202 c 1
 432 306 l 2
 432 319 429 330 424 340 c 1
EndSplineSet
EndChar
StartChar: uni0E2B
Encoding: 233 3627 243
Width: 600
Flags: W
HStem: 0 21G<151 226 425 500> 269 63<110.9 155.1> 395 63<110.9 155.1 385.9 430.1>
VStem: 40 62<340.9 386.4> 151 75<112 272> 164 62<340.9 386.4> 314 63<340.9 386.4> 425 75<0 245.885> 439 61<340.9 386.4>
Fore
226 0 m 1xf7
 151 0 l 1
 151 272 l 1xfa
 146 270 140 269 133 269 c 0
 81 269 40 311 40 363 c 0
 40 416 81 458 133 458 c 0
 185 458 226 416 226 363 c 2xf6
 226 112 l 1
 355 292 l 1
 332 308 314 335 314 365 c 0
 314 415 357 458 407 458 c 0
 457 458 500 415 500 365 c 0xfa80
 500 338 485 313 466 297 c 1
 491 274 500 237 500 211 c 2
 500 0 l 1
 425 0 l 1
 425 211 l 2
 425 241 423 264 416 271 c 1
 226 0 l 1xf7
377 363 m 0
 377 346 391 332 408 332 c 0
 425 332 439 346 439 363 c 0xf280
 439 381 425 395 408 395 c 0
 391 395 377 381 377 363 c 0
102 363 m 0
 102 346 116 332 133 332 c 0
 150 332 164 346 164 363 c 0xf6
 164 381 150 395 133 395 c 0
 116 395 102 381 102 363 c 0
EndSplineSet
EndChar
